{
DisplayStrings = (
"/ka-deva/ka-deva/ka-deva/kh-deva/g_ra-deva/ttha-deva"
);
classes = (
{
automatic = 1;
code = "A Aacute Acircumflex Adieresis Agrave Aogonek Aring Atilde AE B C Ccedilla D Eth E Eacute Ecircumflex Edieresis Egrave Eogonek F G H I IJ Iacute Icircumflex Idieresis Igrave Itilde J Jcircumflex K Kcommaaccent L Ldot Lslash M N Nacute Ntilde O Oacute Ocircumflex Odieresis Ograve Oslash Otilde OE P Thorn Q R Racute Rcaron Rcommaaccent S Scaron Scedilla Scommaaccent T U Uacute Ucircumflex Udieresis Ugrave V W X Y Yacute Ydieresis Z Zacute Zcaron Zdotaccent Omega";
name = Uppercase;
},
{
automatic = 1;
code = "iMatra-deva iMatra-deva.0 iMatra-deva.05 iMatra-deva.10";
name = DevaIMatras;
},
{
automatic = 1;
code = "iMatra_reph-deva iMatra_reph-deva.0 iMatra_reph-deva.05 iMatra_reph-deva.10";
name = DevaIMatraRephs;
},
{
automatic = 1;
code = "iMatra_reph_anusvara-deva iMatra_reph_anusvara-deva.0 iMatra_reph_anusvara-deva.05 iMatra_reph_anusvara-deva.10";
name = DevaIMatraRephAnusvaras;
},
{
automatic = 1;
code = "ka-deva kha-deva ga-deva gha-deva nga-deva ca-deva cha-deva ja-deva jha-deva nya-deva tta-deva ttha-deva dda-deva ddha-deva nna-deva ta-deva tha-deva da-deva dha-deva na-deva nnna-deva pa-deva pha-deva ba-deva bha-deva ma-deva ya-deva ra-deva rra-deva la-deva lla-deva llla-deva va-deva sha-deva ssa-deva sa-deva ha-deva qa-deva khha-deva ghha-deva za-deva dddha-deva rha-deva fa-deva yya-deva zha-deva gga-deva jja-deva ddda-deva bba-deva la-deva.loclMAR sha-deva.loclMAR jha-deva.loclNEP zha-deva.loclNEP ya-deva.post";
name = DevaFullforms;
},
{
automatic = 1;

glyphs = (
{
glyphname = A;
layers = (
{
layerId = "39185045-6A8C-415A-8312-7B8F11386A4C";
name = Regular;
paths = (
{
closed = 1;
nodes = (
"1 0 LINE",
"234 0 LINE",
"234 42 LINE",
"153 56 LINE",
"206 213 LINE",
"499 213 LINE",
"551 56 LINE",
"470 42 LINE",
"470 0 LINE",
"728 0 LINE",
"728 42 LINE",
"650 56 LINE",
"407 758 LINE",
"325 758 LINE",
"71 56 LINE",
"1 42 LINE"
);
},
{
closed = 1;
nodes = (
"225 271 LINE",
"354 656 LINE",
"400 509 LINE",
"479 271 LINE"
);
}
);
width = 729;
}
);
unicode = 0041;
userData = {
com.typemytype.robofont.layerData = {
};
};
},
{
glyphname = Aacute;
layers = (
{
layerId = "39185045-6A8C-415A-8312-7B8F11386A4C";
name = Regular;
paths = (
{
closed = 1;
nodes = (
"361 785 LINE",
"422 795 OFFCURVE",
"495 826 OFFCURVE",
"556 865 CURVE",
"485 938 LINE",
"335 811 LINE"
);
},
{
closed = 1;
nodes = (
"1 0 LINE",
"234 0 LINE",
"234 42 LINE",
"153 56 LINE",
"206 213 LINE",
"499 213 LINE",
"551 56 LINE",
"470 42 LINE",
"470 0 LINE",
"728 0 LINE",
"728 42 LINE",
"650 56 LINE",
"407 758 LINE",
"325 758 LINE",
"71 56 LINE",
"1 42 LINE"
);
},
{
closed = 1;
nodes = (
"225 271 LINE",
"354 656 LINE",
"400 509 LINE",
"479 271 LINE"
);
}
);
width = 729;
}
);
unicode = 00C1;
userData = {
com.typemytype.robofont.layerData = {
};
};
},
{
glyphname = Acircumflex;
layers = (
{
layerId = "39185045-6A8C-415A-8312-7B8F11386A4C";
name = Regular;
paths = (
{
closed = 1;
nodes = (
"234 789 LINE",
"366 871 LINE",
"495 789 LINE",
"537 813 LINE",
"412 938 LINE",
"319 938 LINE",
"196 812 LINE"
);
},
{
closed = 1;
nodes = (
"1 0 LINE",
"234 0 LINE",
"234 42 LINE",
"153 56 LINE",
"206 213 LINE",
"499 213 LINE",
"551 56 LINE",
"470 42 LINE",
"470 0 LINE",
"728 0 LINE",
"728 42 LINE",
"650 56 LINE",
"407 758 LINE",
"325 758 LINE",
"71 56 LINE",
"1 42 LINE"
);
},
{
closed = 1;
nodes = (
"225 271 LINE",
"354 656 LINE",
"400 509 LINE",
"479 271 LINE"
);
}
);
width = 729;
}
);
unicode = 00C2;
userData = {
com.typemytype.robofont.layerData = {
};
};
},
{
glyphname = Adieresis;
layers = (
{
layerId = "39185045-6A8C-415A-8312-7B8F11386A4C";
name = Regular;
paths = (
{
closed = 1;
nodes = (
"473 806 CURVE SMOOTH",
"509 806 OFFCURVE",
"546 834 OFFCURVE",
"546 877 CURVE SMOOTH",
"546 910 OFFCURVE",
"527 938 OFFCURVE",
"484 938 CURVE SMOOTH",
"449 938 OFFCURVE",
"411 907 OFFCURVE",
"411 866 CURVE SMOOTH",
"411 829 OFFCURVE",
"441 806 OFFCURVE"
);
},
{
closed = 1;
nodes = (
"245 806 CURVE SMOOTH",
"282 806 OFFCURVE",
"318 834 OFFCURVE",
"318 877 CURVE SMOOTH",
"318 910 OFFCURVE",
"299 938 OFFCURVE",
"256 938 CURVE SMOOTH",
"222 938 OFFCURVE",
"184 907 OFFCURVE",
"184 866 CURVE SMOOTH",
"184 829 OFFCURVE",
"213 806 OFFCURVE"
);
},
{
closed = 1;
nodes = (
"1 0 LINE",
"234 0 LINE",
"234 42 LINE",
"153 56 LINE",
"206 213 LINE",
"499 213 LINE",
"551 56 LINE",
"470 42 LINE",
"470 0 LINE",
"728 0 LINE",
"728 42 LINE",
"650 56 LINE",
"407 758 LINE",
"325 758 LINE",
"71 56 LINE",
"1 42 LINE"
);
},
{
closed = 1;
nodes = (
"225 271 LINE",
"354 656 LINE",
"400 509 LINE",
"479 271 LINE"
);
}
);
width = 729;
}
);
unicode = 00C4;
userData = {
com.typemytype.robofont.layerData = {
};
};
},
{
glyphname = Agrave;
layers = (
{
layerId = "39185045-6A8C-415A-8312-7B8F11386A4C";
name = Regular;
paths = (
{
closed = 1;
nodes = (
"397 811 LINE",
"248 938 LINE",
"176 865 LINE",
"237 826 OFFCURVE",
"310 795 OFFCURVE",
"371 785 CURVE"
);
},
{
closed = 1;
nodes = (
"1 0 LINE",
"234 0 LINE",
"234 42 LINE",
"153 56 LINE",
"206 213 LINE",
"499 213 LINE",
"551 56 LINE",
"470 42 LINE",
"470 0 LINE",
"728 0 LINE",
"728 42 LINE",
"650 56 LINE",
"407 758 LINE",
"325 758 LINE",
"71 56 LINE",
"1 42 LINE"
);
},
{
closed = 1;
nodes = (
"225 271 LINE",
"354 656 LINE",
"400 509 LINE",
"479 271 LINE"
);
}
);
width = 729;
}
);
unicode = 00C0;
userData = {
com.typemytype.robofont.layerData = {
};
};
},
{
glyphname = Aogonek;
layers = (
{
layerId = "39185045-6A8C-415A-8312-7B8F11386A4C";
name = Regular;
paths = (
{
closed = 1;
nodes = (
"1 0 LINE",
"234 0 LINE",
"234 42 LINE",
"153 56 LINE",
"206 213 LINE",
"499 213 LINE",
"551 56 LINE",
"470 42 LINE",
"470 0 LINE",
"557 0 LINE",
"488 -33 OFFCURVE",
"413 -104 OFFCURVE",
"413 -165 CURVE SMOOTH",
"413 -208 OFFCURVE",
"438 -253 OFFCURVE",
"510 -257 CURVE SMOOTH",
"604 -262 OFFCURVE",
"653 -223 OFFCURVE",
"679 -203 CURVE",
"668 -160 LINE",
"652 -168 OFFCURVE",
"604 -197 OFFCURVE",
"563 -195 CURVE SMOOTH",
"521 -192 OFFCURVE",
"500 -182 OFFCURVE",
"500 -137 CURVE SMOOTH",
"500 -93 OFFCURVE",
"579 -23 OFFCURVE",
"637 0 CURVE",
"728 0 LINE",
"728 42 LINE",
"650 56 LINE",
"407 758 LINE",
"325 758 LINE",
"71 56 LINE",
"1 42 LINE"
);
},
{
closed = 1;
nodes = (
"225 271 LINE",
"354 656 LINE",
"400 509 LINE",
"479 271 LINE"
);
}
);
width = 729;
}
);
unicode = 0104;
userData = {
com.typemytype.robofont.layerData = {
};
};
},
{
glyphname = Aring;
layers = (
{
layerId = "39185045-6A8C-415A-8312-7B8F11386A4C";
name = Regular;
paths = (
{
closed = 1;
nodes = (
"1 0 LINE",
"234 0 LINE",
"234 42 LINE",
"153 56 LINE",
"206 213 LINE",
"499 213 LINE",
"551 56 LINE",
"470 42 LINE",
"470 0 LINE",
"728 0 LINE",
"728 42 LINE",
"650 56 LINE",
"420 719 LINE",
"461 738 OFFCURVE",
"488 776 OFFCURVE",
"488 822 CURVE SMOOTH",
"488 887 OFFCURVE",
"432 938 OFFCURVE",
"365 938 CURVE SMOOTH",
"297 938 OFFCURVE",
"242 887 OFFCURVE",
"242 822 CURVE SMOOTH",
"242 775 OFFCURVE",
"270 737 OFFCURVE",
"311 718 CURVE",
"71 56 LINE",
"1 42 LINE"
);
},
{
closed = 1;
nodes = (
"365 759 CURVE SMOOTH",
"329 759 OFFCURVE",
"300 785 OFFCURVE",
"300 821 CURVE SMOOTH",
"300 856 OFFCURVE",
"329 883 OFFCURVE",
"365 883 CURVE SMOOTH",
"400 883 OFFCURVE",
"430 856 OFFCURVE",
"430 821 CURVE SMOOTH",
"430 785 OFFCURVE",
"400 759 OFFCURVE"
);
},
{
closed = 1;
nodes = (
"225 271 LINE",
"354 656 LINE",
"400 509 LINE",
"479 271 LINE"
);
}
);
width = 729;
}
);
unicode = 00C5;
userData = {
com.typemytype.robofont.layerData = {
};
};
},
{
glyphname = Atilde;
layers = (
{
layerId = "39185045-6A8C-415A-8312-7B8F11386A4C";
name = Regular;
paths = (
{
closed = 1;
nodes = (
"197 819 LINE",
"216 838 OFFCURVE",
"253 860 OFFCURVE",
"287 860 CURVE SMOOTH",
"335 860 OFFCURVE",
"350 796 OFFCURVE",
"414 796 CURVE SMOOTH",
"466 796 OFFCURVE",
"525 834 OFFCURVE",
"549 880 CURVE",
"524 916 LINE",
"503 895 OFFCURVE",
"471 876 OFFCURVE",
"434 876 CURVE SMOOTH",
"386 876 OFFCURVE",
"370 938 OFFCURVE",
"307 938 CURVE SMOOTH",
"255 938 OFFCURVE",
"196 900 OFFCURVE",
"171 854 CURVE"
);
},
{
closed = 1;
nodes = (
"1 0 LINE",
"234 0 LINE",
"234 42 LINE",
"153 56 LINE",
"206 213 LINE",
"499 213 LINE",
"551 56 LINE",
"470 42 LINE",
"470 0 LINE",
"728 0 LINE",
"728 42 LINE",
"650 56 LINE",
"407 758 LINE",
"325 758 LINE",
"71 56 LINE",
"1 42 LINE"
);
},
{
closed = 1;
nodes = (
"225 271 LINE",
"354 656 LINE",
"400 509 LINE",
"479 271 LINE"
);
}
);
width = 729;
}
);
unicode = 00C3;
userData = {
com.typemytype.robofont.layerData = {
};
};
},
{
glyphname = AE;
layers = (
{
layerId = "39185045-6A8C-415A-8312-7B8F11386A4C";
name = Regular;
paths = (
{
closed = 1;
nodes = (
"1 0 LINE",
"234 0 LINE",
"234 42 LINE",
"152 56 LINE",
"214 223 LINE",
"510 223 LINE",
"561 56 LINE",
"481 42 LINE",
"481 0 LINE",
"895 0 LINE",
"917 142 LINE",
"874 163 LINE",
"825 62 LINE",
"668 54 LINE",
"574 370 LINE",
"747 368 LINE",
"761 298 LINE",
"806 298 LINE",
"806 503 LINE",
"761 503 LINE",
"747 427 LINE",
"558 424 LINE",
"474 707 LINE",
"772 701 LINE",
"794 618 LINE",
"843 619 LINE",
"829 758 LINE",
"355 758 LINE",
"70 56 LINE",
"1 42 LINE"
);
},
{
closed = 1;
nodes = (
"236 280 LINE",
"383 672 LINE",
"400 579 LINE",
"492 280 LINE"
);
}
);
width = 947;
}
);
unicode = 00C6;
userData = {
com.typemytype.robofont.layerData = {
};
};
},
{
glyphname = B;
layers = (
{
layerId = "39185045-6A8C-415A-8312-7B8F11386A4C";
name = Regular;
paths = (
{
closed = 1;
nodes = (
"52 0 LINE",
"176 0 LINE",
"210 -2 OFFCURVE",
"275 -7 OFFCURVE",
"331 -7 CURVE SMOOTH",
"545 -7 OFFCURVE",
"647 91 OFFCURVE",
"647 223 CURVE SMOOTH",
"647 333 OFFCURVE",
"562 406 OFFCURVE",
"455 408 CURVE",
"553 430 OFFCURVE",
"598 504 OFFCURVE",
"598 594 CURVE SMOOTH",
"598 699 OFFCURVE",
"514 764 OFFCURVE",
"357 765 CURVE SMOOTH",
"278 766 OFFCURVE",
"220 760 OFFCURVE",
"177 758 CURVE SMOOTH",
"54 758 LINE",
"54 710 LINE",
"134 702 LINE",
"134 56 LINE",
"52 42 LINE"
);
},
{
closed = 1;
nodes = (
"230 706 LINE",
"252 715 OFFCURVE",
"313 713 OFFCURVE",
"337 713 CURVE SMOOTH",
"435 713 OFFCURVE",
"508 667 OFFCURVE",
"508 576 CURVE SMOOTH",
"508 477 OFFCURVE",
"446 426 OFFCURVE",
"347 426 CURVE SMOOTH",
"314 426 OFFCURVE",
"262 423 OFFCURVE",
"229 429 CURVE"
);
},
{
closed = 1;
nodes = (
"229 364 LINE",
"265 368 OFFCURVE",
"316 366 OFFCURVE",
"362 366 CURVE SMOOTH",
"484 366 OFFCURVE",
"546 317 OFFCURVE",
"546 204 CURVE SMOOTH",
"546 88 OFFCURVE",
"460 47 OFFCURVE",
"353 47 CURVE SMOOTH",
"312 47 OFFCURVE",
"247 55 OFFCURVE",
"229 66 CURVE"
);
}
);
width = 693;
}
);
unicode = 0042;
userData = {
com.typemytype.robofont.layerData = {
};
};
},
{
glyphname = C;
layers = (
{
layerId = "39185045-6A8C-415A-8312-7B8F11386A4C";
name = Regular;
paths = (
{
closed = 1;
nodes = (
"42 354 CURVE SMOOTH",
"42 137 OFFCURVE",
"189 -14 OFFCURVE",
"391 -14 CURVE SMOOTH",
"530 -14 OFFCURVE",
"593 28 OFFCURVE",
"640 31 CURVE",
"640 171 LINE",
"625 171 OFFCURVE",
"613 171 OFFCURVE",
"598 171 CURVE",
"570 96 LINE",
"541 59 OFFCURVE",
"492 38 OFFCURVE",
"414 38 CURVE SMOOTH",
"235 38 OFFCURVE",
"142 199 OFFCURVE",
"142 384 CURVE SMOOTH",
"142 591 OFFCURVE",
"266 708 OFFCURVE",
"405 708 CURVE SMOOTH",
"473 708 OFFCURVE",
"512 698 OFFCURVE",
"554 670 CURVE",
"580 589 LINE",
"631 589 LINE",
"639 730 LINE",
"597 740 OFFCURVE",
"529 765 OFFCURVE",
"436 765 CURVE SMOOTH",
"227 765 OFFCURVE",
"42 605 OFFCURVE"
);
}
);
width = 688;
}
);
unicode = 0043;
userData = {
com.typemytype.robofont.layerData = {
};
};
},
{
glyphname = Ccedilla;
layers = (
{
layerId = "39185045-6A8C-415A-8312-7B8F11386A4C";
name = Regular;
paths = (
{
closed = 1;
nodes = (
"42 354 CURVE SMOOTH",
"42 149 OFFCURVE",
"172 4 OFFCURVE",
"356 -12 CURVE",
"347 -46 OFFCURVE",
"343 -75 OFFCURVE",
"342 -104 CURVE",
"344 -104 OFFCURVE",
"359 -102 OFFCURVE",
"366 -102 CURVE SMOOTH",
"419 -102 OFFCURVE",
"443 -122 OFFCURVE",
"443 -151 CURVE SMOOTH",
"443 -200 OFFCURVE",
"411 -205 OFFCURVE",
"375 -205 CURVE SMOOTH",
"363 -205 OFFCURVE",
"334 -202 OFFCURVE",
"319 -198 CURVE",
"319 -215 OFFCURVE",
"319 -230 OFFCURVE",
"319 -247 CURVE",
"339 -252 OFFCURVE",
"358 -260 OFFCURVE",
"415 -257 CURVE SMOOTH",
"486 -253 OFFCURVE",
"539 -218 OFFCURVE",
"539 -153 CURVE SMOOTH",
"539 -111 OFFCURVE",
"504 -61 OFFCURVE",
"414 -61 CURVE",
"413 -46 OFFCURVE",
"413 -28 OFFCURVE",
"414 -13 CURVE",
"538 -9 OFFCURVE",
"596 28 OFFCURVE",
"640 31 CURVE",
"640 171 LINE",
"625 171 OFFCURVE",
"613 171 OFFCURVE",
"598 171 CURVE",
"570 96 LINE",
"541 59 OFFCURVE",
"492 38 OFFCURVE",
"414 38 CURVE SMOOTH",
"235 38 OFFCURVE",
"142 199 OFFCURVE",
"142 384 CURVE SMOOTH",
"142 591 OFFCURVE",
"266 708 OFFCURVE",
"405 708 CURVE SMOOTH",
"473 708 OFFCURVE",
"512 698 OFFCURVE",
"554 670 CURVE",
"580 589 LINE",
"631 589 LINE",
"639 730 LINE",
"597 740 OFFCURVE",
"529 765 OFFCURVE",
"436 765 CURVE SMOOTH",
"227 765 OFFCURVE",
"42 605 OFFCURVE"
);
}
);
width = 688;
}
);
unicode = 00C7;
userData = {
com.typemytype.robofont.layerData = {
};
};
},
{
glyphname = D;
layers = (
{
layerId = "39185045-6A8C-415A-8312-7B8F11386A4C";
name = Regular;
paths = (
{
closed = 1;
nodes = (
"52 0 LINE",
"96 0 OFFCURVE",
"139 0 OFFCURVE",
"184 0 CURVE SMOOTH",
"249 0 OFFCURVE",
"300 -3 OFFCURVE",
"348 -5 CURVE SMOOTH",
"565 -10 OFFCURVE",
"734 143 OFFCURVE",
"734 399 CURVE SMOOTH",
"734 626 OFFCURVE",
"618 767 OFFCURVE",
"366 765 CURVE SMOOTH",
"304 765 OFFCURVE",
"269 758 OFFCURVE",
"182 758 CURVE SMOOTH",
"54 758 LINE",
"54 710 LINE",
"134 702 LINE",
"134 56 LINE",
"52 42 LINE"
);
},
{
closed = 1;
nodes = (
"229 701 LINE",
"259 706 OFFCURVE",
"283 709 OFFCURVE",
"336 710 CURVE SMOOTH",
"519 716 OFFCURVE",
"634 604 OFFCURVE",
"634 375 CURVE SMOOTH",
"634 154 OFFCURVE",
"508 53 OFFCURVE",
"365 49 CURVE SMOOTH",
"314 48 OFFCURVE",
"271 53 OFFCURVE",
"229 64 CURVE"
);
}
);
width = 778;
}
);
unicode = 0044;
userData = {
com.typemytype.robofont.layerData = {
};
};
},
{
glyphname = Eth;
layers = (
{
layerId = "39185045-6A8C-415A-8312-7B8F11386A4C";
name = Regular;
paths = (
{
closed = 1;
nodes = (
"52 0 LINE",
"96 0 OFFCURVE",
"139 0 OFFCURVE",
"184 0 CURVE SMOOTH",
"249 0 OFFCURVE",
"300 -3 OFFCURVE",
"348 -5 CURVE SMOOTH",
"565 -10 OFFCURVE",
"734 143 OFFCURVE",
"734 399 CURVE SMOOTH",
"734 626 OFFCURVE",
"618 767 OFFCURVE",
"366 765 CURVE SMOOTH",
"304 765 OFFCURVE",
"269 758 OFFCURVE",
"182 758 CURVE SMOOTH",
"54 758 LINE",
"54 710 LINE",
"134 702 LINE",
"134 425 LINE",
"48 425 LINE",
"48 354 LINE",
"134 354 LINE",
"134 56 LINE",
"52 42 LINE"
);
},
{
closed = 1;
nodes = (
"229 354 LINE",
"355 354 LINE",
"355 425 LINE",
"229 425 LINE",
"229 701 LINE",
"259 706 OFFCURVE",
"283 709 OFFCURVE",
"336 710 CURVE SMOOTH",
"519 716 OFFCURVE",
"634 604 OFFCURVE",
"634 375 CURVE SMOOTH",
"634 154 OFFCURVE",
"508 53 OFFCURVE",
"365 49 CURVE SMOOTH",
"314 48 OFFCURVE",
"271 53 OFFCURVE",
"229 64 CURVE"
);
}
);
width = 778;
}
);
unicode = 00D0;
userData = {
com.typemytype.robofont.layerData = {
};
};
},
{
glyphname = E;
layers = (
{
layerId = "39185045-6A8C-415A-8312-7B8F11386A4C";
name = Regular;
paths = (
{
closed = 1;
nodes = (
"50 0 LINE",
"591 0 LINE",
"613 151 LINE",
"566 163 LINE",
"517 62 LINE",
"227 53 LINE",
"227 370 LINE",
"409 367 LINE",
"423 292 LINE",
"473 292 LINE",
"473 502 LINE",
"423 502 LINE",
"409 426 LINE",
"227 422 LINE",
"227 707 LINE",
"497 701 LINE",
"519 619 LINE",
"573 619 LINE",
"559 758 LINE",
"52 758 LINE",
"52 710 LINE",
"132 702 LINE",
"132 56 LINE",
"50 42 LINE"
);
}
);
width = 644;
}
);
unicode = 0045;
userData = {
com.typemytype.robofont.layerData = {
};
};
},
{
glyphname = Eacute;
layers = (
{
layerId = "39185045-6A8C-415A-8312-7B8F11386A4C";
name = Regular;
paths = (
{
closed = 1;
nodes = (
"351 785 LINE",
"411 795 OFFCURVE",
"484 826 OFFCURVE",
"545 865 CURVE",
"474 938 LINE",
"325 811 LINE"
);
},
{
closed = 1;
nodes = (
"50 0 LINE",
"591 0 LINE",
"613 151 LINE",
"566 163 LINE",
"517 62 LINE",
"227 53 LINE",
"227 370 LINE",
"409 367 LINE",
"423 292 LINE",
"473 292 LINE",
"473 502 LINE",
"423 502 LINE",
"409 426 LINE",
"227 422 LINE",
"227 707 LINE",
"497 701 LINE",
"519 619 LINE",
"573 619 LINE",
"559 758 LINE",
"52 758 LINE",
"52 710 LINE",
"132 702 LINE",
"132 56 LINE",
"50 42 LINE"
);
}
);
width = 644;
}
);
unicode = 00C9;
userData = {
com.typemytype.robofont.layerData = {
};
};
},
{
glyphname = Ecircumflex;
layers = (
{
layerId = "39185045-6A8C-415A-8312-7B8F11386A4C";
name = Regular;
paths = (
{
closed = 1;
nodes = (
"223 789 LINE",
"355 871 LINE",
"484 789 LINE",
"526 813 LINE",
"401 938 LINE",
"309 938 LINE",
"185 812 LINE"
);
},
{
closed = 1;
nodes = (
"50 0 LINE",
"591 0 LINE",
"613 151 LINE",
"566 163 LINE",
"517 62 LINE",
"227 53 LINE",
"227 370 LINE",
"409 367 LINE",
"423 292 LINE",
"473 292 LINE",
"473 502 LINE",
"423 502 LINE",
"409 426 LINE",
"227 422 LINE",
"227 707 LINE",
"497 701 LINE",
"519 619 LINE",
"573 619 LINE",
"559 758 LINE",
"52 758 LINE",
"52 710 LINE",
"132 702 LINE",
"132 56 LINE",
"50 42 LINE"
);
}
);
width = 644;
}
);
unicode = 00CA;
userData = {
com.typemytype.robofont.layerData = {
};
};
},
{
glyphname = Edieresis;
layers = (
{
layerId = "39185045-6A8C-415A-8312-7B8F11386A4C";
name = Regular;
paths = (
{
closed = 1;
nodes = (
"462 806 CURVE SMOOTH",
"499 806 OFFCURVE",
"535 834 OFFCURVE",
"535 877 CURVE SMOOTH",
"535 910 OFFCURVE",
"516 938 OFFCURVE",
"473 938 CURVE SMOOTH",
"438 938 OFFCURVE",
"400 907 OFFCURVE",
"400 866 CURVE SMOOTH",
"400 829 OFFCURVE",
"430 806 OFFCURVE"
);
},
{
closed = 1;
nodes = (
"234 806 CURVE SMOOTH",
"271 806 OFFCURVE",
"308 834 OFFCURVE",
"308 877 CURVE SMOOTH",
"308 910 OFFCURVE",
"289 938 OFFCURVE",
"246 938 CURVE SMOOTH",
"211 938 OFFCURVE",
"173 907 OFFCURVE",
"173 866 CURVE SMOOTH",
"173 829 OFFCURVE",
"203 806 OFFCURVE"
);
},
{
closed = 1;
nodes = (
"50 0 LINE",
"591 0 LINE",
"613 151 LINE",
"566 163 LINE",
"517 62 LINE",
"227 53 LINE",
"227 370 LINE",
"409 367 LINE",
"423 292 LINE",
"473 292 LINE",
"473 502 LINE",
"423 502 LINE",
"409 426 LINE",
"227 422 LINE",
"227 707 LINE",
"497 701 LINE",
"519 619 LINE",
"573 619 LINE",
"559 758 LINE",
"52 758 LINE",
"52 710 LINE",
"132 702 LINE",
"132 56 LINE",
"50 42 LINE"
);
}
);
width = 644;
}
);
unicode = 00CB;
userData = {
com.typemytype.robofont.layerData = {
};
};
},
{
glyphname = Egrave;
layers = (
{
layerId = "39185045-6A8C-415A-8312-7B8F11386A4C";
name = Regular;
paths = (
{
closed = 1;
nodes = (
"386 811 LINE",
"237 938 LINE",
"166 865 LINE",
"227 826 OFFCURVE",
"299 795 OFFCURVE",
"360 785 CURVE"
);
},
{
closed = 1;
nodes = (
"50 0 LINE",
"591 0 LINE",
"613 151 LINE",
"566 163 LINE",
"517 62 LINE",
"227 53 LINE",
"227 370 LINE",
"409 367 LINE",
"423 292 LINE",
"473 292 LINE",
"473 502 LINE",
"423 502 LINE",
"409 426 LINE",
"227 422 LINE",
"227 707 LINE",
"497 701 LINE",
"519 619 LINE",
"573 619 LINE",
"559 758 LINE",
"52 758 LINE",
"52 710 LINE",
"132 702 LINE",
"132 56 LINE",
"50 42 LINE"
);
}
);
width = 644;
}
);
unicode = 00C8;
userData = {
com.typemytype.robofont.layerData = {
};
};
},
{
glyphname = Eogonek;
layers = (
{
layerId = "39185045-6A8C-415A-8312-7B8F11386A4C";
name = Regular;
paths = (
{
closed = 1;
nodes = (
"50 0 LINE",
"511 0 LINE",
"442 -33 OFFCURVE",
"368 -104 OFFCURVE",
"368 -165 CURVE SMOOTH",
"368 -208 OFFCURVE",
"393 -253 OFFCURVE",
"464 -257 CURVE SMOOTH",
"558 -262 OFFCURVE",
"607 -223 OFFCURVE",
"633 -203 CURVE",
"623 -160 LINE",
"607 -168 OFFCURVE",
"558 -197 OFFCURVE",
"517 -195 CURVE SMOOTH",
"476 -192 OFFCURVE",
"455 -182 OFFCURVE",
"455 -137 CURVE SMOOTH",
"455 -93 OFFCURVE",
"533 -23 OFFCURVE",
"591 0 CURVE",
"613 151 LINE",
"566 163 LINE",
"517 62 LINE",
"227 53 LINE",
"227 370 LINE",
"409 367 LINE",
"423 292 LINE",
"473 292 LINE",
"473 502 LINE",
"423 502 LINE",
"409 426 LINE",
"227 422 LINE",
"227 707 LINE",
"497 701 LINE",
"519 619 LINE",
"573 619 LINE",
"559 758 LINE",
"52 758 LINE",
"52 710 LINE",
"132 702 LINE",
"132 56 LINE",
"50 42 LINE"
);
}
);
width = 644;
}
);
unicode = 0118;
userData = {
com.typemytype.robofont.layerData = {
};
};
},
{
glyphname = F;
layers = (
{
layerId = "39185045-6A8C-415A-8312-7B8F11386A4C";
name = Regular;
paths = (
{
closed = 1;
nodes = (
"51 0 LINE",
"370 0 LINE",
"370 46 LINE",
"229 56 LINE",
"229 361 LINE",
"444 357 LINE",
"457 284 LINE",
"511 284 LINE",
"511 489 LINE",
"463 489 LINE",
"444 418 LINE",
"229 414 LINE",
"229 705 LINE",
"516 698 LINE",
"539 618 LINE",
"587 619 LINE",
"578 758 LINE",
"54 758 LINE",
"54 710 LINE",
"134 702 LINE",
"134 56 LINE",
"51 42 LINE"
);
}
);
width = 604;
}
);
unicode = 0046;
userData = {
com.typemytype.robofont.layerData = {
};
};
},
{
glyphname = G;
layers = (
{
layerId = "39185045-6A8C-415A-8312-7B8F11386A4C";
name = Regular;
paths = (
{
closed = 1;
nodes = (
"42 354 CURVE SMOOTH",
"42 142 OFFCURVE",
"180 -14 OFFCURVE",
"381 -14 CURVE SMOOTH",
"500 -14 OFFCURVE",
"618 37 OFFCURVE",
"661 40 CURVE",
"661 289 LINE",
"721 298 LINE",
"721 346 LINE",
"447 346 LINE",
"447 298 LINE",
"565 290 LINE",
"565 89 LINE",
"527 47 OFFCURVE",
"460 38 OFFCURVE",
"404 38 CURVE SMOOTH",
"226 38 OFFCURVE",
"142 207 OFFCURVE",
"142 384 CURVE SMOOTH",
"142 587 OFFCURVE",
"264 706 OFFCURVE",
"403 708 CURVE SMOOTH",
"507 710 OFFCURVE",
"563 687 OFFCURVE",
"573 674 CURVE",
"598 592 LINE",
"650 592 LINE",
"658 734 LINE",
"624 742 OFFCURVE",
"556 765 OFFCURVE",
"434 765 CURVE SMOOTH",
"221 765 OFFCURVE",
"42 605 OFFCURVE"
);
}
);
width = 750;
}
);
unicode = 0047;
userData = {
com.typemytype.robofont.layerData = {
};
};
},
{
glyphname = H;
layers = (
{
layerId = "39185045-6A8C-415A-8312-7B8F11386A4C";
name = Regular;
paths = (
{
closed = 1;
nodes = (
"52 0 LINE",
"313 0 LINE",
"313 42 LINE",
"229 56 LINE",
"229 340 LINE",
"604 340 LINE",
"604 56 LINE",
"520 42 LINE",
"520 0 LINE",
"783 0 LINE",
"783 42 LINE",
"699 56 LINE",
"699 702 LINE",
"777 710 LINE",
"777 758 LINE",
"523 758 LINE",
"523 710 LINE",
"604 702 LINE",
"604 397 LINE",
"229 397 LINE",
"229 702 LINE",
"309 710 LINE",
"309 758 LINE",
"54 758 LINE",
"54 710 LINE",
"134 702 LINE",
"134 56 LINE",
"52 42 LINE"
);
}
);
width = 833;
}
);
unicode = 0048;
userData = {
com.typemytype.robofont.layerData = {
};
};
},
{
glyphname = I;
layers = (
{
layerId = "39185045-6A8C-415A-8312-7B8F11386A4C";
name = Regular;
paths = (
{
closed = 1;
nodes = (
"51 0 LINE",
"323 0 LINE",
"323 42 LINE",
"234 56 LINE",
"234 702 LINE",
"318 710 LINE",
"318 758 LINE",
"53 758 LINE",
"53 710 LINE",
"139 702 LINE",
"139 56 LINE",
"51 42 LINE"
);
}
);
width = 373;
}
);
unicode = 0049;
userData = {
com.typemytype.robofont.layerData = {
};
};
},
{
glyphname = IJ;
layers = (
{
layerId = "39185045-6A8C-415A-8312-7B8F11386A4C";
name = Regular;
paths = (
{
closed = 1;
nodes = (
"356 -190 LINE",
"458 -175 OFFCURVE",
"571 -104 OFFCURVE",
"597 24 CURVE SMOOTH",
"610 91 OFFCURVE",
"606 176 OFFCURVE",
"606 269 CURVE SMOOTH",
"606 702 LINE",
"686 710 LINE",
"686 758 LINE",
"431 758 LINE",
"431 710 LINE",
"511 702 LINE",
"511 196 LINE SMOOTH",
"511 96 OFFCURVE",
"508 28 OFFCURVE",
"489 -29 CURVE SMOOTH",
"464 -91 OFFCURVE",
"403 -132 OFFCURVE",
"331 -156 CURVE"
);
},
{
closed = 1;
nodes = (
"51 0 LINE",
"323 0 LINE",
"323 42 LINE",
"234 56 LINE",
"234 702 LINE",
"318 710 LINE",
"318 758 LINE",
"53 758 LINE",
"53 710 LINE",
"139 702 LINE",
"139 56 LINE",
"51 42 LINE"
);
}
);
width = 724;
}
);
unicode = 0132;
userData = {
com.typemytype.robofont.layerData = {
};
};
},
{
glyphname = Iacute;
layers = (
{
layerId = "39185045-6A8C-415A-8312-7B8F11386A4C";
name = Regular;
paths = (
{
closed = 1;
nodes = (
"184 785 LINE",
"244 795 OFFCURVE",
"317 826 OFFCURVE",
"378 865 CURVE",
"307 938 LINE",
"158 811 LINE"
);
},
{
closed = 1;
nodes = (
"51 0 LINE",
"323 0 LINE",
"323 42 LINE",
"234 56 LINE",
"234 702 LINE",
"318 710 LINE",
"318 758 LINE",
"53 758 LINE",
"53 710 LINE",
"139 702 LINE",
"139 56 LINE",
"51 42 LINE"
);
}
);
width = 373;
}
);
unicode = 00CD;
userData = {
com.typemytype.robofont.layerData = {
};
};
},
{
glyphname = Icircumflex;
layers = (
{
layerId = "39185045-6A8C-415A-8312-7B8F11386A4C";
name = Regular;
paths = (
{
closed = 1;
nodes = (
"56 789 LINE",
"188 871 LINE",
"317 789 LINE",
"359 813 LINE",
"234 938 LINE",
"142 938 LINE",
"18 812 LINE"
);
},
{
closed = 1;
nodes = (
"51 0 LINE",
"323 0 LINE",
"323 42 LINE",
"234 56 LINE",
"234 702 LINE",
"318 710 LINE",
"318 758 LINE",
"53 758 LINE",
"53 710 LINE",
"139 702 LINE",
"139 56 LINE",
"51 42 LINE"
);
}
);
width = 373;
}
);
unicode = 00CE;
userData = {
com.typemytype.robofont.layerData = {
};
};
},
{
glyphname = Idieresis;
layers = (
{
layerId = "39185045-6A8C-415A-8312-7B8F11386A4C";
name = Regular;
paths = (
{
closed = 1;
nodes = (
"295 806 CURVE SMOOTH",
"332 806 OFFCURVE",
"368 834 OFFCURVE",
"368 877 CURVE SMOOTH",
"368 910 OFFCURVE",
"349 938 OFFCURVE",
"306 938 CURVE SMOOTH",
"271 938 OFFCURVE",
"233 907 OFFCURVE",
"233 866 CURVE SMOOTH",
"233 829 OFFCURVE",
"263 806 OFFCURVE"
);
},
{
closed = 1;
nodes = (
"67 806 CURVE SMOOTH",
"104 806 OFFCURVE",
"141 834 OFFCURVE",
"141 877 CURVE SMOOTH",
"141 910 OFFCURVE",
"122 938 OFFCURVE",
"79 938 CURVE SMOOTH",
"44 938 OFFCURVE",
"6 907 OFFCURVE",
"6 866 CURVE SMOOTH",
"6 829 OFFCURVE",
"36 806 OFFCURVE"
);
},
{
closed = 1;
nodes = (
"51 0 LINE",
"323 0 LINE",
"323 42 LINE",
"234 56 LINE",
"234 702 LINE",
"318 710 LINE",
"318 758 LINE",
"53 758 LINE",
"53 710 LINE",
"139 702 LINE",
"139 56 LINE",
"51 42 LINE"
);
}
);
width = 373;
}
);
unicode = 00CF;
userData = {
com.typemytype.robofont.layerData = {
};
};
},
{
glyphname = Igrave;
layers = (
{
layerId = "39185045-6A8C-415A-8312-7B8F11386A4C";
name = Regular;
paths = (
{
closed = 1;
nodes = (
"219 811 LINE",
"70 938 LINE",
"-1 865 LINE",
"60 826 OFFCURVE",
"132 795 OFFCURVE",
"193 785 CURVE"
);
},
{
closed = 1;
nodes = (
"51 0 LINE",
"323 0 LINE",
"323 42 LINE",
"234 56 LINE",
"234 702 LINE",
"318 710 LINE",
"318 758 LINE",
"53 758 LINE",
"53 710 LINE",
"139 702 LINE",
"139 56 LINE",
"51 42 LINE"
);
}
);
width = 373;
}
);
unicode = 00CC;
userData = {
com.typemytype.robofont.layerData = {
};
};
},
{
glyphname = Itilde;
layers = (
{
layerId = "39185045-6A8C-415A-8312-7B8F11386A4C";
name = Regular;
paths = (
{
closed = 1;
nodes = (
"19 819 LINE",
"39 838 OFFCURVE",
"76 860 OFFCURVE",
"109 860 CURVE SMOOTH",
"157 860 OFFCURVE",
"172 796 OFFCURVE",
"236 796 CURVE SMOOTH",
"288 796 OFFCURVE",
"347 834 OFFCURVE",
"372 880 CURVE",
"346 916 LINE",
"325 895 OFFCURVE",
"293 876 OFFCURVE",
"256 876 CURVE SMOOTH",
"208 876 OFFCURVE",
"192 938 OFFCURVE",
"129 938 CURVE SMOOTH",
"77 938 OFFCURVE",
"19 900 OFFCURVE",
"-6 854 CURVE"
);
},
{
closed = 1;
nodes = (
"51 0 LINE",
"323 0 LINE",
"323 42 LINE",
"234 56 LINE",
"234 702 LINE",
"318 710 LINE",
"318 758 LINE",
"53 758 LINE",
"53 710 LINE",
"139 702 LINE",
"139 56 LINE",
"51 42 LINE"
);
}
);
width = 373;
}
);
unicode = 0128;
userData = {
com.typemytype.robofont.layerData = {
};
};
},
{
glyphname = J;
layers = (
{
layerId = "39185045-6A8C-415A-8312-7B8F11386A4C";
name = Regular;
paths = (
{
closed = 1;
nodes = (
"116 -29 CURVE SMOOTH",
"91 -91 OFFCURVE",
"31 -132 OFFCURVE",
"-42 -156 CURVE",
"-17 -190 LINE",
"86 -175 OFFCURVE",
"199 -104 OFFCURVE",
"225 24 CURVE SMOOTH",
"237 91 OFFCURVE",
"234 176 OFFCURVE",
"234 269 CURVE SMOOTH",
"234 702 LINE",
"313 710 LINE",
"313 758 LINE",
"58 758 LINE",
"58 710 LINE",
"139 702 LINE",
"139 196 LINE SMOOTH",
"139 96 OFFCURVE",
"136 28 OFFCURVE"
);
}
);
width = 352;
}
);
unicode = 004A;
userData = {
com.typemytype.robofont.layerData = {
};
};
},
{
glyphname = Jcircumflex;
layers = (
{
layerId = "39185045-6A8C-415A-8312-7B8F11386A4C";
name = Regular;
paths = (
{
closed = 1;
nodes = (
"55 789 LINE",
"187 871 LINE",
"316 789 LINE",
"358 813 LINE",
"233 938 LINE",
"141 938 LINE",
"17 812 LINE"
);
},
{
closed = 1;
nodes = (
"116 -29 CURVE SMOOTH",
"91 -91 OFFCURVE",
"31 -132 OFFCURVE",
"-42 -156 CURVE",
"-17 -190 LINE",
"86 -175 OFFCURVE",
"199 -104 OFFCURVE",
"225 24 CURVE SMOOTH",
"237 91 OFFCURVE",
"234 176 OFFCURVE",
"234 269 CURVE SMOOTH",
"234 702 LINE",
"313 710 LINE",
"313 758 LINE",
"58 758 LINE",
"58 710 LINE",
"139 702 LINE",
"139 196 LINE SMOOTH",
"139 96 OFFCURVE",
"136 28 OFFCURVE"
);
}
);
width = 352;
}
);
unicode = 0134;
userData = {
com.typemytype.robofont.layerData = {
};
};
},
{
glyphname = K;
layers = (
{
layerId = "39185045-6A8C-415A-8312-7B8F11386A4C";
name = Regular;
paths = (
{
closed = 1;
nodes = (
"52 0 LINE",
"319 0 LINE",
"319 42 LINE",
"229 55 LINE",
"229 280 LINE",
"311 374 LINE",
"381 303 OFFCURVE",
"520 0 OFFCURVE",
"554 0 CURVE SMOOTH",
"705 0 LINE",
"705 42 LINE",
"626 60 LINE",
"593 60 OFFCURVE",
"431 365 OFFCURVE",
"366 438 CURVE",
"595 702 LINE",
"675 710 LINE",
"675 758 LINE",
"431 758 LINE",
"431 742 OFFCURVE",
"432 727 OFFCURVE",
"432 710 CURVE",
"507 702 LINE",
"229 365 LINE",
"229 702 LINE",
"309 710 LINE",
"309 758 LINE",
"54 758 LINE",
"54 710 LINE",
"134 702 LINE",
"134 56 LINE",
"52 42 LINE"
);
}
);
width = 693;
}
);
unicode = 004B;
userData = {
com.typemytype.robofont.layerData = {
};
};
},
{
glyphname = Kcommaaccent;
layers = (
{
layerId = "39185045-6A8C-415A-8312-7B8F11386A4C";
name = Regular;
paths = (
{
closed = 1;
nodes = (
"52 0 LINE",
"319 0 LINE",
"319 42 LINE",
"229 55 LINE",
"229 280 LINE",
"311 374 LINE",
"381 303 OFFCURVE",
"520 0 OFFCURVE",
"554 0 CURVE SMOOTH",
"705 0 LINE",
"705 42 LINE",
"626 60 LINE",
"593 60 OFFCURVE",
"431 365 OFFCURVE",
"366 438 CURVE",
"595 702 LINE",
"675 710 LINE",
"675 758 LINE",
"431 758 LINE",
"431 742 OFFCURVE",
"432 727 OFFCURVE",
"432 710 CURVE",
"507 702 LINE",
"229 365 LINE",
"229 702 LINE",
"309 710 LINE",
"309 758 LINE",
"54 758 LINE",
"54 710 LINE",
"134 702 LINE",
"134 56 LINE",
"52 42 LINE"
);
},
{
closed = 1;
nodes = (
"349 -71 LINE",
"349 -97 LINE",
"366 -97 OFFCURVE",
"398 -126 OFFCURVE",
"398 -164 CURVE SMOOTH",
"398 -207 OFFCURVE",
"386 -258 OFFCURVE",
"349 -275 CURVE",
"349 -288 LINE",
"376 -313 LINE",
"420 -301 OFFCURVE",
"499 -233 OFFCURVE",
"499 -144 CURVE SMOOTH",
"499 -96 OFFCURVE",
"466 -38 OFFCURVE",
"398 -20 CURVE"
);
}
);
width = 693;
}
);
unicode = 0136;
userData = {
com.typemytype.robofont.layerData = {
};
};
},
{
glyphname = L;
layers = (
{
layerId = "39185045-6A8C-415A-8312-7B8F11386A4C";
name = Regular;
paths = (
{
closed = 1;
nodes = (
"52 0 LINE",
"561 0 LINE",
"593 162 LINE",
"550 183 LINE",
"490 66 LINE",
"229 55 LINE",
"230 697 LINE",
"316 705 LINE",
"316 758 LINE",
"54 758 LINE",
"54 705 LINE",
"134 697 LINE",
"134 56 LINE",
"52 42 LINE"
);
}
);
width = 607;
}
);
unicode = 004C;
userData = {
com.typemytype.robofont.layerData = {
};
};
},
{
glyphname = Ldot;
layers = (
{
layerId = "39185045-6A8C-415A-8312-7B8F11386A4C";
name = Regular;
paths = (
{
closed = 1;
nodes = (
"52 0 LINE",
"561 0 LINE",
"593 162 LINE",
"550 183 LINE",
"490 66 LINE",
"229 55 LINE",
"230 697 LINE",
"316 705 LINE",
"316 758 LINE",
"54 758 LINE",
"54 705 LINE",
"134 697 LINE",
"134 56 LINE",
"52 42 LINE"
);
},
{
closed = 1;
nodes = (
"521 408 CURVE SMOOTH",
"521 370 OFFCURVE",
"551 348 OFFCURVE",
"583 348 CURVE SMOOTH",
"620 348 OFFCURVE",
"656 375 OFFCURVE",
"656 418 CURVE SMOOTH",
"656 452 OFFCURVE",
"637 479 OFFCURVE",
"594 479 CURVE SMOOTH",
"560 479 OFFCURVE",
"521 449 OFFCURVE"
);
}
);
width = 680;
}
);
unicode = 013F;
userData = {
com.typemytype.robofont.layerData = {
};
};
},
{
glyphname = Lslash;
layers = (
{
layerId = "39185045-6A8C-415A-8312-7B8F11386A4C";
name = Regular;
paths = (
{
closed = 1;
nodes = (
"52 0 LINE",
"561 0 LINE",
"593 162 LINE",
"550 183 LINE",
"490 66 LINE",
"229 55 LINE",
"229 311 LINE",
"496 413 LINE",
"496 491 LINE",
"409 457 LINE SMOOTH",
"358 437 OFFCURVE",
"292 410 OFFCURVE",
"229 385 CURVE",
"230 697 LINE",
"316 705 LINE",
"316 758 LINE",
"54 758 LINE",
"54 705 LINE",
"134 697 LINE",
"134 348 LINE",
"83 327 OFFCURVE",
"47 313 OFFCURVE",
"47 313 CURVE SMOOTH",
"47 277 LINE SMOOTH",
"47 267 OFFCURVE",
"47 255 OFFCURVE",
"47 242 CURVE",
"134 275 LINE",
"134 56 LINE",
"52 42 LINE"
);
}
);
width = 607;
}
);
unicode = 0141;
userData = {
com.typemytype.robofont.layerData = {
};
};
},
{
glyphname = M;
layers = (
{
layerId = "39185045-6A8C-415A-8312-7B8F11386A4C";
name = Regular;
paths = (
{
closed = 1;
nodes = (
"38 0 LINE",
"291 0 LINE",
"291 42 LINE",
"198 56 LINE",
"222 520 LINE",
"226 687 LINE",
"244 633 OFFCURVE",
"261 580 OFFCURVE",
"280 527 CURVE SMOOTH",
"467 -7 LINE",
"500 -7 LINE",
"706 602 LINE",
"726 682 LINE",
"730 513 LINE",
"771 56 LINE",
"690 42 LINE",
"690 0 LINE",
"944 0 LINE",
"944 42 LINE",
"860 56 LINE",
"805 697 LINE",
"896 705 LINE",
"896 758 LINE",
"689 758 LINE",
"521 228 LINE",
"499 154 LINE",
"476 226 LINE",
"300 758 LINE",
"75 758 LINE",
"75 705 LINE",
"170 697 LINE",
"122 56 LINE",
"38 42 LINE"
);
}
);
width = 965;
}
);
unicode = 004D;
userData = {
com.typemytype.robofont.layerData = {
};
};
},
{
glyphname = N;
layers = (
{
layerId = "39185045-6A8C-415A-8312-7B8F11386A4C";
name = Regular;
paths = (
{
closed = 1;
nodes = (
"51 0 LINE",
"299 0 LINE",
"299 42 LINE",
"204 56 LINE",
"204 644 LINE",
"271 508 LINE",
"593 0 LINE",
"693 0 LINE",
"693 697 LINE",
"774 706 LINE",
"774 758 LINE",
"543 758 LINE",
"543 706 LINE",
"623 697 LINE",
"623 90 LINE",
"554 224 LINE",
"227 758 LINE",
"54 758 LINE",
"54 705 LINE",
"134 697 LINE",
"134 56 LINE",
"51 42 LINE"
);
}
);
width = 812;
}
);
unicode = 004E;
userData = {
com.typemytype.robofont.layerData = {
};
};
},
{
glyphname = Nacute;
layers = (
{
layerId = "39185045-6A8C-415A-8312-7B8F11386A4C";
name = Regular;
paths = (
{
closed = 1;
nodes = (
"401 785 LINE",
"462 795 OFFCURVE",
"535 826 OFFCURVE",
"596 865 CURVE",
"525 938 LINE",
"375 811 LINE"
);
},
{
closed = 1;
nodes = (
"51 0 LINE",
"299 0 LINE",
"299 42 LINE",
"204 56 LINE",
"204 644 LINE",
"271 508 LINE",
"593 0 LINE",
"693 0 LINE",
"693 697 LINE",
"774 706 LINE",
"774 758 LINE",
"543 758 LINE",
"543 706 LINE",
"623 697 LINE",
"623 90 LINE",
"554 224 LINE",
"227 758 LINE",
"54 758 LINE",
"54 705 LINE",
"134 697 LINE",
"134 56 LINE",
"51 42 LINE"
);
}
);
width = 812;
}
);
unicode = 0143;
userData = {
com.typemytype.robofont.layerData = {
};
};
},
{
glyphname = Ntilde;
layers = (
{
layerId = "39185045-6A8C-415A-8312-7B8F11386A4C";
name = Regular;
paths = (
{
closed = 1;
nodes = (
"237 819 LINE",
"256 838 OFFCURVE",
"293 860 OFFCURVE",
"327 860 CURVE SMOOTH",
"375 860 OFFCURVE",
"390 796 OFFCURVE",
"454 796 CURVE SMOOTH",
"506 796 OFFCURVE",
"565 834 OFFCURVE",
"589 880 CURVE",
"564 916 LINE",
"543 895 OFFCURVE",
"511 876 OFFCURVE",
"474 876 CURVE SMOOTH",
"426 876 OFFCURVE",
"410 938 OFFCURVE",
"347 938 CURVE SMOOTH",
"295 938 OFFCURVE",
"236 900 OFFCURVE",
"211 854 CURVE"
);
},
{
closed = 1;
nodes = (
"51 0 LINE",
"299 0 LINE",
"299 42 LINE",
"204 56 LINE",
"204 644 LINE",
"271 508 LINE",
"593 0 LINE",
"693 0 LINE",
"693 697 LINE",
"774 706 LINE",
"774 758 LINE",
"543 758 LINE",
"543 706 LINE",
"623 697 LINE",
"623 90 LINE",
"554 224 LINE",
"227 758 LINE",
"54 758 LINE",
"54 705 LINE",
"134 697 LINE",
"134 56 LINE",
"51 42 LINE"
);
}
);
width = 812;
}
);
unicode = 00D1;
userData = {
com.typemytype.robofont.layerData = {
};
};
},
{
glyphname = O;
lastChange = "2014-08-27 15:16:46 +0100";
layers = (
{
background = {
paths = (
{
closed = 1;
nodes = (
"44 367 CURVE SMOOTH",
"40 146 OFFCURVE",
"172 -18 OFFCURVE",
"378 -14 CURVE SMOOTH",
"564 -10 OFFCURVE",
"712 136 OFFCURVE",
"718 385 CURVE SMOOTH",
"722 606 OFFCURVE",
"596 771 OFFCURVE",
"393 765 CURVE SMOOTH",
"204 760 OFFCURVE",
"49 616 OFFCURVE"
);
},
{
closed = 1;
nodes = (
"386 38 CURVE SMOOTH",
"236 38 OFFCURVE",
"149 198 OFFCURVE",
"149 368 CURVE SMOOTH",
"149 585 OFFCURVE",
"241 713 OFFCURVE",
"384 713 CURVE SMOOTH",
"533 713 OFFCURVE",
"612 554 OFFCURVE",
"612 384 CURVE SMOOTH",
"612 167 OFFCURVE",
"529 38 OFFCURVE"
);
}
);
};
layerId = "39185045-6A8C-415A-8312-7B8F11386A4C";
name = Regular;
paths = (
{
closed = 1;
nodes = (
"233 723 CURVE SMOOTH",
"124 664 OFFCURVE",
"44 536 OFFCURVE",
"44 357 CURVE SMOOTH",
"44 144 OFFCURVE",
"172 -14 OFFCURVE",
"371 -14 CURVE SMOOTH",
"560 -14 OFFCURVE",
"712 133 OFFCURVE",
"718 385 CURVE SMOOTH",
"722 602 OFFCURVE",
"600 765 OFFCURVE",
"404 765 CURVE SMOOTH",
"354 765 OFFCURVE",
"294 756 OFFCURVE"
);
},
{
closed = 1;
nodes = (
"386 38 CURVE SMOOTH",
"236 38 OFFCURVE",
"149 198 OFFCURVE",
"149 368 CURVE SMOOTH",
"149 585 OFFCURVE",
"241 713 OFFCURVE",
"384 713 CURVE SMOOTH",
"533 713 OFFCURVE",
"612 554 OFFCURVE",
"612 384 CURVE SMOOTH",
"612 167 OFFCURVE",
"529 38 OFFCURVE"
);
}
);
width = 759;
}
);
unicode = 004F;
userData = {
com.typemytype.robofont.layerData = {
};
};
},
{
glyphname = Oacute;
layers = (
{
layerId = "39185045-6A8C-415A-8312-7B8F11386A4C";
name = Regular;
paths = (
{
closed = 1;
nodes = (
"381 785 LINE",
"442 795 OFFCURVE",
"515 826 OFFCURVE",
"576 865 CURVE",
"505 938 LINE",
"355 811 LINE"
);
},
{
closed = 1;
nodes = (
"44 367 CURVE SMOOTH",
"40 146 OFFCURVE",
"172 -18 OFFCURVE",
"378 -14 CURVE SMOOTH",
"564 -10 OFFCURVE",
"712 136 OFFCURVE",
"718 385 CURVE SMOOTH",
"722 606 OFFCURVE",
"596 771 OFFCURVE",
"393 765 CURVE SMOOTH",
"204 760 OFFCURVE",
"49 616 OFFCURVE"
);
},
{
closed = 1;
nodes = (
"386 38 CURVE SMOOTH",
"236 38 OFFCURVE",
"149 198 OFFCURVE",
"149 368 CURVE SMOOTH",
"149 585 OFFCURVE",
"241 713 OFFCURVE",
"384 713 CURVE SMOOTH",
"533 713 OFFCURVE",
"612 554 OFFCURVE",
"612 384 CURVE SMOOTH",
"612 167 OFFCURVE",
"529 38 OFFCURVE"
);
}
);
width = 759;
}
);
unicode = 00D3;
userData = {
com.typemytype.robofont.layerData = {
};
};
},
{
glyphname = Ocircumflex;
layers = (
{
layerId = "39185045-6A8C-415A-8312-7B8F11386A4C";
name = Regular;
paths = (
{
closed = 1;
nodes = (
"254 789 LINE",
"386 871 LINE",
"515 789 LINE",
"557 813 LINE",
"432 938 LINE",
"339 938 LINE",
"216 812 LINE"
);
},
{
closed = 1;
nodes = (
"44 367 CURVE SMOOTH",
"40 146 OFFCURVE",
"172 -18 OFFCURVE",
"378 -14 CURVE SMOOTH",
"564 -10 OFFCURVE",
"712 136 OFFCURVE",
"718 385 CURVE SMOOTH",
"722 606 OFFCURVE",
"596 771 OFFCURVE",
"393 765 CURVE SMOOTH",
"204 760 OFFCURVE",
"49 616 OFFCURVE"
);
},
{
closed = 1;
nodes = (
"386 38 CURVE SMOOTH",
"236 38 OFFCURVE",
"149 198 OFFCURVE",
"149 368 CURVE SMOOTH",
"149 585 OFFCURVE",
"241 713 OFFCURVE",
"384 713 CURVE SMOOTH",
"533 713 OFFCURVE",
"612 554 OFFCURVE",
"612 384 CURVE SMOOTH",
"612 167 OFFCURVE",
"529 38 OFFCURVE"
);
}
);
width = 759;
}
);
unicode = 00D4;
userData = {
com.typemytype.robofont.layerData = {
};
};
},
{
glyphname = Odieresis;
layers = (
{
layerId = "39185045-6A8C-415A-8312-7B8F11386A4C";
name = Regular;
paths = (
{
closed = 1;
nodes = (
"493 806 CURVE SMOOTH",
"529 806 OFFCURVE",
"566 834 OFFCURVE",
"566 877 CURVE SMOOTH",
"566 910 OFFCURVE",
"547 938 OFFCURVE",
"504 938 CURVE SMOOTH",
"469 938 OFFCURVE",
"431 907 OFFCURVE",
"431 866 CURVE SMOOTH",
"431 829 OFFCURVE",
"461 806 OFFCURVE"
);
},
{
closed = 1;
nodes = (
"265 806 CURVE SMOOTH",
"302 806 OFFCURVE",
"338 834 OFFCURVE",
"338 877 CURVE SMOOTH",
"338 910 OFFCURVE",
"319 938 OFFCURVE",
"276 938 CURVE SMOOTH",
"242 938 OFFCURVE",
"204 907 OFFCURVE",
"204 866 CURVE SMOOTH",
"204 829 OFFCURVE",
"233 806 OFFCURVE"
);
},
{
closed = 1;
nodes = (
"44 367 CURVE SMOOTH",
"40 146 OFFCURVE",
"172 -18 OFFCURVE",
"378 -14 CURVE SMOOTH",
"564 -10 OFFCURVE",
"712 136 OFFCURVE",
"718 385 CURVE SMOOTH",
"722 606 OFFCURVE",
"596 771 OFFCURVE",
"393 765 CURVE SMOOTH",
"204 760 OFFCURVE",
"49 616 OFFCURVE"
);
},
{
closed = 1;
nodes = (
"386 38 CURVE SMOOTH",
"236 38 OFFCURVE",
"149 198 OFFCURVE",
"149 368 CURVE SMOOTH",
"149 585 OFFCURVE",
"241 713 OFFCURVE",
"384 713 CURVE SMOOTH",
"533 713 OFFCURVE",
"612 554 OFFCURVE",
"612 384 CURVE SMOOTH",
"612 167 OFFCURVE",
"529 38 OFFCURVE"
);
}
);
width = 759;
}
);
unicode = 00D6;
userData = {
com.typemytype.robofont.layerData = {
};
};
},
{
glyphname = Ograve;
layers = (
{
layerId = "39185045-6A8C-415A-8312-7B8F11386A4C";
name = Regular;
paths = (
{
closed = 1;
nodes = (
"417 811 LINE",
"268 938 LINE",
"196 865 LINE",
"257 826 OFFCURVE",
"330 795 OFFCURVE",
"391 785 CURVE"
);
},
{
closed = 1;
nodes = (
"44 367 CURVE SMOOTH",
"40 146 OFFCURVE",
"172 -18 OFFCURVE",
"378 -14 CURVE SMOOTH",
"564 -10 OFFCURVE",
"712 136 OFFCURVE",
"718 385 CURVE SMOOTH",
"722 606 OFFCURVE",
"596 771 OFFCURVE",
"393 765 CURVE SMOOTH",
"204 760 OFFCURVE",
"49 616 OFFCURVE"
);
},
{
closed = 1;
nodes = (
"386 38 CURVE SMOOTH",
"236 38 OFFCURVE",
"149 198 OFFCURVE",
"149 368 CURVE SMOOTH",
"149 585 OFFCURVE",
"241 713 OFFCURVE",
"384 713 CURVE SMOOTH",
"533 713 OFFCURVE",
"612 554 OFFCURVE",
"612 384 CURVE SMOOTH",
"612 167 OFFCURVE",
"529 38 OFFCURVE"
);
}
);
width = 759;
}
);
unicode = 00D2;
userData = {
com.typemytype.robofont.layerData = {
};
};
},
{
glyphname = Oslash;
layers = (
{
layerId = "39185045-6A8C-415A-8312-7B8F11386A4C";
name = Regular;
paths = (
{
closed = 1;
nodes = (
"216 -81 LINE",
"259 -97 LINE",
"291 -5 LINE",
"318 -11 OFFCURVE",
"347 -14 OFFCURVE",
"378 -14 CURVE SMOOTH",
"564 -10 OFFCURVE",
"712 136 OFFCURVE",
"718 385 CURVE SMOOTH",
"720 542 OFFCURVE",
"657 672 OFFCURVE",
"546 731 CURVE",
"573 810 LINE",
"533 827 LINE",
"505 749 LINE",
"471 760 OFFCURVE",
"434 767 OFFCURVE",
"393 765 CURVE SMOOTH",
"204 760 OFFCURVE",
"49 616 OFFCURVE",
"44 367 CURVE SMOOTH",
"40 198 OFFCURVE",
"118 62 OFFCURVE",
"247 9 CURVE"
);
},
{
closed = 1;
nodes = (
"271 74 LINE",
"192 131 OFFCURVE",
"149 247 OFFCURVE",
"149 368 CURVE SMOOTH",
"149 585 OFFCURVE",
"241 713 OFFCURVE",
"384 713 CURVE SMOOTH",
"421 713 OFFCURVE",
"453 703 OFFCURVE",
"482 686 CURVE"
);
},
{
closed = 1;
nodes = (
"519 657 LINE",
"580 596 OFFCURVE",
"612 492 OFFCURVE",
"612 384 CURVE SMOOTH",
"612 167 OFFCURVE",
"529 38 OFFCURVE",
"386 38 CURVE SMOOTH",
"359 38 OFFCURVE",
"335 42 OFFCURVE",
"312 52 CURVE"
);
}
);
width = 759;
}
);
unicode = 00D8;
userData = {
com.typemytype.robofont.layerData = {
};
};
},
{
glyphname = Otilde;
layers = (
{
layerId = "39185045-6A8C-415A-8312-7B8F11386A4C";
name = Regular;
paths = (
{
closed = 1;
nodes = (
"217 819 LINE",
"236 838 OFFCURVE",
"273 860 OFFCURVE",
"307 860 CURVE SMOOTH",
"355 860 OFFCURVE",
"370 796 OFFCURVE",
"434 796 CURVE SMOOTH",
"486 796 OFFCURVE",
"545 834 OFFCURVE",
"569 880 CURVE",
"544 916 LINE",
"523 895 OFFCURVE",
"491 876 OFFCURVE",
"454 876 CURVE SMOOTH",
"406 876 OFFCURVE",
"390 938 OFFCURVE",
"327 938 CURVE SMOOTH",
"275 938 OFFCURVE",
"216 900 OFFCURVE",
"191 854 CURVE"
);
},
{
closed = 1;
nodes = (
"44 367 CURVE SMOOTH",
"40 146 OFFCURVE",
"172 -18 OFFCURVE",
"378 -14 CURVE SMOOTH",
"564 -10 OFFCURVE",
"712 136 OFFCURVE",
"718 385 CURVE SMOOTH",
"722 606 OFFCURVE",
"596 771 OFFCURVE",
"393 765 CURVE SMOOTH",
"204 760 OFFCURVE",
"49 616 OFFCURVE"
);
},
{
closed = 1;
nodes = (
"386 38 CURVE SMOOTH",
"236 38 OFFCURVE",
"149 198 OFFCURVE",
"149 368 CURVE SMOOTH",
"149 585 OFFCURVE",
"241 713 OFFCURVE",
"384 713 CURVE SMOOTH",
"533 713 OFFCURVE",
"612 554 OFFCURVE",
"612 384 CURVE SMOOTH",
"612 167 OFFCURVE",
"529 38 OFFCURVE"
);
}
);
width = 759;
}
);
unicode = 00D5;
userData = {
com.typemytype.robofont.layerData = {
};
};
},
{
glyphname = OE;
layers = (
{
layerId = "39185045-6A8C-415A-8312-7B8F11386A4C";
name = Regular;
paths = (
{
closed = 1;
nodes = (
"44 367 CURVE SMOOTH",
"40 146 OFFCURVE",
"172 -18 OFFCURVE",
"378 -14 CURVE SMOOTH",
"409 -12 OFFCURVE",
"438 -8 OFFCURVE",
"467 0 CURVE",
"959 0 LINE",
"981 151 LINE",
"934 163 LINE",
"885 62 LINE",
"611 53 LINE",
"611 371 LINE",
"791 368 LINE",
"806 293 LINE",
"855 293 LINE",
"855 503 LINE",
"806 503 LINE",
"791 427 LINE",
"611 423 LINE",
"611 707 LINE",
"869 701 LINE",
"892 619 LINE",
"945 619 LINE",
"931 758 LINE",
"469 758 LINE",
"444 763 OFFCURVE",
"419 766 OFFCURVE",
"393 765 CURVE SMOOTH",
"204 760 OFFCURVE",
"49 616 OFFCURVE"
);
},
{
closed = 1;
nodes = (
"386 38 CURVE SMOOTH",
"236 38 OFFCURVE",
"149 198 OFFCURVE",
"149 368 CURVE SMOOTH",
"149 585 OFFCURVE",
"241 713 OFFCURVE",
"384 713 CURVE SMOOTH",
"438 713 OFFCURVE",
"481 693 OFFCURVE",
"517 659 CURVE",
"517 86 LINE",
"481 55 OFFCURVE",
"438 38 OFFCURVE"
);
}
);
width = 1010;
}
);
unicode = 0152;
userData = {
com.typemytype.robofont.layerData = {
};
};
},
{
glyphname = P;
layers = (
{
layerId = "39185045-6A8C-415A-8312-7B8F11386A4C";
name = Regular;
paths = (
{
closed = 1;
nodes = (
"42 0 LINE",
"360 0 LINE",
"360 42 LINE",
"229 56 LINE",
"229 288 LINE",
"250 292 OFFCURVE",
"279 292 OFFCURVE",
"328 291 CURVE SMOOTH",
"471 287 OFFCURVE",
"611 380 OFFCURVE",
"611 539 CURVE SMOOTH",
"611 714 OFFCURVE",
"506 765 OFFCURVE",
"356 765 CURVE SMOOTH",
"292 765 OFFCURVE",
"213 758 OFFCURVE",
"182 758 CURVE SMOOTH",
"54 758 LINE",
"54 705 LINE",
"134 697 LINE",
"134 56 LINE",
"42 42 LINE"
);
},
{
closed = 1;
nodes = (
"229 701 LINE",
"259 708 OFFCURVE",
"287 709 OFFCURVE",
"319 711 CURVE SMOOTH",
"444 715 OFFCURVE",
"514 657 OFFCURVE",
"514 537 CURVE SMOOTH",
"514 372 OFFCURVE",
"421 340 OFFCURVE",
"327 340 CURVE SMOOTH",
"297 340 OFFCURVE",
"267 340 OFFCURVE",
"229 346 CURVE"
);
}
);
width = 633;
}
);
unicode = 0050;
userData = {
com.typemytype.robofont.layerData = {
};
};
},
{
glyphname = Thorn;
layers = (
{
layerId = "39185045-6A8C-415A-8312-7B8F11386A4C";
name = Regular;
paths = (
{
closed = 1;
nodes = (
"42 0 LINE",
"360 0 LINE",
"360 42 LINE",
"229 56 LINE",
"229 161 LINE",
"250 160 OFFCURVE",
"279 160 OFFCURVE",
"328 159 CURVE SMOOTH",
"471 155 OFFCURVE",
"611 243 OFFCURVE",
"611 402 CURVE SMOOTH",
"611 543 OFFCURVE",
"506 612 OFFCURVE",
"356 612 CURVE SMOOTH",
"313 612 OFFCURVE",
"267 605 OFFCURVE",
"229 601 CURVE",
"229 702 LINE",
"314 710 LINE",
"314 758 LINE",
"49 758 LINE",
"49 710 LINE",
"134 702 LINE",
"134 56 LINE",
"42 42 LINE"
);
},
{
closed = 1;
nodes = (
"229 544 LINE",
"259 551 OFFCURVE",
"287 557 OFFCURVE",
"319 558 CURVE SMOOTH",
"444 563 OFFCURVE",
"514 500 OFFCURVE",
"514 400 CURVE SMOOTH",
"514 245 OFFCURVE",
"420 208 OFFCURVE",
"327 208 CURVE SMOOTH",
"297 208 OFFCURVE",
"267 208 OFFCURVE",
"229 214 CURVE"
);
}
);
width = 633;
}
);
unicode = 00DE;
userData = {
com.typemytype.robofont.layerData = {
};
};
},
{
glyphname = Q;
lastChange = "2014-08-27 15:18:23 +0100";
layers = (
{
background = {
paths = (
{
closed = 1;
nodes = (
"233 723 CURVE SMOOTH",
"124 664 OFFCURVE",
"44 536 OFFCURVE",
"44 357 CURVE SMOOTH",
"44 144 OFFCURVE",
"172 -14 OFFCURVE",
"371 -14 CURVE SMOOTH",
"560 -14 OFFCURVE",
"712 133 OFFCURVE",
"718 385 CURVE SMOOTH",
"722 602 OFFCURVE",
"600 765 OFFCURVE",
"404 765 CURVE SMOOTH",
"354 765 OFFCURVE",
"294 756 OFFCURVE"
);
},
{
closed = 1;
nodes = (
"386 38 CURVE SMOOTH",
"236 38 OFFCURVE",
"149 198 OFFCURVE",
"149 368 CURVE SMOOTH",
"149 585 OFFCURVE",
"241 713 OFFCURVE",
"384 713 CURVE SMOOTH",
"533 713 OFFCURVE",
"612 554 OFFCURVE",
"612 384 CURVE SMOOTH",
"612 167 OFFCURVE",
"529 38 OFFCURVE"
);
}
);
};
layerId = "39185045-6A8C-415A-8312-7B8F11386A4C";
name = Regular;
paths = (
{
closed = 1;
nodes = (
"354 765 OFFCURVE",
"294 756 OFFCURVE",
"233 723 CURVE SMOOTH",
"124 664 OFFCURVE",
"44 536 OFFCURVE",
"44 357 CURVE",
"40 149 OFFCURVE",
"172 -18 OFFCURVE",
"378 -14 CURVE SMOOTH",
"381 -14 OFFCURVE",
"385 -13 OFFCURVE",
"389 -13 CURVE",
"422 -142 OFFCURVE",
"510 -174 OFFCURVE",
"604 -174 CURVE SMOOTH",
"659 -174 OFFCURVE",
"700 -156 OFFCURVE",
"713 -137 CURVE",
"704 -77 LINE",
"687 -88 OFFCURVE",
"660 -93 OFFCURVE",
"636 -93 CURVE SMOOTH",
"570 -93 OFFCURVE",
"475 -83 OFFCURVE",
"443 -6 CURVE",
"597 27 OFFCURVE",
"714 166 OFFCURVE",
"718 385 CURVE SMOOTH",
"722 602 OFFCURVE",
"600 765 OFFCURVE",
"404 765 CURVE"
);
},
{
closed = 1;
nodes = (
"533 713 OFFCURVE",
"612 554 OFFCURVE",
"612 384 CURVE SMOOTH",
"612 167 OFFCURVE",
"529 38 OFFCURVE",
"386 38 CURVE SMOOTH",
"236 38 OFFCURVE",
"149 198 OFFCURVE",
"149 368 CURVE",
"149 585 OFFCURVE",
"241 713 OFFCURVE",
"384 713 CURVE"
);
}
);
width = 759;
}
);
unicode = 0051;
userData = {
com.typemytype.robofont.layerData = {
};
};
},
{
glyphname = R;
layers = (
{
layerId = "39185045-6A8C-415A-8312-7B8F11386A4C";
name = Regular;
paths = (
{
closed = 1;
nodes = (
"42 0 LINE",
"331 0 LINE",
"331 42 LINE",
"229 56 LINE",
"229 328 LINE",
"259 328 OFFCURVE",
"285 328 OFFCURVE",
"308 329 CURVE SMOOTH",
"421 340 OFFCURVE",
"509 0 OFFCURVE",
"559 0 CURVE SMOOTH",
"700 0 LINE",
"700 42 LINE",
"647 56 LINE SMOOTH",
"597 70 OFFCURVE",
"524 298 OFFCURVE",
"432 344 CURVE",
"422 348 LINE",
"519 381 OFFCURVE",
"585 461 OFFCURVE",
"585 563 CURVE SMOOTH",
"585 721 OFFCURVE",
"479 765 OFFCURVE",
"329 765 CURVE SMOOTH",
"264 765 OFFCURVE",
"213 758 OFFCURVE",
"182 758 CURVE SMOOTH",
"54 758 LINE",
"54 705 LINE",
"134 697 LINE",
"134 56 LINE",
"42 42 LINE"
);
},
{
closed = 1;
nodes = (
"229 705 LINE",
"254 712 OFFCURVE",
"284 711 OFFCURVE",
"316 713 CURVE SMOOTH",
"446 718 OFFCURVE",
"486 651 OFFCURVE",
"486 552 CURVE SMOOTH",
"486 431 OFFCURVE",
"420 380 OFFCURVE",
"316 380 CURVE SMOOTH",
"295 380 OFFCURVE",
"245 381 OFFCURVE",
"229 383 CURVE"
);
}
);
width = 693;
}
);
unicode = 0052;
userData = {
com.typemytype.robofont.layerData = {
};
};
},
{
glyphname = Racute;
layers = (
{
layerId = "39185045-6A8C-415A-8312-7B8F11386A4C";
name = Regular;
paths = (
{
closed = 1;
nodes = (
"336 785 LINE",
"396 795 OFFCURVE",
"470 826 OFFCURVE",
"531 865 CURVE",
"459 938 LINE",
"310 811 LINE"
);
},
{
closed = 1;
nodes = (
"42 0 LINE",
"331 0 LINE",
"331 42 LINE",
"229 56 LINE",
"229 328 LINE",
"259 328 OFFCURVE",
"285 328 OFFCURVE",
"308 329 CURVE SMOOTH",
"421 340 OFFCURVE",
"509 0 OFFCURVE",
"559 0 CURVE SMOOTH",
"700 0 LINE",
"700 42 LINE",
"647 56 LINE SMOOTH",
"597 70 OFFCURVE",
"524 298 OFFCURVE",
"432 344 CURVE",
"422 348 LINE",
"519 381 OFFCURVE",
"585 461 OFFCURVE",
"585 563 CURVE SMOOTH",
"585 721 OFFCURVE",
"479 765 OFFCURVE",
"329 765 CURVE SMOOTH",
"264 765 OFFCURVE",
"213 758 OFFCURVE",
"182 758 CURVE SMOOTH",
"54 758 LINE",
"54 705 LINE",
"134 697 LINE",
"134 56 LINE",
"42 42 LINE"
);
},
{
closed = 1;
nodes = (
"229 705 LINE",
"254 712 OFFCURVE",
"284 711 OFFCURVE",
"316 713 CURVE SMOOTH",
"446 718 OFFCURVE",
"486 651 OFFCURVE",
"486 552 CURVE SMOOTH",
"486 431 OFFCURVE",
"420 380 OFFCURVE",
"316 380 CURVE SMOOTH",
"295 380 OFFCURVE",
"245 381 OFFCURVE",
"229 383 CURVE"
);
}
);
width = 693;
}
);
unicode = 0154;
userData = {
com.typemytype.robofont.layerData = {
};
};
},
{
glyphname = Rcaron;
layers = (
{
layerId = "39185045-6A8C-415A-8312-7B8F11386A4C";
name = Regular;
paths = (
{
closed = 1;
nodes = (
"42 0 LINE",
"331 0 LINE",
"331 42 LINE",
"229 56 LINE",
"229 328 LINE",
"260 328 OFFCURVE",
"285 328 OFFCURVE",
"308 329 CURVE",
"421 340 OFFCURVE",
"509 0 OFFCURVE",
"559 0 CURVE SMOOTH",
"700 0 LINE",
"700 42 LINE",
"647 56 LINE SMOOTH",
"597 70 OFFCURVE",
"524 298 OFFCURVE",
"432 344 CURVE",
"422 348 LINE",
"519 381 OFFCURVE",
"585 461 OFFCURVE",
"585 563 CURVE SMOOTH",
"585 721 OFFCURVE",
"479 765 OFFCURVE",
"329 765 CURVE SMOOTH",
"264 765 OFFCURVE",
"213 758 OFFCURVE",
"182 758 CURVE SMOOTH",
"54 758 LINE",
"54 705 LINE",
"134 697 LINE",
"134 56 LINE",
"42 42 LINE"
);
},
{
closed = 1;
nodes = (
"229 705 LINE",
"254 712 OFFCURVE",
"284 711 OFFCURVE",
"316 713 CURVE SMOOTH",
"446 718 OFFCURVE",
"486 651 OFFCURVE",
"486 552 CURVE SMOOTH",
"486 431 OFFCURVE",
"420 380 OFFCURVE",
"316 380 CURVE SMOOTH",
"295 380 OFFCURVE",
"245 381 OFFCURVE",
"229 383 CURVE"
);
},
{
closed = 1;
nodes = (
"296 789 LINE",
"388 789 LINE",
"502 915 LINE",
"464 938 LINE",
"342 855 LINE",
"223 938 LINE",
"180 914 LINE"
);
}
);
width = 693;
}
);
unicode = 0158;
userData = {
com.typemytype.robofont.layerData = {
};
};
},
{
glyphname = Rcommaaccent;
layers = (
{
layerId = "39185045-6A8C-415A-8312-7B8F11386A4C";
name = Regular;
paths = (
{
closed = 1;
nodes = (
"42 0 LINE",
"331 0 LINE",
"331 42 LINE",
"229 56 LINE",
"229 328 LINE",
"259 328 OFFCURVE",
"285 328 OFFCURVE",
"308 329 CURVE SMOOTH",
"421 340 OFFCURVE",
"509 0 OFFCURVE",
"559 0 CURVE SMOOTH",
"700 0 LINE",
"700 42 LINE",
"647 56 LINE SMOOTH",
"597 70 OFFCURVE",
"524 298 OFFCURVE",
"432 344 CURVE",
"422 348 LINE",
"519 381 OFFCURVE",
"585 461 OFFCURVE",
"585 563 CURVE SMOOTH",
"585 721 OFFCURVE",
"479 765 OFFCURVE",
"329 765 CURVE SMOOTH",
"264 765 OFFCURVE",
"213 758 OFFCURVE",
"182 758 CURVE SMOOTH",
"54 758 LINE",
"54 705 LINE",
"134 697 LINE",
"134 56 LINE",
"42 42 LINE"
);
},
{
closed = 1;
nodes = (
"229 705 LINE",
"254 712 OFFCURVE",
"284 711 OFFCURVE",
"316 713 CURVE SMOOTH",
"446 718 OFFCURVE",
"486 651 OFFCURVE",
"486 552 CURVE SMOOTH",
"486 431 OFFCURVE",
"420 380 OFFCURVE",
"316 380 CURVE SMOOTH",
"295 380 OFFCURVE",
"245 381 OFFCURVE",
"229 383 CURVE"
);
},
{
closed = 1;
nodes = (
"321 -71 LINE",
"321 -97 LINE",
"339 -97 OFFCURVE",
"371 -126 OFFCURVE",
"371 -164 CURVE SMOOTH",
"371 -207 OFFCURVE",
"359 -258 OFFCURVE",
"322 -275 CURVE",
"322 -288 LINE",
"349 -313 LINE",
"393 -301 OFFCURVE",
"471 -233 OFFCURVE",
"471 -144 CURVE SMOOTH",
"471 -96 OFFCURVE",
"439 -38 OFFCURVE",
"371 -20 CURVE"
);
}
);
width = 693;
}
);
unicode = 0156;
userData = {
com.typemytype.robofont.layerData = {
};
};
},
{
glyphname = S;
layers = (
{
layerId = "39185045-6A8C-415A-8312-7B8F11386A4C";
name = Regular;
paths = (
{
closed = 1;
nodes = (
"75 30 LINE",
"103 13 OFFCURVE",
"200 -11 OFFCURVE",
"298 -11 CURVE SMOOTH",
"432 -11 OFFCURVE",
"550 48 OFFCURVE",
"550 194 CURVE SMOOTH",
"550 308 OFFCURVE",
"436 369 OFFCURVE",
"332 425 CURVE SMOOTH",
"246 470 OFFCURVE",
"168 519 OFFCURVE",
"168 593 CURVE SMOOTH",
"168 688 OFFCURVE",
"255 717 OFFCURVE",
"308 717 CURVE SMOOTH",
"355 717 OFFCURVE",
"401 707 OFFCURVE",
"424 686 CURVE",
"462 592 LINE",
"504 592 LINE",
"504 728 LINE",
"476 744 OFFCURVE",
"410 765 OFFCURVE",
"315 765 CURVE SMOOTH",
"217 765 OFFCURVE",
"80 713 OFFCURVE",
"80 577 CURVE SMOOTH",
"80 467 OFFCURVE",
"182 406 OFFCURVE",
"281 352 CURVE SMOOTH",
"373 300 OFFCURVE",
"460 250 OFFCURVE",
"460 167 CURVE SMOOTH",
"460 76 OFFCURVE",
"383 38 OFFCURVE",
"311 38 CURVE SMOOTH",
"253 38 OFFCURVE",
"188 49 OFFCURVE",
"149 90 CURVE",
"118 187 LINE",
"75 187 LINE"
);
}
);
width = 600;
}
);
unicode = 0053;
userData = {
com.typemytype.robofont.layerData = {
};
};
},
{
glyphname = Scaron;
layers = (
{
layerId = "39185045-6A8C-415A-8312-7B8F11386A4C";
name = Regular;
paths = (
{
closed = 1;
nodes = (
"268 789 LINE",
"360 789 LINE",
"474 915 LINE",
"436 938 LINE",
"314 855 LINE",
"195 938 LINE",
"152 914 LINE"
);
},
{
closed = 1;
nodes = (
"72 30 LINE",
"100 13 OFFCURVE",
"197 -11 OFFCURVE",
"295 -11 CURVE SMOOTH",
"429 -11 OFFCURVE",
"547 48 OFFCURVE",
"547 194 CURVE SMOOTH",
"547 308 OFFCURVE",
"433 369 OFFCURVE",
"329 425 CURVE SMOOTH",
"243 470 OFFCURVE",
"166 519 OFFCURVE",
"166 593 CURVE SMOOTH",
"166 688 OFFCURVE",
"252 717 OFFCURVE",
"305 717 CURVE SMOOTH",
"353 717 OFFCURVE",
"398 707 OFFCURVE",
"421 686 CURVE",
"459 592 LINE",
"501 592 LINE",
"501 728 LINE",
"473 744 OFFCURVE",
"407 765 OFFCURVE",
"312 765 CURVE SMOOTH",
"214 765 OFFCURVE",
"77 713 OFFCURVE",
"77 577 CURVE SMOOTH",
"77 467 OFFCURVE",
"179 406 OFFCURVE",
"278 352 CURVE SMOOTH",
"370 300 OFFCURVE",
"457 250 OFFCURVE",
"457 167 CURVE SMOOTH",
"457 76 OFFCURVE",
"380 38 OFFCURVE",
"308 38 CURVE SMOOTH",
"250 38 OFFCURVE",
"185 49 OFFCURVE",
"146 90 CURVE",
"115 187 LINE",
"72 187 LINE"
);
}
);
width = 600;
}
);
unicode = 0160;
userData = {
com.typemytype.robofont.layerData = {
};
};
},
{
glyphname = T;
lastChange = "2014-08-26 11:04:43 +0100";
layers = (
{
layerId = "39185045-6A8C-415A-8312-7B8F11386A4C";
name = Regular;
paths = (
{
closed = 1;
nodes = (
"151 0 LINE",
"493 0 LINE",
"493 42 LINE",
"366 56 LINE",
"366 704 LINE",
"542 695 LINE",
"567 604 LINE",
"607 608 LINE",
"608 758 LINE",
"27 758 LINE",
"15 610 LINE",
"59 611 LINE",
"93 694 LINE",
"271 704 LINE",
"271 56 LINE",
"151 42 LINE"
);
}
);
width = 620;
}
);
leftKerningGroup = T;
rightKerningGroup = T;
unicode = 0054;
userData = {
com.typemytype.robofont.layerData = {
};
};
},
{
glyphname = U;
layers = (
{
layerId = "39185045-6A8C-415A-8312-7B8F11386A4C";
name = Regular;
paths = (
{
closed = 1;
nodes = (
"93 323 CURVE SMOOTH",
"93 103 OFFCURVE",
"172 -14 OFFCURVE",
"394 -14 CURVE SMOOTH",
"561 -14 OFFCURVE",
"677 91 OFFCURVE",
"677 335 CURVE SMOOTH",
"677 701 LINE",
"754 710 LINE",
"754 758 LINE",
"515 758 LINE",
"515 710 LINE",
"604 701 LINE",
"604 335 LINE SMOOTH",
"604 150 OFFCURVE",
"546 37 OFFCURVE",
"410 37 CURVE SMOOTH",
"283 37 OFFCURVE",
"189 100 OFFCURVE",
"189 320 CURVE SMOOTH",
"189 701 LINE",
"276 710 LINE",
"276 758 LINE",
"16 758 LINE",
"16 710 LINE",
"94 702 LINE",
"94 575 OFFCURVE",
"93 450 OFFCURVE"
);
}
);
width = 770;
}
);
unicode = 0055;
userData = {
com.typemytype.robofont.layerData = {
};
};
},
{
glyphname = Uacute;
layers = (
{
layerId = "39185045-6A8C-415A-8312-7B8F11386A4C";
name = Regular;
paths = (
{
closed = 1;
nodes = (
"397 785 LINE",
"458 795 OFFCURVE",
"531 826 OFFCURVE",
"592 865 CURVE",
"521 938 LINE",
"371 811 LINE"
);
},
{
closed = 1;
nodes = (
"93 323 CURVE SMOOTH",
"93 103 OFFCURVE",
"172 -14 OFFCURVE",
"394 -14 CURVE SMOOTH",
"561 -14 OFFCURVE",
"677 91 OFFCURVE",
"677 335 CURVE SMOOTH",
"677 701 LINE",
"754 710 LINE",
"754 758 LINE",
"515 758 LINE",
"515 710 LINE",
"604 701 LINE",
"604 335 LINE SMOOTH",
"604 150 OFFCURVE",
"546 37 OFFCURVE",
"410 37 CURVE SMOOTH",
"283 37 OFFCURVE",
"189 100 OFFCURVE",
"189 320 CURVE SMOOTH",
"189 701 LINE",
"276 710 LINE",
"276 758 LINE",
"16 758 LINE",
"16 710 LINE",
"94 702 LINE",
"94 575 OFFCURVE",
"93 450 OFFCURVE"
);
}
);
width = 770;
}
);
unicode = 00DA;
userData = {
com.typemytype.robofont.layerData = {
};
};
},
{
glyphname = Ucircumflex;
layers = (
{
layerId = "39185045-6A8C-415A-8312-7B8F11386A4C";
name = Regular;
paths = (
{
closed = 1;
nodes = (
"270 789 LINE",
"401 871 LINE",
"530 789 LINE",
"573 813 LINE",
"447 938 LINE",
"355 938 LINE",
"231 812 LINE"
);
},
{
closed = 1;
nodes = (
"93 323 CURVE SMOOTH",
"93 103 OFFCURVE",
"172 -14 OFFCURVE",
"394 -14 CURVE SMOOTH",
"561 -14 OFFCURVE",
"677 91 OFFCURVE",
"677 335 CURVE SMOOTH",
"677 701 LINE",
"754 710 LINE",
"754 758 LINE",
"515 758 LINE",
"515 710 LINE",
"604 701 LINE",
"604 335 LINE SMOOTH",
"604 150 OFFCURVE",
"546 37 OFFCURVE",
"410 37 CURVE SMOOTH",
"283 37 OFFCURVE",
"189 100 OFFCURVE",
"189 320 CURVE SMOOTH",
"189 701 LINE",
"276 710 LINE",
"276 758 LINE",
"16 758 LINE",
"16 710 LINE",
"94 702 LINE",
"94 575 OFFCURVE",
"93 450 OFFCURVE"
);
}
);
width = 770;
}
);
unicode = 00DB;
userData = {
com.typemytype.robofont.layerData = {
};
};
},
{
glyphname = Udieresis;
layers = (
{
layerId = "39185045-6A8C-415A-8312-7B8F11386A4C";
name = Regular;
paths = (
{
closed = 1;
nodes = (
"508 806 CURVE SMOOTH",
"545 806 OFFCURVE",
"582 834 OFFCURVE",
"582 877 CURVE SMOOTH",
"582 910 OFFCURVE",
"563 938 OFFCURVE",
"520 938 CURVE SMOOTH",
"485 938 OFFCURVE",
"447 907 OFFCURVE",
"447 866 CURVE SMOOTH",
"447 829 OFFCURVE",
"477 806 OFFCURVE"
);
},
{
closed = 1;
nodes = (
"281 806 CURVE SMOOTH",
"317 806 OFFCURVE",
"354 834 OFFCURVE",
"354 877 CURVE SMOOTH",
"354 910 OFFCURVE",
"335 938 OFFCURVE",
"292 938 CURVE SMOOTH",
"257 938 OFFCURVE",
"219 907 OFFCURVE",
"219 866 CURVE SMOOTH",
"219 829 OFFCURVE",
"249 806 OFFCURVE"
);
},
{
closed = 1;
nodes = (
"93 323 CURVE SMOOTH",
"93 103 OFFCURVE",
"172 -14 OFFCURVE",
"394 -14 CURVE SMOOTH",
"561 -14 OFFCURVE",
"677 91 OFFCURVE",
"677 335 CURVE SMOOTH",
"677 701 LINE",
"754 710 LINE",
"754 758 LINE",
"515 758 LINE",
"515 710 LINE",
"604 701 LINE",
"604 335 LINE SMOOTH",
"604 150 OFFCURVE",
"546 37 OFFCURVE",
"410 37 CURVE SMOOTH",
"283 37 OFFCURVE",
"189 100 OFFCURVE",
"189 320 CURVE SMOOTH",
"189 701 LINE",
"276 710 LINE",
"276 758 LINE",
"16 758 LINE",
"16 710 LINE",
"94 702 LINE",
"94 575 OFFCURVE",
"93 450 OFFCURVE"
);
}
);
width = 770;
}
);
unicode = 00DC;
userData = {
com.typemytype.robofont.layerData = {
};
};
},
{
glyphname = Ugrave;
layers = (
{
layerId = "39185045-6A8C-415A-8312-7B8F11386A4C";
name = Regular;
paths = (
{
closed = 1;
nodes = (
"433 811 LINE",
"283 938 LINE",
"212 865 LINE",
"273 826 OFFCURVE",
"346 795 OFFCURVE",
"407 785 CURVE"
);
},
{
closed = 1;
nodes = (
"93 323 CURVE SMOOTH",
"93 103 OFFCURVE",
"172 -14 OFFCURVE",
"394 -14 CURVE SMOOTH",
"561 -14 OFFCURVE",
"677 91 OFFCURVE",
"677 335 CURVE SMOOTH",
"677 701 LINE",
"754 710 LINE",
"754 758 LINE",
"515 758 LINE",
"515 710 LINE",
"604 701 LINE",
"604 335 LINE SMOOTH",
"604 150 OFFCURVE",
"546 37 OFFCURVE",
"410 37 CURVE SMOOTH",
"283 37 OFFCURVE",
"189 100 OFFCURVE",
"189 320 CURVE SMOOTH",
"189 701 LINE",
"276 710 LINE",
"276 758 LINE",
"16 758 LINE",
"16 710 LINE",
"94 702 LINE",
"94 575 OFFCURVE",
"93 450 OFFCURVE"
);
}
);
width = 770;
}
);
unicode = 00D9;
userData = {
com.typemytype.robofont.layerData = {
};
};
},
{
glyphname = V;
layers = (
{
layerId = "39185045-6A8C-415A-8312-7B8F11386A4C";
name = Regular;
paths = (
{
closed = 1;
nodes = (
"324 -10 LINE",
"397 -10 LINE",
"634 703 LINE",
"693 710 LINE",
"693 758 LINE",
"471 758 LINE",
"471 710 LINE",
"551 702 LINE",
"405 203 LINE",
"376 95 LINE",
"342 202 LINE",
"177 702 LINE",
"265 710 LINE",
"265 758 LINE",
"2 758 LINE",
"2 710 LINE",
"67 703 LINE"
);
}
);
width = 696;
}
);
unicode = 0056;
userData = {
com.typemytype.robofont.layerData = {
};
};
},
{
glyphname = W;
layers = (
{
layerId = "39185045-6A8C-415A-8312-7B8F11386A4C";
name = Regular;
paths = (
{
closed = 1;
nodes = (
"305 -10 LINE",
"385 -10 LINE",
"524 486 LINE",
"664 -10 LINE",
"743 -10 LINE",
"951 702 LINE",
"1023 710 LINE",
"1023 758 LINE",
"787 758 LINE",
"787 710 LINE",
"872 702 LINE",
"744 208 LINE",
"719 96 LINE",
"695 189 LINE",
"563 702 LINE",
"647 710 LINE",
"647 758 LINE",
"381 758 LINE",
"381 710 LINE",
"460 702 LINE",
"488 614 LINE",
"384 193 LINE",
"354 104 LINE",
"344 136 OFFCURVE",
"334 167 OFFCURVE",
"324 199 CURVE SMOOTH",
"171 702 LINE",
"264 710 LINE",
"264 758 LINE",
"2 758 LINE",
"2 710 LINE",
"66 702 LINE"
);
}
);
width = 1026;
}
);
unicode = 0057;
userData = {
com.typemytype.robofont.layerData = {
};
};
},
{
glyphname = X;
layers = (
{
layerId = "39185045-6A8C-415A-8312-7B8F11386A4C";
name = Regular;
paths = (
{
closed = 1;
nodes = (
"7 0 LINE",
"275 0 LINE",
"275 42 LINE",
"182 56 LINE",
"335 333 LINE",
"506 56 LINE",
"415 42 LINE",
"415 0 LINE",
"696 0 LINE",
"696 42 LINE",
"615 56 LINE",
"400 400 LINE",
"604 703 LINE",
"674 710 LINE",
"674 758 LINE",
"441 758 LINE",
"441 710 LINE",
"516 702 LINE",
"365 439 LINE",
"212 702 LINE",
"299 710 LINE",
"299 758 LINE",
"25 758 LINE",
"25 710 LINE",
"98 702 LINE",
"303 381 LINE",
"94 56 LINE",
"7 42 LINE"
);
}
);
width = 693;
}
);
unicode = 0058;
userData = {
com.typemytype.robofont.layerData = {
};
};
},
{
glyphname = Y;
layers = (
{
layerId = "39185045-6A8C-415A-8312-7B8F11386A4C";
name = Regular;
paths = (
{
closed = 1;
nodes = (
"196 0 LINE",
"496 0 LINE",
"496 42 LINE",
"391 57 LINE",
"391 311 LINE",
"590 697 LINE",
"654 710 LINE",
"654 758 LINE",
"429 758 LINE",
"429 710 LINE",
"512 701 LINE",
"372 414 LINE",
"350 363 LINE",
"326 413 LINE",
"171 702 LINE",
"246 710 LINE",
"246 758 LINE",
"6 758 LINE",
"6 710 LINE",
"62 702 LINE",
"296 312 LINE",
"296 57 LINE",
"196 42 LINE"
);
}
);
width = 660;
}
);
unicode = 0059;
userData = {
com.typemytype.robofont.layerData = {
};
};
},
{
glyphname = Yacute;
layers = (
{
layerId = "39185045-6A8C-415A-8312-7B8F11386A4C";
name = Regular;
paths = (
{
closed = 1;
nodes = (
"342 785 LINE",
"403 795 OFFCURVE",
"476 826 OFFCURVE",
"537 865 CURVE",
"466 938 LINE",
"316 811 LINE"
);
},
{
closed = 1;
nodes = (
"196 0 LINE",
"496 0 LINE",
"496 42 LINE",
"391 57 LINE",
"391 311 LINE",
"590 697 LINE",
"654 710 LINE",
"654 758 LINE",
"429 758 LINE",
"429 710 LINE",
"512 701 LINE",
"372 414 LINE",
"350 363 LINE",
"326 413 LINE",
"171 702 LINE",
"246 710 LINE",
"246 758 LINE",
"6 758 LINE",
"6 710 LINE",
"62 702 LINE",
"296 312 LINE",
"296 57 LINE",
"196 42 LINE"
);
}
);
width = 660;
}
);
unicode = 00DD;
userData = {
com.typemytype.robofont.layerData = {
};
};
},
{
glyphname = Ydieresis;
layers = (
{
layerId = "39185045-6A8C-415A-8312-7B8F11386A4C";
name = Regular;
paths = (
{
closed = 1;
nodes = (
"454 806 CURVE SMOOTH",
"490 806 OFFCURVE",
"527 834 OFFCURVE",
"527 877 CURVE SMOOTH",
"527 910 OFFCURVE",
"508 938 OFFCURVE",
"465 938 CURVE SMOOTH",
"430 938 OFFCURVE",
"392 907 OFFCURVE",
"392 866 CURVE SMOOTH",
"392 829 OFFCURVE",
"422 806 OFFCURVE"
);
},
{
closed = 1;
nodes = (
"226 806 CURVE SMOOTH",
"263 806 OFFCURVE",
"299 834 OFFCURVE",
"299 877 CURVE SMOOTH",
"299 910 OFFCURVE",
"280 938 OFFCURVE",
"237 938 CURVE SMOOTH",
"203 938 OFFCURVE",
"165 907 OFFCURVE",
"165 866 CURVE SMOOTH",
"165 829 OFFCURVE",
"194 806 OFFCURVE"
);
},
{
closed = 1;
nodes = (
"196 0 LINE",
"496 0 LINE",
"496 42 LINE",
"391 57 LINE",
"391 311 LINE",
"590 697 LINE",
"654 710 LINE",
"654 758 LINE",
"429 758 LINE",
"429 710 LINE",
"512 701 LINE",
"372 414 LINE",
"350 363 LINE",
"326 413 LINE",
"171 702 LINE",
"246 710 LINE",
"246 758 LINE",
"6 758 LINE",
"6 710 LINE",
"62 702 LINE",
"296 312 LINE",
"296 57 LINE",
"196 42 LINE"
);
}
);
width = 660;
}
);
unicode = 0178;
userData = {
com.typemytype.robofont.layerData = {
};
};
},
{
glyphname = Z;
layers = (
{
layerId = "39185045-6A8C-415A-8312-7B8F11386A4C";
name = Regular;
paths = (
{
closed = 1;
nodes = (
"58 0 LINE",
"600 0 LINE",
"635 186 LINE",
"586 197 LINE",
"523 73 LINE",
"157 54 LINE",
"205 113 LINE",
"626 716 LINE",
"612 758 LINE",
"88 758 LINE",
"73 592 LINE",
"125 583 LINE",
"171 694 LINE",
"519 705 LINE",
"469 646 LINE",
"45 43 LINE"
);
}
);
width = 660;
}
);
unicode = 005A;
userData = {
com.typemytype.robofont.layerData = {
};
};
},
{
glyphname = Zacute;
layers = (
{
layerId = "39185045-6A8C-415A-8312-7B8F11386A4C";
name = Regular;
paths = (
{
closed = 1;
nodes = (
"355 785 LINE",
"416 795 OFFCURVE",
"489 826 OFFCURVE",
"550 865 CURVE",
"479 938 LINE",
"330 811 LINE"
);
},
{
closed = 1;
nodes = (
"58 0 LINE",
"600 0 LINE",
"635 186 LINE",
"586 197 LINE",
"523 73 LINE",
"157 54 LINE",
"205 113 LINE",
"626 716 LINE",
"612 758 LINE",
"88 758 LINE",
"73 592 LINE",
"125 583 LINE",
"171 694 LINE",
"519 705 LINE",
"469 646 LINE",
"45 43 LINE"
);
}
);
width = 660;
}
);
unicode = 0179;
userData = {
com.typemytype.robofont.layerData = {
};
};
},
{
glyphname = Zcaron;
layers = (
{
layerId = "39185045-6A8C-415A-8312-7B8F11386A4C";
name = Regular;
paths = (
{
closed = 1;
nodes = (
"315 789 LINE",
"408 789 LINE",
"521 915 LINE",
"483 938 LINE",
"361 855 LINE",
"242 938 LINE",
"200 914 LINE"
);
},
{
closed = 1;
nodes = (
"58 0 LINE",
"600 0 LINE",
"635 186 LINE",
"586 197 LINE",
"523 73 LINE",
"157 54 LINE",
"205 113 LINE",
"626 716 LINE",
"612 758 LINE",
"88 758 LINE",
"73 592 LINE",
"125 583 LINE",
"171 694 LINE",
"519 705 LINE",
"469 646 LINE",
"45 43 LINE"
);
}
);
width = 660;
}
);
unicode = 017D;
userData = {
com.typemytype.robofont.layerData = {
};
};
},
{
glyphname = Zdotaccent;
layers = (
{
layerId = "39185045-6A8C-415A-8312-7B8F11386A4C";
name = Regular;
paths = (
{
closed = 1;
nodes = (
"353 806 CURVE SMOOTH",
"389 806 OFFCURVE",
"426 834 OFFCURVE",
"426 877 CURVE SMOOTH",
"426 910 OFFCURVE",
"407 938 OFFCURVE",
"364 938 CURVE SMOOTH",
"329 938 OFFCURVE",
"291 907 OFFCURVE",
"291 866 CURVE SMOOTH",
"291 829 OFFCURVE",
"321 806 OFFCURVE"
);
},
{
closed = 1;
nodes = (
"58 0 LINE",
"600 0 LINE",
"635 186 LINE",
"586 197 LINE",
"523 73 LINE",
"157 54 LINE",
"205 113 LINE",
"626 716 LINE",
"612 758 LINE",
"88 758 LINE",
"73 592 LINE",
"125 583 LINE",
"171 694 LINE",
"519 705 LINE",
"469 646 LINE",
"45 43 LINE"
);
}
);
width = 660;
}
);
unicode = 017B;
userData = {
com.typemytype.robofont.layerData = {
};
};
},
{
glyphname = a;
layers = (
{
layerId = "39185045-6A8C-415A-8312-7B8F11386A4C";
name = Regular;
paths = (
{
closed = 1;
nodes = (
"58 157 CURVE SMOOTH",
"47 66 OFFCURVE",
"114 -12 OFFCURVE",
"215 -12 CURVE SMOOTH",
"297 -12 OFFCURVE",
"348 16 OFFCURVE",
"378 53 CURVE",
"378 39 LINE SMOOTH",
"378 -9 OFFCURVE",
"412 -12 OFFCURVE",
"436 -12 CURVE SMOOTH",
"469 -12 OFFCURVE",
"505 -3 OFFCURVE",
"528 9 CURVE",
"528 42 LINE",
"466 42 LINE",
"467 377 LINE SMOOTH",
"467 519 OFFCURVE",
"378 556 OFFCURVE",
"275 556 CURVE SMOOTH",
"226 556 OFFCURVE",
"127 538 OFFCURVE",
"79 498 CURVE",
"97 454 LINE",
"142 476 OFFCURVE",
"201 491 OFFCURVE",
"239 491 CURVE SMOOTH",
"314 491 OFFCURVE",
"373 470 OFFCURVE",
"373 367 CURVE SMOOTH",
"373 325 LINE",
"282 325 OFFCURVE",
"71 293 OFFCURVE"
);
},
{
closed = 1;
nodes = (
"152 155 CURVE SMOOTH",
"152 250 OFFCURVE",
"290 274 OFFCURVE",
"373 274 CURVE",
"372 213 OFFCURVE",
"372 153 OFFCURVE",
"372 92 CURVE",
"352 72 OFFCURVE",
"306 50 OFFCURVE",
"268 50 CURVE SMOOTH",
"195 50 OFFCURVE",
"152 79 OFFCURVE"
);
}
);
width = 559;
}
);
unicode = 0061;
userData = {
com.typemytype.robofont.layerData = {
};
};
},
{
glyphname = aacute;
layers = (
{
layerId = "39185045-6A8C-415A-8312-7B8F11386A4C";
name = Regular;
paths = (
{
closed = 1;
nodes = (
"242 654 LINE",
"295 679 OFFCURVE",
"392 736 OFFCURVE",
"431 796 CURVE",
"360 869 LINE",
"216 681 LINE"
);
},
{
closed = 1;
nodes = (
"58 157 CURVE SMOOTH",
"47 66 OFFCURVE",
"114 -12 OFFCURVE",
"215 -12 CURVE SMOOTH",
"297 -12 OFFCURVE",
"348 16 OFFCURVE",
"378 53 CURVE",
"378 39 LINE SMOOTH",
"378 -9 OFFCURVE",
"412 -12 OFFCURVE",
"436 -12 CURVE SMOOTH",
"469 -12 OFFCURVE",
"505 -3 OFFCURVE",
"528 9 CURVE",
"528 42 LINE",
"466 42 LINE",
"467 377 LINE SMOOTH",
"467 519 OFFCURVE",
"378 556 OFFCURVE",
"275 556 CURVE SMOOTH",
"226 556 OFFCURVE",
"127 538 OFFCURVE",
"79 498 CURVE",
"97 454 LINE",
"142 476 OFFCURVE",
"201 491 OFFCURVE",
"239 491 CURVE SMOOTH",
"314 491 OFFCURVE",
"373 470 OFFCURVE",
"373 367 CURVE SMOOTH",
"373 325 LINE",
"282 325 OFFCURVE",
"71 293 OFFCURVE"
);
},
{
closed = 1;
nodes = (
"152 155 CURVE SMOOTH",
"152 250 OFFCURVE",
"290 274 OFFCURVE",
"373 274 CURVE",
"372 213 OFFCURVE",
"372 153 OFFCURVE",
"372 92 CURVE",
"352 72 OFFCURVE",
"306 50 OFFCURVE",
"268 50 CURVE SMOOTH",
"195 50 OFFCURVE",
"152 79 OFFCURVE"
);
}
);
width = 559;
}
);
unicode = 00E1;
userData = {
com.typemytype.robofont.layerData = {
};
};
},
{
glyphname = acircumflex;
layers = (
{
layerId = "39185045-6A8C-415A-8312-7B8F11386A4C";
name = Regular;
paths = (
{
closed = 1;
nodes = (
"145 652 LINE",
"287 783 LINE",
"420 652 LINE",
"461 675 LINE",
"333 867 LINE",
"241 867 LINE",
"108 674 LINE"
);
},
{
closed = 1;
nodes = (
"58 157 CURVE SMOOTH",
"47 66 OFFCURVE",
"114 -12 OFFCURVE",
"215 -12 CURVE SMOOTH",
"297 -12 OFFCURVE",
"348 16 OFFCURVE",
"378 53 CURVE",
"378 39 LINE SMOOTH",
"378 -9 OFFCURVE",
"412 -12 OFFCURVE",
"436 -12 CURVE SMOOTH",
"469 -12 OFFCURVE",
"505 -3 OFFCURVE",
"528 9 CURVE",
"528 42 LINE",
"466 42 LINE",
"467 377 LINE SMOOTH",
"467 519 OFFCURVE",
"378 556 OFFCURVE",
"275 556 CURVE SMOOTH",
"226 556 OFFCURVE",
"127 538 OFFCURVE",
"79 498 CURVE",
"97 454 LINE",
"142 476 OFFCURVE",
"201 491 OFFCURVE",
"239 491 CURVE SMOOTH",
"314 491 OFFCURVE",
"373 470 OFFCURVE",
"373 367 CURVE SMOOTH",
"373 325 LINE",
"282 325 OFFCURVE",
"71 293 OFFCURVE"
);
},
{
closed = 1;
nodes = (
"152 155 CURVE SMOOTH",
"152 250 OFFCURVE",
"290 274 OFFCURVE",
"373 274 CURVE",
"372 213 OFFCURVE",
"372 153 OFFCURVE",
"372 92 CURVE",
"352 72 OFFCURVE",
"306 50 OFFCURVE",
"268 50 CURVE SMOOTH",
"195 50 OFFCURVE",
"152 79 OFFCURVE"
);
}
);
width = 559;
}
);
unicode = 00E2;
userData = {
com.typemytype.robofont.layerData = {
};
};
},
{
glyphname = adieresis;
layers = (
{
layerId = "39185045-6A8C-415A-8312-7B8F11386A4C";
name = Regular;
paths = (
{
closed = 1;
nodes = (
"395 675 CURVE SMOOTH",
"431 675 OFFCURVE",
"468 701 OFFCURVE",
"468 744 CURVE SMOOTH",
"468 777 OFFCURVE",
"449 804 OFFCURVE",
"406 804 CURVE SMOOTH",
"371 804 OFFCURVE",
"334 774 OFFCURVE",
"334 733 CURVE SMOOTH",
"334 696 OFFCURVE",
"363 675 OFFCURVE"
);
},
{
closed = 1;
nodes = (
"167 675 CURVE SMOOTH",
"204 675 OFFCURVE",
"240 701 OFFCURVE",
"240 744 CURVE SMOOTH",
"240 777 OFFCURVE",
"221 804 OFFCURVE",
"178 804 CURVE SMOOTH",
"144 804 OFFCURVE",
"106 774 OFFCURVE",
"106 733 CURVE SMOOTH",
"106 696 OFFCURVE",
"135 675 OFFCURVE"
);
},
{
closed = 1;
nodes = (
"58 157 CURVE SMOOTH",
"47 66 OFFCURVE",
"114 -12 OFFCURVE",
"215 -12 CURVE SMOOTH",
"297 -12 OFFCURVE",
"348 16 OFFCURVE",
"378 53 CURVE",
"378 39 LINE SMOOTH",
"378 -9 OFFCURVE",
"412 -12 OFFCURVE",
"436 -12 CURVE SMOOTH",
"469 -12 OFFCURVE",
"505 -3 OFFCURVE",
"528 9 CURVE",
"528 42 LINE",
"466 42 LINE",
"467 377 LINE SMOOTH",
"467 519 OFFCURVE",
"378 556 OFFCURVE",
"275 556 CURVE SMOOTH",
"226 556 OFFCURVE",
"127 538 OFFCURVE",
"79 498 CURVE",
"97 454 LINE",
"142 476 OFFCURVE",
"201 491 OFFCURVE",
"239 491 CURVE SMOOTH",
"314 491 OFFCURVE",
"373 470 OFFCURVE",
"373 367 CURVE SMOOTH",
"373 325 LINE",
"282 325 OFFCURVE",
"71 293 OFFCURVE"
);
},
{
closed = 1;
nodes = (
"152 155 CURVE SMOOTH",
"152 250 OFFCURVE",
"290 274 OFFCURVE",
"373 274 CURVE",
"372 213 OFFCURVE",
"372 153 OFFCURVE",
"372 92 CURVE",
"352 72 OFFCURVE",
"306 50 OFFCURVE",
"268 50 CURVE SMOOTH",
"195 50 OFFCURVE",
"152 79 OFFCURVE"
);
}
);
width = 559;
}
);
unicode = 00E4;
userData = {
com.typemytype.robofont.layerData = {
};
};
},
{
glyphname = agrave;
layers = (
{
layerId = "39185045-6A8C-415A-8312-7B8F11386A4C";
name = Regular;
paths = (
{
closed = 1;
nodes = (
"374 681 LINE",
"230 869 LINE",
"159 796 LINE",
"198 736 OFFCURVE",
"294 679 OFFCURVE",
"348 654 CURVE"
);
},
{
closed = 1;
nodes = (
"58 157 CURVE SMOOTH",
"47 66 OFFCURVE",
"114 -12 OFFCURVE",
"215 -12 CURVE SMOOTH",
"297 -12 OFFCURVE",
"348 16 OFFCURVE",
"378 53 CURVE",
"378 39 LINE SMOOTH",
"378 -9 OFFCURVE",
"412 -12 OFFCURVE",
"436 -12 CURVE SMOOTH",
"469 -12 OFFCURVE",
"505 -3 OFFCURVE",
"528 9 CURVE",
"528 42 LINE",
"466 42 LINE",
"467 377 LINE SMOOTH",
"467 519 OFFCURVE",
"378 556 OFFCURVE",
"275 556 CURVE SMOOTH",
"226 556 OFFCURVE",
"127 538 OFFCURVE",
"79 498 CURVE",
"97 454 LINE",
"142 476 OFFCURVE",
"201 491 OFFCURVE",
"239 491 CURVE SMOOTH",
"314 491 OFFCURVE",
"373 470 OFFCURVE",
"373 367 CURVE SMOOTH",
"373 325 LINE",
"282 325 OFFCURVE",
"71 293 OFFCURVE"
);
},
{
closed = 1;
nodes = (
"152 155 CURVE SMOOTH",
"152 250 OFFCURVE",
"290 274 OFFCURVE",
"373 274 CURVE",
"372 213 OFFCURVE",
"372 153 OFFCURVE",
"372 92 CURVE",
"352 72 OFFCURVE",
"306 50 OFFCURVE",
"268 50 CURVE SMOOTH",
"195 50 OFFCURVE",
"152 79 OFFCURVE"
);
}
);
width = 559;
}
);
unicode = 00E0;
userData = {
com.typemytype.robofont.layerData = {
};
};
},
{
glyphname = aogonek;
layers = (
{
layerId = "39185045-6A8C-415A-8312-7B8F11386A4C";
name = Regular;
paths = (
{
closed = 1;
nodes = (
"58 157 CURVE SMOOTH",
"47 66 OFFCURVE",
"114 -12 OFFCURVE",
"215 -12 CURVE SMOOTH",
"297 -12 OFFCURVE",
"348 16 OFFCURVE",
"378 53 CURVE",
"378 39 LINE SMOOTH",
"378 -5 OFFCURVE",
"407 -12 OFFCURVE",
"430 -12 CURVE",
"373 -38 OFFCURVE",
"313 -103 OFFCURVE",
"313 -158 CURVE SMOOTH",
"313 -275 OFFCURVE",
"469 -269 OFFCURVE",
"536 -218 CURVE",
"536 -175 LINE",
"481 -197 OFFCURVE",
"401 -206 OFFCURVE",
"401 -130 CURVE SMOOTH",
"401 -86 OFFCURVE",
"463 -27 OFFCURVE",
"536 9 CURVE",
"523 7 LINE",
"525 7 OFFCURVE",
"526 8 OFFCURVE",
"528 9 CURVE",
"528 42 LINE",
"466 42 LINE",
"467 377 LINE SMOOTH",
"467 519 OFFCURVE",
"378 556 OFFCURVE",
"275 556 CURVE SMOOTH",
"226 556 OFFCURVE",
"127 538 OFFCURVE",
"79 498 CURVE",
"97 454 LINE",
"142 476 OFFCURVE",
"201 491 OFFCURVE",
"239 491 CURVE SMOOTH",
"314 491 OFFCURVE",
"373 470 OFFCURVE",
"373 367 CURVE SMOOTH",
"373 325 LINE",
"282 325 OFFCURVE",
"71 293 OFFCURVE"
);
},
{
closed = 1;
nodes = (
"152 155 CURVE SMOOTH",
"152 250 OFFCURVE",
"290 274 OFFCURVE",
"373 274 CURVE",
"372 213 OFFCURVE",
"372 153 OFFCURVE",
"372 92 CURVE",
"352 72 OFFCURVE",
"306 50 OFFCURVE",
"268 50 CURVE SMOOTH",
"195 50 OFFCURVE",
"152 79 OFFCURVE"
);
}
);
width = 559;
}
);
unicode = 0105;
userData = {
com.typemytype.robofont.layerData = {
};
};
},
{
glyphname = aring;
layers = (
{
layerId = "39185045-6A8C-415A-8312-7B8F11386A4C";
name = Regular;
paths = (
{
closed = 1;
nodes = (
"271 645 CURVE SMOOTH",
"339 645 OFFCURVE",
"395 697 OFFCURVE",
"395 762 CURVE SMOOTH",
"395 827 OFFCURVE",
"339 880 OFFCURVE",
"271 880 CURVE SMOOTH",
"204 880 OFFCURVE",
"148 827 OFFCURVE",
"148 762 CURVE SMOOTH",
"148 697 OFFCURVE",
"204 645 OFFCURVE"
);
},
{
closed = 1;
nodes = (
"271 696 CURVE SMOOTH",
"236 696 OFFCURVE",
"207 725 OFFCURVE",
"207 761 CURVE SMOOTH",
"207 796 OFFCURVE",
"236 826 OFFCURVE",
"271 826 CURVE SMOOTH",
"307 826 OFFCURVE",
"336 796 OFFCURVE",
"336 761 CURVE SMOOTH",
"336 725 OFFCURVE",
"307 696 OFFCURVE"
);
},
{
closed = 1;
nodes = (
"58 157 CURVE SMOOTH",
"47 66 OFFCURVE",
"114 -12 OFFCURVE",
"215 -12 CURVE SMOOTH",
"297 -12 OFFCURVE",
"348 16 OFFCURVE",
"378 53 CURVE",
"378 39 LINE SMOOTH",
"378 -9 OFFCURVE",
"412 -12 OFFCURVE",
"436 -12 CURVE SMOOTH",
"469 -12 OFFCURVE",
"505 -3 OFFCURVE",
"528 9 CURVE",
"528 42 LINE",
"466 42 LINE",
"467 377 LINE SMOOTH",
"467 519 OFFCURVE",
"378 556 OFFCURVE",
"275 556 CURVE SMOOTH",
"226 556 OFFCURVE",
"127 538 OFFCURVE",
"79 498 CURVE",
"97 454 LINE",
"142 476 OFFCURVE",
"201 491 OFFCURVE",
"239 491 CURVE SMOOTH",
"314 491 OFFCURVE",
"373 470 OFFCURVE",
"373 367 CURVE SMOOTH",
"373 325 LINE",
"282 325 OFFCURVE",
"71 293 OFFCURVE"
);
},
{
closed = 1;
nodes = (
"152 155 CURVE SMOOTH",
"152 250 OFFCURVE",
"290 274 OFFCURVE",
"373 274 CURVE",
"372 213 OFFCURVE",
"372 153 OFFCURVE",
"372 92 CURVE",
"352 72 OFFCURVE",
"306 50 OFFCURVE",
"268 50 CURVE SMOOTH",
"195 50 OFFCURVE",
"152 79 OFFCURVE"
);
}
);
width = 559;
}
);
unicode = 00E5;
userData = {
com.typemytype.robofont.layerData = {
};
};
},
{
glyphname = atilde;
layers = (
{
layerId = "39185045-6A8C-415A-8312-7B8F11386A4C";
name = Regular;
paths = (
{
closed = 1;
nodes = (
"118 692 LINE",
"138 712 OFFCURVE",
"170 738 OFFCURVE",
"208 738 CURVE SMOOTH",
"256 738 OFFCURVE",
"271 672 OFFCURVE",
"335 672 CURVE SMOOTH",
"387 672 OFFCURVE",
"445 712 OFFCURVE",
"470 758 CURVE",
"445 793 LINE",
"424 773 OFFCURVE",
"392 747 OFFCURVE",
"354 747 CURVE SMOOTH",
"307 747 OFFCURVE",
"291 813 OFFCURVE",
"228 813 CURVE SMOOTH",
"176 813 OFFCURVE",
"117 772 OFFCURVE",
"92 728 CURVE"
);
},
{
closed = 1;
nodes = (
"58 157 CURVE SMOOTH",
"47 66 OFFCURVE",
"114 -12 OFFCURVE",
"215 -12 CURVE SMOOTH",
"297 -12 OFFCURVE",
"348 16 OFFCURVE",
"378 53 CURVE",
"378 39 LINE SMOOTH",
"378 -9 OFFCURVE",
"412 -12 OFFCURVE",
"436 -12 CURVE SMOOTH",
"469 -12 OFFCURVE",
"505 -3 OFFCURVE",
"528 9 CURVE",
"528 42 LINE",
"466 42 LINE",
"467 377 LINE SMOOTH",
"467 519 OFFCURVE",
"378 556 OFFCURVE",
"275 556 CURVE SMOOTH",
"226 556 OFFCURVE",
"127 538 OFFCURVE",
"79 498 CURVE",
"97 454 LINE",
"142 476 OFFCURVE",
"201 491 OFFCURVE",
"239 491 CURVE SMOOTH",
"314 491 OFFCURVE",
"373 470 OFFCURVE",
"373 367 CURVE SMOOTH",
"373 325 LINE",
"282 325 OFFCURVE",
"71 293 OFFCURVE"
);
},
{
closed = 1;
nodes = (
"152 155 CURVE SMOOTH",
"152 250 OFFCURVE",
"290 274 OFFCURVE",
"373 274 CURVE",
"372 213 OFFCURVE",
"372 153 OFFCURVE",
"372 92 CURVE",
"352 72 OFFCURVE",
"306 50 OFFCURVE",
"268 50 CURVE SMOOTH",
"195 50 OFFCURVE",
"152 79 OFFCURVE"
);
}
);
width = 559;
}
);
unicode = 00E3;
userData = {
com.typemytype.robofont.layerData = {
};
};
},
{
glyphname = ae;
layers = (
{
layerId = "39185045-6A8C-415A-8312-7B8F11386A4C";
name = Regular;
paths = (
{
closed = 1;
nodes = (
"58 157 CURVE SMOOTH",
"47 66 OFFCURVE",
"114 -12 OFFCURVE",
"215 -12 CURVE SMOOTH",
"310 -12 OFFCURVE",
"389 26 OFFCURVE",
"426 78 CURVE",
"468 21 OFFCURVE",
"532 -12 OFFCURVE",
"618 -12 CURVE SMOOTH",
"692 -12 OFFCURVE",
"785 9 OFFCURVE",
"823 43 CURVE",
"805 84 LINE",
"777 69 OFFCURVE",
"706 55 OFFCURVE",
"655 55 CURVE SMOOTH",
"572 55 OFFCURVE",
"469 96 OFFCURVE",
"466 266 CURVE",
"828 266 LINE",
"831 290 OFFCURVE",
"835 318 OFFCURVE",
"833 359 CURVE SMOOTH",
"828 488 OFFCURVE",
"758 565 OFFCURVE",
"643 563 CURVE SMOOTH",
"561 561 OFFCURVE",
"494 529 OFFCURVE",
"446 477 CURVE",
"413 538 OFFCURVE",
"348 556 OFFCURVE",
"275 556 CURVE SMOOTH",
"226 556 OFFCURVE",
"127 538 OFFCURVE",
"79 498 CURVE",
"97 454 LINE",
"142 476 OFFCURVE",
"201 491 OFFCURVE",
"239 491 CURVE SMOOTH",
"314 491 OFFCURVE",
"373 470 OFFCURVE",
"373 367 CURVE SMOOTH",
"373 325 LINE",
"282 325 OFFCURVE",
"71 293 OFFCURVE"
);
},
{
closed = 1;
nodes = (
"467 324 LINE",
"477 458 OFFCURVE",
"544 510 OFFCURVE",
"617 510 CURVE SMOOTH",
"645 510 OFFCURVE",
"666 505 OFFCURVE",
"683 494 CURVE SMOOTH",
"732 462 OFFCURVE",
"738 390 OFFCURVE",
"734 324 CURVE"
);
},
{
closed = 1;
nodes = (
"152 155 CURVE SMOOTH",
"152 250 OFFCURVE",
"290 274 OFFCURVE",
"373 274 CURVE",
"372 213 OFFCURVE",
"372 153 OFFCURVE",
"372 92 CURVE",
"352 72 OFFCURVE",
"306 50 OFFCURVE",
"268 50 CURVE SMOOTH",
"195 50 OFFCURVE",
"152 79 OFFCURVE"
);
}
);
width = 879;
}
);
unicode = 00E6;
userData = {
com.typemytype.robofont.layerData = {
};
};
},
{
glyphname = b;
layers = (
{
layerId = "39185045-6A8C-415A-8312-7B8F11386A4C";
name = Regular;
paths = (
{
closed = 1;
nodes = (
"99 24 LINE",
"112 10 OFFCURVE",
"200 -14 OFFCURVE",
"292 -14 CURVE SMOOTH",
"457 -14 OFFCURVE",
"568 129 OFFCURVE",
"568 295 CURVE SMOOTH",
"568 490 OFFCURVE",
"461 563 OFFCURVE",
"352 563 CURVE SMOOTH",
"276 563 OFFCURVE",
"228 530 OFFCURVE",
"193 500 CURVE",
"193 785 LINE",
"173 793 LINE",
"16 776 LINE",
"16 733 LINE",
"99 716 LINE"
);
},
{
closed = 1;
nodes = (
"193 449 LINE",
"214 469 OFFCURVE",
"256 495 OFFCURVE",
"313 495 CURVE SMOOTH",
"394 495 OFFCURVE",
"478 435 OFFCURVE",
"475 278 CURVE SMOOTH",
"473 111 OFFCURVE",
"388 38 OFFCURVE",
"303 38 CURVE SMOOTH",
"247 38 OFFCURVE",
"203 50 OFFCURVE",
"193 77 CURVE"
);
}
);
width = 617;
}
);
unicode = 0062;
userData = {
com.typemytype.robofont.layerData = {
};
};
},
{
glyphname = c;
layers = (
{
layerId = "39185045-6A8C-415A-8312-7B8F11386A4C";
name = Regular;
paths = (
{
closed = 1;
nodes = (
"51 263 CURVE SMOOTH",
"53 106 OFFCURVE",
"136 -10 OFFCURVE",
"287 -10 CURVE SMOOTH",
"360 -10 OFFCURVE",
"438 9 OFFCURVE",
"476 43 CURVE",
"459 86 LINE",
"432 70 OFFCURVE",
"370 57 OFFCURVE",
"319 57 CURVE SMOOTH",
"237 57 OFFCURVE",
"140 128 OFFCURVE",
"141 306 CURVE SMOOTH",
"143 440 OFFCURVE",
"220 504 OFFCURVE",
"307 504 CURVE SMOOTH",
"331 504 OFFCURVE",
"366 498 OFFCURVE",
"387 481 CURVE",
"412 419 LINE",
"458 419 LINE",
"458 537 LINE",
"432 554 OFFCURVE",
"373 563 OFFCURVE",
"317 561 CURVE SMOOTH",
"167 555 OFFCURVE",
"50 443 OFFCURVE"
);
}
);
width = 510;
}
);
unicode = 0063;
userData = {
com.typemytype.robofont.layerData = {
};
};
},
{
glyphname = ccedilla;
layers = (
{
layerId = "39185045-6A8C-415A-8312-7B8F11386A4C";
name = Regular;
paths = (
{
closed = 1;
nodes = (
"253 -8 CURVE",
"244 -44 OFFCURVE",
"238 -74 OFFCURVE",
"238 -104 CURVE",
"240 -104 OFFCURVE",
"254 -102 OFFCURVE",
"262 -102 CURVE SMOOTH",
"314 -102 OFFCURVE",
"338 -122 OFFCURVE",
"338 -151 CURVE SMOOTH",
"338 -200 OFFCURVE",
"306 -205 OFFCURVE",
"270 -205 CURVE SMOOTH",
"258 -205 OFFCURVE",
"230 -202 OFFCURVE",
"215 -198 CURVE",
"215 -215 OFFCURVE",
"214 -230 OFFCURVE",
"214 -247 CURVE",
"234 -252 OFFCURVE",
"253 -260 OFFCURVE",
"311 -257 CURVE SMOOTH",
"382 -253 OFFCURVE",
"434 -218 OFFCURVE",
"434 -153 CURVE SMOOTH",
"434 -111 OFFCURVE",
"399 -61 OFFCURVE",
"310 -61 CURVE",
"308 -44 OFFCURVE",
"309 -25 OFFCURVE",
"310 -10 CURVE",
"376 -6 OFFCURVE",
"442 13 OFFCURVE",
"476 43 CURVE",
"459 86 LINE",
"432 70 OFFCURVE",
"370 57 OFFCURVE",
"319 57 CURVE SMOOTH",
"237 57 OFFCURVE",
"140 128 OFFCURVE",
"141 306 CURVE SMOOTH",
"143 440 OFFCURVE",
"220 504 OFFCURVE",
"307 504 CURVE SMOOTH",
"331 504 OFFCURVE",
"366 498 OFFCURVE",
"387 481 CURVE",
"412 419 LINE",
"458 419 LINE",
"458 537 LINE",
"432 554 OFFCURVE",
"373 563 OFFCURVE",
"317 561 CURVE SMOOTH",
"167 555 OFFCURVE",
"50 443 OFFCURVE",
"51 263 CURVE SMOOTH",
"53 118 OFFCURVE",
"123 7 OFFCURVE"
);
}
);
width = 510;
}
);
unicode = 00E7;
userData = {
com.typemytype.robofont.layerData = {
};
};
},
{
glyphname = d;
layers = (
{
layerId = "39185045-6A8C-415A-8312-7B8F11386A4C";
name = Regular;
paths = (
{
closed = 1;
nodes = (
"262 -12 CURVE SMOOTH",
"350 -12 OFFCURVE",
"407 25 OFFCURVE",
"427 47 CURVE",
"427 35 LINE SMOOTH",
"427 -14 OFFCURVE",
"457 -16 OFFCURVE",
"480 -16 CURVE SMOOTH",
"514 -16 OFFCURVE",
"561 -7 OFFCURVE",
"583 5 CURVE",
"583 42 LINE",
"517 42 LINE",
"517 782 LINE",
"495 793 LINE",
"319 773 LINE",
"319 730 LINE",
"423 713 LINE",
"423 550 LINE",
"400 558 OFFCURVE",
"366 563 OFFCURVE",
"331 563 CURVE SMOOTH",
"173 563 OFFCURVE",
"49 438 OFFCURVE",
"49 264 CURVE SMOOTH",
"49 74 OFFCURVE",
"153 -12 OFFCURVE"
);
},
{
closed = 1;
nodes = (
"300 55 CURVE SMOOTH",
"219 55 OFFCURVE",
"140 128 OFFCURVE",
"142 288 CURVE SMOOTH",
"144 458 OFFCURVE",
"246 511 OFFCURVE",
"319 511 CURVE SMOOTH",
"382 511 OFFCURVE",
"409 488 OFFCURVE",
"423 472 CURVE",
"423 98 LINE",
"408 83 OFFCURVE",
"386 69 OFFCURVE",
"354 62 CURVE SMOOTH",
"338 58 OFFCURVE",
"321 55 OFFCURVE"
);
}
);
width = 620;
}
);
unicode = 0064;
userData = {
com.typemytype.robofont.layerData = {
};
};
},
{
glyphname = eth;
layers = (
{
layerId = "39185045-6A8C-415A-8312-7B8F11386A4C";
name = Regular;
paths = (
{
closed = 1;
nodes = (
"49 245 CURVE SMOOTH",
"49 93 OFFCURVE",
"149 -17 OFFCURVE",
"300 -13 CURVE SMOOTH",
"438 -11 OFFCURVE",
"552 97 OFFCURVE",
"552 302 CURVE SMOOTH",
"552 457 OFFCURVE",
"489 621 OFFCURVE",
"344 731 CURVE",
"376 759 OFFCURVE",
"421 798 OFFCURVE",
"424 800 CURVE",
"374 842 LINE",
"343 815 LINE",
"289 769 LINE",
"252 790 OFFCURVE",
"214 808 OFFCURVE",
"169 823 CURVE",
"157 770 LINE",
"184 761 OFFCURVE",
"213 746 OFFCURVE",
"245 725 CURVE",
"165 652 LINE",
"213 614 LINE",
"296 685 LINE",
"364 625 OFFCURVE",
"426 541 OFFCURVE",
"448 441 CURVE",
"417 477 OFFCURVE",
"349 504 OFFCURVE",
"301 504 CURVE SMOOTH",
"164 504 OFFCURVE",
"49 416 OFFCURVE"
);
},
{
closed = 1;
nodes = (
"151 250 CURVE SMOOTH",
"151 373 OFFCURVE",
"195 451 OFFCURVE",
"300 451 CURVE SMOOTH",
"396 451 OFFCURVE",
"438 369 OFFCURVE",
"448 326 CURVE SMOOTH",
"452 308 OFFCURVE",
"451 275 OFFCURVE",
"451 269 CURVE SMOOTH",
"451 154 OFFCURVE",
"397 38 OFFCURVE",
"308 38 CURVE SMOOTH",
"205 38 OFFCURVE",
"151 139 OFFCURVE"
);
}
);
width = 601;
}
);
unicode = 00F0;
userData = {
com.typemytype.robofont.layerData = {
};
};
},
{
glyphname = e;
layers = (
{
layerId = "39185045-6A8C-415A-8312-7B8F11386A4C";
name = Regular;
paths = (
{
closed = 1;
nodes = (
"49 271 CURVE SMOOTH",
"49 100 OFFCURVE",
"137 -12 OFFCURVE",
"294 -12 CURVE SMOOTH",
"369 -12 OFFCURVE",
"456 9 OFFCURVE",
"494 43 CURVE",
"476 84 LINE",
"448 68 OFFCURVE",
"382 55 OFFCURVE",
"332 55 CURVE SMOOTH",
"248 55 OFFCURVE",
"148 97 OFFCURVE",
"143 255 CURVE",
"142 259 OFFCURVE",
"142 262 OFFCURVE",
"142 266 CURVE",
"504 266 LINE",
"507 290 OFFCURVE",
"511 318 OFFCURVE",
"510 359 CURVE SMOOTH",
"504 488 OFFCURVE",
"434 565 OFFCURVE",
"319 563 CURVE SMOOTH",
"159 559 OFFCURVE",
"49 438 OFFCURVE"
);
},
{
closed = 1;
nodes = (
"143 324 LINE",
"153 458 OFFCURVE",
"220 510 OFFCURVE",
"293 510 CURVE SMOOTH",
"321 510 OFFCURVE",
"342 505 OFFCURVE",
"359 494 CURVE SMOOTH",
"409 462 OFFCURVE",
"414 390 OFFCURVE",
"410 324 CURVE"
);
}
);
width = 559;
}
);
unicode = 0065;
userData = {
com.typemytype.robofont.layerData = {
};
};
},
{
glyphname = eacute;
layers = (
{
layerId = "39185045-6A8C-415A-8312-7B8F11386A4C";
name = Regular;
paths = (
{
closed = 1;
nodes = (
"254 654 LINE",
"307 679 OFFCURVE",
"404 736 OFFCURVE",
"443 796 CURVE",
"372 869 LINE",
"228 681 LINE"
);
},
{
closed = 1;
nodes = (
"49 271 CURVE SMOOTH",
"49 100 OFFCURVE",
"137 -12 OFFCURVE",
"294 -12 CURVE SMOOTH",
"369 -12 OFFCURVE",
"456 9 OFFCURVE",
"494 43 CURVE",
"476 84 LINE",
"448 68 OFFCURVE",
"382 55 OFFCURVE",
"332 55 CURVE SMOOTH",
"248 55 OFFCURVE",
"148 97 OFFCURVE",
"143 255 CURVE",
"142 259 OFFCURVE",
"142 262 OFFCURVE",
"142 266 CURVE",
"504 266 LINE",
"507 290 OFFCURVE",
"511 318 OFFCURVE",
"510 359 CURVE SMOOTH",
"504 488 OFFCURVE",
"434 565 OFFCURVE",
"319 563 CURVE SMOOTH",
"159 559 OFFCURVE",
"49 438 OFFCURVE"
);
},
{
closed = 1;
nodes = (
"143 324 LINE",
"153 458 OFFCURVE",
"220 510 OFFCURVE",
"293 510 CURVE SMOOTH",
"321 510 OFFCURVE",
"342 505 OFFCURVE",
"359 494 CURVE SMOOTH",
"409 462 OFFCURVE",
"414 390 OFFCURVE",
"410 324 CURVE"
);
}
);
width = 559;
}
);
unicode = 00E9;
userData = {
com.typemytype.robofont.layerData = {
};
};
},
{
glyphname = ecircumflex;
layers = (
{
layerId = "39185045-6A8C-415A-8312-7B8F11386A4C";
name = Regular;
paths = (
{
closed = 1;
nodes = (
"156 652 LINE",
"299 783 LINE",
"432 652 LINE",
"473 675 LINE",
"345 867 LINE",
"253 867 LINE",
"120 674 LINE"
);
},
{
closed = 1;
nodes = (
"49 271 CURVE SMOOTH",
"49 100 OFFCURVE",
"137 -12 OFFCURVE",
"294 -12 CURVE SMOOTH",
"369 -12 OFFCURVE",
"456 9 OFFCURVE",
"494 43 CURVE",
"476 84 LINE",
"448 68 OFFCURVE",
"382 55 OFFCURVE",
"332 55 CURVE SMOOTH",
"248 55 OFFCURVE",
"148 97 OFFCURVE",
"143 255 CURVE",
"142 259 OFFCURVE",
"142 262 OFFCURVE",
"142 266 CURVE",
"504 266 LINE",
"507 290 OFFCURVE",
"511 318 OFFCURVE",
"510 359 CURVE SMOOTH",
"504 488 OFFCURVE",
"434 565 OFFCURVE",
"319 563 CURVE SMOOTH",
"159 559 OFFCURVE",
"49 438 OFFCURVE"
);
},
{
closed = 1;
nodes = (
"143 324 LINE",
"153 458 OFFCURVE",
"220 510 OFFCURVE",
"293 510 CURVE SMOOTH",
"321 510 OFFCURVE",
"342 505 OFFCURVE",
"359 494 CURVE SMOOTH",
"409 462 OFFCURVE",
"414 390 OFFCURVE",
"410 324 CURVE"
);
}
);
width = 559;
}
);
unicode = 00EA;
userData = {
com.typemytype.robofont.layerData = {
};
};
},
{
glyphname = edieresis;
layers = (
{
layerId = "39185045-6A8C-415A-8312-7B8F11386A4C";
name = Regular;
paths = (
{
closed = 1;
nodes = (
"406 675 CURVE SMOOTH",
"443 675 OFFCURVE",
"479 701 OFFCURVE",
"479 744 CURVE SMOOTH",
"479 777 OFFCURVE",
"460 804 OFFCURVE",
"417 804 CURVE SMOOTH",
"383 804 OFFCURVE",
"346 774 OFFCURVE",
"346 733 CURVE SMOOTH",
"346 696 OFFCURVE",
"375 675 OFFCURVE"
);
},
{
closed = 1;
nodes = (
"179 675 CURVE SMOOTH",
"215 675 OFFCURVE",
"252 701 OFFCURVE",
"252 744 CURVE SMOOTH",
"252 777 OFFCURVE",
"233 804 OFFCURVE",
"190 804 CURVE SMOOTH",
"155 804 OFFCURVE",
"118 774 OFFCURVE",
"118 733 CURVE SMOOTH",
"118 696 OFFCURVE",
"147 675 OFFCURVE"
);
},
{
closed = 1;
nodes = (
"49 271 CURVE SMOOTH",
"49 100 OFFCURVE",
"137 -12 OFFCURVE",
"294 -12 CURVE SMOOTH",
"369 -12 OFFCURVE",
"456 9 OFFCURVE",
"494 43 CURVE",
"476 84 LINE",
"448 68 OFFCURVE",
"382 55 OFFCURVE",
"332 55 CURVE SMOOTH",
"248 55 OFFCURVE",
"148 97 OFFCURVE",
"143 255 CURVE",
"142 259 OFFCURVE",
"142 262 OFFCURVE",
"142 266 CURVE",
"504 266 LINE",
"507 290 OFFCURVE",
"511 318 OFFCURVE",
"510 359 CURVE SMOOTH",
"504 488 OFFCURVE",
"434 565 OFFCURVE",
"319 563 CURVE SMOOTH",
"159 559 OFFCURVE",
"49 438 OFFCURVE"
);
},
{
closed = 1;
nodes = (
"143 324 LINE",
"153 458 OFFCURVE",
"220 510 OFFCURVE",
"293 510 CURVE SMOOTH",
"321 510 OFFCURVE",
"342 505 OFFCURVE",
"359 494 CURVE SMOOTH",
"409 462 OFFCURVE",
"414 390 OFFCURVE",
"410 324 CURVE"
);
}
);
width = 559;
}
);
unicode = 00EB;
userData = {
com.typemytype.robofont.layerData = {
};
};
},
{
glyphname = egrave;
layers = (
{
layerId = "39185045-6A8C-415A-8312-7B8F11386A4C";
name = Regular;
paths = (
{
closed = 1;
nodes = (
"385 681 LINE",
"242 869 LINE",
"170 796 LINE",
"209 736 OFFCURVE",
"306 679 OFFCURVE",
"359 654 CURVE"
);
},
{
closed = 1;
nodes = (
"49 271 CURVE SMOOTH",
"49 100 OFFCURVE",
"137 -12 OFFCURVE",
"294 -12 CURVE SMOOTH",
"369 -12 OFFCURVE",
"456 9 OFFCURVE",
"494 43 CURVE",
"476 84 LINE",
"448 68 OFFCURVE",
"382 55 OFFCURVE",
"332 55 CURVE SMOOTH",
"248 55 OFFCURVE",
"148 97 OFFCURVE",
"143 255 CURVE",
"142 259 OFFCURVE",
"142 262 OFFCURVE",
"142 266 CURVE",
"504 266 LINE",
"507 290 OFFCURVE",
"511 318 OFFCURVE",
"510 359 CURVE SMOOTH",
"504 488 OFFCURVE",
"434 565 OFFCURVE",
"319 563 CURVE SMOOTH",
"159 559 OFFCURVE",
"49 438 OFFCURVE"
);
},
{
closed = 1;
nodes = (
"143 324 LINE",
"153 458 OFFCURVE",
"220 510 OFFCURVE",
"293 510 CURVE SMOOTH",
"321 510 OFFCURVE",
"342 505 OFFCURVE",
"359 494 CURVE SMOOTH",
"409 462 OFFCURVE",
"414 390 OFFCURVE",
"410 324 CURVE"
);
}
);
width = 559;
}
);
unicode = 00E8;
userData = {
com.typemytype.robofont.layerData = {
};
};
},
{
glyphname = eogonek;
layers = (
{
layerId = "39185045-6A8C-415A-8312-7B8F11386A4C";
name = Regular;
paths = (
{
closed = 1;
nodes = (
"49 271 CURVE SMOOTH",
"49 100 OFFCURVE",
"137 -12 OFFCURVE",
"294 -12 CURVE SMOOTH",
"317 -12 OFFCURVE",
"341 -10 OFFCURVE",
"365 -6 CURVE",
"304 -45 OFFCURVE",
"270 -104 OFFCURVE",
"270 -148 CURVE SMOOTH",
"270 -265 OFFCURVE",
"430 -269 OFFCURVE",
"497 -218 CURVE",
"497 -175 LINE",
"442 -197 OFFCURVE",
"358 -196 OFFCURVE",
"358 -120 CURVE SMOOTH",
"358 -83 OFFCURVE",
"388 -38 OFFCURVE",
"484 35 CURVE",
"486 36 OFFCURVE",
"488 38 OFFCURVE",
"489 39 CURVE",
"494 42 LINE",
"493 42 LINE",
"494 43 LINE",
"476 84 LINE",
"448 68 OFFCURVE",
"382 55 OFFCURVE",
"332 55 CURVE SMOOTH",
"248 55 OFFCURVE",
"148 97 OFFCURVE",
"143 255 CURVE",
"142 259 OFFCURVE",
"142 262 OFFCURVE",
"142 266 CURVE",
"504 266 LINE",
"507 290 OFFCURVE",
"511 318 OFFCURVE",
"510 359 CURVE SMOOTH",
"504 488 OFFCURVE",
"434 565 OFFCURVE",
"319 563 CURVE SMOOTH",
"159 559 OFFCURVE",
"49 438 OFFCURVE"
);
},
{
closed = 1;
nodes = (
"143 324 LINE",
"153 458 OFFCURVE",
"220 510 OFFCURVE",
"293 510 CURVE SMOOTH",
"321 510 OFFCURVE",
"342 505 OFFCURVE",
"359 494 CURVE SMOOTH",
"409 462 OFFCURVE",
"414 390 OFFCURVE",
"410 324 CURVE"
);
}
);
width = 559;
}
);
unicode = 0119;
userData = {
com.typemytype.robofont.layerData = {
};
};
},
{
glyphname = f;
layers = (
{
layerId = "39185045-6A8C-415A-8312-7B8F11386A4C";
name = Regular;
paths = (
{
closed = 1;
nodes = (
"54 0 LINE",
"358 0 LINE",
"358 42 LINE",
"246 51 LINE",
"246 480 LINE",
"393 480 LINE",
"393 546 LINE",
"246 546 LINE",
"246 627 LINE SMOOTH",
"246 738 OFFCURVE",
"280 749 OFFCURVE",
"333 749 CURVE SMOOTH",
"379 749 OFFCURVE",
"413 739 OFFCURVE",
"422 733 CURVE",
"422 816 LINE",
"415 820 OFFCURVE",
"396 825 OFFCURVE",
"352 825 CURVE SMOOTH",
"270 825 OFFCURVE",
"152 732 OFFCURVE",
"152 587 CURVE SMOOTH",
"152 546 LINE",
"44 518 LINE",
"44 480 LINE",
"152 480 LINE",
"152 52 LINE",
"54 42 LINE"
);
}
);
width = 409;
}
);
unicode = 0066;
userData = {
com.typemytype.robofont.layerData = {
};
};
},
{
glyphname = g;
lastChange = "2014-08-26 11:02:16 +0100";
layers = (
{
layerId = "39185045-6A8C-415A-8312-7B8F11386A4C";
name = Regular;
paths = (
{
closed = 1;
nodes = (
"62 -114 CURVE SMOOTH",
"62 -226 OFFCURVE",
"181 -259 OFFCURVE",
"298 -259 CURVE SMOOTH",
"459 -259 OFFCURVE",
"555 -185 OFFCURVE",
"555 -73 CURVE SMOOTH",
"555 -11 OFFCURVE",
"545 80 OFFCURVE",
"362 80 CURVE SMOOTH",
"306 80 OFFCURVE",
"266 80 OFFCURVE",
"236 83 CURVE SMOOTH",
"190 86 OFFCURVE",
"174 106 OFFCURVE",
"174 141 CURVE SMOOTH",
"174 154 OFFCURVE",
"171 183 OFFCURVE",
"179 204 CURVE",
"209 192 OFFCURVE",
"244 186 OFFCURVE",
"282 186 CURVE SMOOTH",
"397 186 OFFCURVE",
"500 257 OFFCURVE",
"500 386 CURVE SMOOTH",
"500 423 OFFCURVE",
"492 455 OFFCURVE",
"478 479 CURVE",
"574 479 LINE",
"574 553 LINE",
"515 553 LINE SMOOTH",
"473 553 OFFCURVE",
"449 543 OFFCURVE",
"436 528 CURVE",
"399 556 OFFCURVE",
"349 568 OFFCURVE",
"294 567 CURVE SMOOTH",
"184 564 OFFCURVE",
"71 503 OFFCURVE",
"71 368 CURVE SMOOTH",
"71 297 OFFCURVE",
"102 249 OFFCURVE",
"150 219 CURVE",
"111 184 OFFCURVE",
"90 127 OFFCURVE",
"90 104 CURVE SMOOTH",
"90 76 OFFCURVE",
"86 40 OFFCURVE",
"145 19 CURVE",
"110 -3 OFFCURVE",
"62 -54 OFFCURVE"
);
},
{
closed = 1;
nodes = (
"296 238 CURVE SMOOTH",
"202 238 OFFCURVE",
"165 306 OFFCURVE",
"165 387 CURVE SMOOTH",
"165 485 OFFCURVE",
"216 516 OFFCURVE",
"281 516 CURVE SMOOTH",
"365 516 OFFCURVE",
"406 470 OFFCURVE",
"406 373 CURVE SMOOTH",
"406 283 OFFCURVE",
"377 238 OFFCURVE"
);
},
{
closed = 1;
nodes = (
"153 -83 CURVE SMOOTH",
"153 -35 OFFCURVE",
"167 -9 OFFCURVE",
"182 9 CURVE",
"206 5 OFFCURVE",
"236 3 OFFCURVE",
"274 3 CURVE SMOOTH",
"336 2 LINE SMOOTH",
"457 2 OFFCURVE",
"479 -34 OFFCURVE",
"479 -97 CURVE SMOOTH",
"479 -169 OFFCURVE",
"415 -204 OFFCURVE",
"310 -204 CURVE SMOOTH",
"226 -204 OFFCURVE",
"153 -171 OFFCURVE"
);
}
);
width = 587;
}
);
leftKerningGroup = o;
unicode = 0067;
userData = {
com.typemytype.robofont.layerData = {
};
};
},
{
glyphname = h;
layers = (
{
layerId = "39185045-6A8C-415A-8312-7B8F11386A4C";
name = Regular;
paths = (
{
closed = 1;
nodes = (
"61 0 LINE",
"299 0 LINE",
"299 42 LINE",
"228 52 LINE",
"228 444 LINE",
"273 476 OFFCURVE",
"327 485 OFFCURVE",
"370 485 CURVE SMOOTH",
"478 485 OFFCURVE",
"485 406 OFFCURVE",
"485 255 CURVE SMOOTH",
"485 52 LINE",
"403 42 LINE",
"403 0 LINE",
"652 0 LINE",
"652 42 LINE",
"579 52 LINE",
"579 296 LINE SMOOTH",
"580 478 OFFCURVE",
"548 556 OFFCURVE",
"416 556 CURVE SMOOTH",
"364 556 OFFCURVE",
"282 528 OFFCURVE",
"225 482 CURVE",
"227 566 LINE",
"228 782 LINE",
"205 793 LINE",
"50 773 LINE",
"50 730 LINE",
"134 713 LINE",
"134 52 LINE",
"61 42 LINE"
);
}
);
width = 686;
}
);
unicode = 0068;
userData = {
com.typemytype.robofont.layerData = {
};
};
},
{
glyphname = hbar;
layers = (
{
layerId = "39185045-6A8C-415A-8312-7B8F11386A4C";
name = Regular;
paths = (
{
closed = 1;
nodes = (
"61 0 LINE",
"299 0 LINE",
"299 42 LINE",
"228 52 LINE",
"228 444 LINE",
"273 476 OFFCURVE",
"327 485 OFFCURVE",
"370 485 CURVE SMOOTH",
"478 485 OFFCURVE",
"485 406 OFFCURVE",
"485 255 CURVE SMOOTH",
"485 52 LINE",
"403 42 LINE",
"403 0 LINE",
"652 0 LINE",
"652 42 LINE",
"579 52 LINE",
"579 296 LINE SMOOTH",
"580 478 OFFCURVE",
"548 556 OFFCURVE",
"416 556 CURVE SMOOTH",
"364 556 OFFCURVE",
"282 528 OFFCURVE",
"225 482 CURVE",
"227 566 LINE",
"227 594 LINE",
"313 594 LINE",
"313 651 LINE",
"227 651 LINE",
"228 782 LINE",
"205 793 LINE",
"50 773 LINE",
"50 730 LINE",
"134 713 LINE",
"134 651 LINE",
"53 651 LINE",
"53 594 LINE",
"134 594 LINE",
"134 52 LINE",
"61 42 LINE"
);
}
);
width = 686;
}
);
unicode = 0127;
userData = {
com.typemytype.robofont.layerData = {
};
};
},
{
glyphname = i;
lastChange = "2014-08-26 11:01:28 +0100";
layers = (
{
layerId = "39185045-6A8C-415A-8312-7B8F11386A4C";
name = Regular;
paths = (
{
closed = 1;
nodes = (
"163 671 CURVE SMOOTH",
"199 671 OFFCURVE",
"236 699 OFFCURVE",
"236 742 CURVE SMOOTH",
"236 775 OFFCURVE",
"217 803 OFFCURVE",
"174 803 CURVE SMOOTH",
"139 803 OFFCURVE",
"101 772 OFFCURVE",
"101 731 CURVE SMOOTH",
"101 694 OFFCURVE",
"131 671 OFFCURVE"
);
},
{
closed = 1;
nodes = (
"55 0 LINE",
"307 0 LINE",
"307 42 LINE",
"228 52 LINE",
"228 546 LINE",
"206 556 LINE",
"70 518 LINE",
"70 487 LINE",
"138 452 LINE",
"138 52 LINE",
"55 42 LINE"
);
}
);
width = 333;
}
);
leftKerningGroup = i;
unicode = 0069;
userData = {
com.typemytype.robofont.layerData = {
};
};
},
{
glyphname = idotless;
layers = (
{
layerId = "39185045-6A8C-415A-8312-7B8F11386A4C";
name = Regular;
paths = (
{
closed = 1;
nodes = (
"55 0 LINE",
"307 0 LINE",
"307 42 LINE",
"228 52 LINE",
"228 546 LINE",
"206 556 LINE",
"70 518 LINE",
"70 487 LINE",
"138 452 LINE",
"138 52 LINE",
"55 42 LINE"
);
}
);
width = 333;
}
);
unicode = 0131;
userData = {
com.typemytype.robofont.layerData = {
};
};
},
{
glyphname = iacute;
layers = (
{
layerId = "39185045-6A8C-415A-8312-7B8F11386A4C";
name = Regular;
paths = (
{
closed = 1;
nodes = (
"128 654 LINE",
"182 679 OFFCURVE",
"278 736 OFFCURVE",
"317 796 CURVE",
"246 869 LINE",
"103 681 LINE"
);
},
{
closed = 1;
nodes = (
"55 0 LINE",
"307 0 LINE",
"307 42 LINE",
"228 52 LINE",
"228 546 LINE",
"206 556 LINE",
"70 518 LINE",
"70 487 LINE",
"138 452 LINE",
"138 52 LINE",
"55 42 LINE"
);
}
);
width = 333;
}
);
unicode = 00ED;
userData = {
com.typemytype.robofont.layerData = {
};
};
},
{
glyphname = icircumflex;
layers = (
{
layerId = "39185045-6A8C-415A-8312-7B8F11386A4C";
name = Regular;
paths = (
{
closed = 1;
nodes = (
"31 652 LINE",
"173 783 LINE",
"306 652 LINE",
"348 675 LINE",
"220 867 LINE",
"127 867 LINE",
"-6 674 LINE"
);
},
{
closed = 1;
nodes = (
"55 0 LINE",
"307 0 LINE",
"307 42 LINE",
"228 52 LINE",
"228 546 LINE",
"206 556 LINE",
"70 518 LINE",
"70 487 LINE",
"138 452 LINE",
"138 52 LINE",
"55 42 LINE"
);
}
);
width = 333;
}
);
unicode = 00EE;
userData = {
com.typemytype.robofont.layerData = {
};
};
},
{
glyphname = idieresis;
layers = (
{
layerId = "39185045-6A8C-415A-8312-7B8F11386A4C";
name = Regular;
paths = (
{
closed = 1;
nodes = (
"281 675 CURVE SMOOTH",
"317 675 OFFCURVE",
"354 701 OFFCURVE",
"354 744 CURVE SMOOTH",
"354 777 OFFCURVE",
"335 804 OFFCURVE",
"292 804 CURVE SMOOTH",
"257 804 OFFCURVE",
"220 774 OFFCURVE",
"220 733 CURVE SMOOTH",
"220 696 OFFCURVE",
"249 675 OFFCURVE"
);
},
{
closed = 1;
nodes = (
"53 675 CURVE SMOOTH",
"90 675 OFFCURVE",
"126 701 OFFCURVE",
"126 744 CURVE SMOOTH",
"126 777 OFFCURVE",
"107 804 OFFCURVE",
"64 804 CURVE SMOOTH",
"30 804 OFFCURVE",
"-7 774 OFFCURVE",
"-7 733 CURVE SMOOTH",
"-7 696 OFFCURVE",
"21 675 OFFCURVE"
);
},
{
closed = 1;
nodes = (
"55 0 LINE",
"307 0 LINE",
"307 42 LINE",
"228 52 LINE",
"228 546 LINE",
"206 556 LINE",
"70 518 LINE",
"70 487 LINE",
"138 452 LINE",
"138 52 LINE",
"55 42 LINE"
);
}
);
width = 333;
}
);
unicode = 00EF;
userData = {
com.typemytype.robofont.layerData = {
};
};
},
{
glyphname = igrave;
layers = (
{
layerId = "39185045-6A8C-415A-8312-7B8F11386A4C";
name = Regular;
paths = (
{
closed = 1;
nodes = (
"260 681 LINE",
"116 869 LINE",
"45 796 LINE",
"84 736 OFFCURVE",
"181 679 OFFCURVE",
"234 654 CURVE"
);
},
{
closed = 1;
nodes = (
"55 0 LINE",
"307 0 LINE",
"307 42 LINE",
"228 52 LINE",
"228 546 LINE",
"206 556 LINE",
"70 518 LINE",
"70 487 LINE",
"138 452 LINE",
"138 52 LINE",
"55 42 LINE"
);
}
);
width = 333;
}
);
unicode = 00EC;
userData = {
com.typemytype.robofont.layerData = {
};
};
},
{
glyphname = ij;
layers = (
{
layerId = "39185045-6A8C-415A-8312-7B8F11386A4C";
name = Regular;
paths = (
{
closed = 1;
nodes = (
"493 686 CURVE SMOOTH",
"529 686 OFFCURVE",
"566 713 OFFCURVE",
"566 756 CURVE SMOOTH",
"566 790 OFFCURVE",
"547 817 OFFCURVE",
"504 817 CURVE SMOOTH",
"469 817 OFFCURVE",
"431 787 OFFCURVE",
"431 746 CURVE SMOOTH",
"431 708 OFFCURVE",
"461 686 OFFCURVE"
);
},
{
closed = 1;
nodes = (
"163 671 CURVE SMOOTH",
"199 671 OFFCURVE",
"236 699 OFFCURVE",
"236 742 CURVE SMOOTH",
"236 775 OFFCURVE",
"217 803 OFFCURVE",
"174 803 CURVE SMOOTH",
"139 803 OFFCURVE",
"101 772 OFFCURVE",
"101 731 CURVE SMOOTH",
"101 694 OFFCURVE",
"131 671 OFFCURVE"
);
},
{
closed = 1;
nodes = (
"329 -244 LINE",
"335 -249 OFFCURVE",
"369 -251 OFFCURVE",
"382 -251 CURVE SMOOTH",
"490 -251 OFFCURVE",
"560 -160 OFFCURVE",
"560 -8 CURVE SMOOTH",
"560 546 LINE",
"537 556 LINE",
"400 517 LINE",
"400 488 LINE",
"468 452 LINE",
"468 -1 LINE SMOOTH",
"468 -138 OFFCURVE",
"446 -182 OFFCURVE",
"383 -182 CURVE SMOOTH",
"372 -182 OFFCURVE",
"340 -181 OFFCURVE",
"329 -177 CURVE"
);
},
{
closed = 1;
nodes = (
"55 0 LINE",
"307 0 LINE",
"307 42 LINE",
"228 52 LINE",
"228 546 LINE",
"206 556 LINE",
"70 518 LINE",
"70 487 LINE",
"138 452 LINE",
"138 52 LINE",
"55 42 LINE"
);
}
);
width = 651;
}
);
unicode = 0133;
userData = {
com.typemytype.robofont.layerData = {
};
};
},
{
glyphname = itilde;
layers = (
{
layerId = "39185045-6A8C-415A-8312-7B8F11386A4C";
name = Regular;
paths = (
{
closed = 1;
nodes = (
"4 692 LINE",
"24 712 OFFCURVE",
"56 738 OFFCURVE",
"94 738 CURVE SMOOTH",
"142 738 OFFCURVE",
"157 672 OFFCURVE",
"221 672 CURVE SMOOTH",
"273 672 OFFCURVE",
"332 712 OFFCURVE",
"356 758 CURVE",
"331 793 LINE",
"311 773 OFFCURVE",
"278 747 OFFCURVE",
"241 747 CURVE SMOOTH",
"193 747 OFFCURVE",
"177 813 OFFCURVE",
"114 813 CURVE SMOOTH",
"63 813 OFFCURVE",
"3 772 OFFCURVE",
"-21 728 CURVE"
);
},
{
closed = 1;
nodes = (
"55 0 LINE",
"307 0 LINE",
"307 42 LINE",
"228 52 LINE",
"228 546 LINE",
"206 556 LINE",
"70 518 LINE",
"70 487 LINE",
"138 452 LINE",
"138 52 LINE",
"55 42 LINE"
);
}
);
width = 333;
}
);
unicode = 0129;
userData = {
com.typemytype.robofont.layerData = {
};
};
},
{
glyphname = j;
lastChange = "2014-08-26 11:00:50 +0100";
layers = (
{
layerId = "39185045-6A8C-415A-8312-7B8F11386A4C";
name = Regular;
paths = (
{
closed = 1;
nodes = (
"159 686 CURVE SMOOTH",
"196 686 OFFCURVE",
"232 713 OFFCURVE",
"232 756 CURVE SMOOTH",
"232 790 OFFCURVE",
"213 817 OFFCURVE",
"170 817 CURVE SMOOTH",
"136 817 OFFCURVE",
"98 787 OFFCURVE",
"98 746 CURVE SMOOTH",
"98 708 OFFCURVE",
"127 686 OFFCURVE"
);
},
{
closed = 1;
nodes = (
"134 -1 LINE SMOOTH",
"134 -138 OFFCURVE",
"112 -182 OFFCURVE",
"49 -182 CURVE SMOOTH",
"38 -182 OFFCURVE",
"6 -181 OFFCURVE",
"-4 -177 CURVE",
"-4 -244 LINE",
"1 -249 OFFCURVE",
"35 -251 OFFCURVE",
"49 -251 CURVE SMOOTH",
"157 -251 OFFCURVE",
"226 -160 OFFCURVE",
"226 -8 CURVE SMOOTH",
"226 546 LINE",
"204 556 LINE",
"66 517 LINE",
"66 488 LINE",
"134 452 LINE"
);
}
);
width = 317;
}
);
leftKerningGroup = i;
unicode = 006A;
userData = {
com.typemytype.robofont.layerData = {
};
};
},
{
glyphname = jdotless;
layers = (
{
layerId = "39185045-6A8C-415A-8312-7B8F11386A4C";
name = Regular;
paths = (
{
closed = 1;
nodes = (
"134 -1 LINE SMOOTH",
"134 -138 OFFCURVE",
"112 -182 OFFCURVE",
"49 -182 CURVE SMOOTH",
"38 -182 OFFCURVE",
"6 -181 OFFCURVE",
"-4 -177 CURVE",
"-4 -244 LINE",
"1 -249 OFFCURVE",
"35 -251 OFFCURVE",
"49 -251 CURVE SMOOTH",
"157 -251 OFFCURVE",
"226 -160 OFFCURVE",
"226 -8 CURVE SMOOTH",
"226 546 LINE",
"204 556 LINE",
"66 517 LINE",
"66 488 LINE",
"134 452 LINE"
);
}
);
width = 317;
}
);
unicode = 0237;
userData = {
com.typemytype.robofont.layerData = {
};
};
},
{
glyphname = jcircumflex;
layers = (
{
layerId = "39185045-6A8C-415A-8312-7B8F11386A4C";
name = Regular;
paths = (
{
closed = 1;
nodes = (
"37 652 LINE",
"180 783 LINE",
"313 652 LINE",
"354 675 LINE",
"226 867 LINE",
"134 867 LINE",
"0 674 LINE"
);
},
{
closed = 1;
nodes = (
"134 -1 LINE SMOOTH",
"134 -138 OFFCURVE",
"112 -182 OFFCURVE",
"49 -182 CURVE SMOOTH",
"38 -182 OFFCURVE",
"6 -181 OFFCURVE",
"-4 -177 CURVE",
"-4 -244 LINE",
"1 -249 OFFCURVE",
"35 -251 OFFCURVE",
"49 -251 CURVE SMOOTH",
"157 -251 OFFCURVE",
"226 -160 OFFCURVE",
"226 -8 CURVE SMOOTH",
"226 546 LINE",
"204 556 LINE",
"66 517 LINE",
"66 488 LINE",
"134 452 LINE"
);
}
);
width = 317;
}
);
unicode = 0135;
userData = {
com.typemytype.robofont.layerData = {
};
};
},
{
glyphname = k;
layers = (
{
layerId = "39185045-6A8C-415A-8312-7B8F11386A4C";
name = Regular;
paths = (
{
closed = 1;
nodes = (
"54 0 LINE",
"298 0 LINE",
"298 42 LINE",
"228 51 LINE",
"228 106 LINE",
"225 201 LINE",
"302 278 LINE",
"463 53 LINE",
"395 42 LINE",
"395 0 LINE",
"632 0 LINE",
"632 42 LINE",
"565 52 LINE",
"359 325 LINE",
"525 492 LINE",
"599 500 LINE",
"599 551 LINE",
"369 551 LINE",
"369 500 LINE",
"442 493 LINE",
"225 269 LINE",
"228 344 LINE",
"228 782 LINE",
"208 793 LINE",
"46 773 LINE",
"46 730 LINE",
"134 713 LINE",
"134 52 LINE",
"54 42 LINE"
);
}
);
width = 622;
}
);
unicode = 006B;
userData = {
com.typemytype.robofont.layerData = {
};
};
},
{
glyphname = kcommaaccent;
layers = (
{
layerId = "39185045-6A8C-415A-8312-7B8F11386A4C";
name = Regular;
paths = (
{
closed = 1;
nodes = (
"54 0 LINE",
"298 0 LINE",
"298 42 LINE",
"228 51 LINE",
"228 106 LINE",
"225 201 LINE",
"302 278 LINE",
"463 53 LINE",
"395 42 LINE",
"395 0 LINE",
"632 0 LINE",
"632 42 LINE",
"565 52 LINE",
"359 325 LINE",
"525 492 LINE",
"599 500 LINE",
"599 551 LINE",
"369 551 LINE",
"369 500 LINE",
"442 493 LINE",
"225 269 LINE",
"228 344 LINE",
"228 782 LINE",
"208 793 LINE",
"46 773 LINE",
"46 730 LINE",
"134 713 LINE",
"134 52 LINE",
"54 42 LINE"
);
},
{
closed = 1;
nodes = (
"292 -71 LINE",
"292 -97 LINE",
"310 -97 OFFCURVE",
"342 -126 OFFCURVE",
"342 -164 CURVE SMOOTH",
"342 -207 OFFCURVE",
"330 -258 OFFCURVE",
"293 -275 CURVE",
"293 -288 LINE",
"320 -313 LINE",
"364 -301 OFFCURVE",
"442 -233 OFFCURVE",
"442 -144 CURVE SMOOTH",
"442 -96 OFFCURVE",
"410 -38 OFFCURVE",
"342 -20 CURVE"
);
}
);
width = 622;
}
);
unicode = 0137;
userData = {
com.typemytype.robofont.layerData = {
};
};
},
{
glyphname = kgreenlandic;
layers = (
{
layerId = "39185045-6A8C-415A-8312-7B8F11386A4C";
name = Regular;
paths = (
{
closed = 1;
nodes = (
"54 0 LINE",
"298 0 LINE",
"298 42 LINE",
"228 51 LINE",
"228 106 LINE",
"225 201 LINE",
"302 278 LINE",
"463 53 LINE",
"395 42 LINE",
"395 0 LINE",
"632 0 LINE",
"632 42 LINE",
"565 52 LINE",
"359 325 LINE",
"525 492 LINE",
"599 500 LINE",
"599 551 LINE",
"369 551 LINE",
"369 500 LINE",
"442 493 LINE",
"225 269 LINE",
"228 344 LINE",
"228 549 LINE",
"208 560 LINE",
"46 540 LINE",
"46 497 LINE",
"134 479 LINE",
"134 52 LINE",
"54 42 LINE"
);
}
);
width = 622;
}
);
unicode = 0138;
userData = {
com.typemytype.robofont.layerData = {
};
};
},
{
glyphname = l;
layers = (
{
layerId = "39185045-6A8C-415A-8312-7B8F11386A4C";
name = Regular;
paths = (
{
closed = 1;
nodes = (
"53 0 LINE",
"317 0 LINE",
"317 42 LINE",
"230 52 LINE",
"230 782 LINE",
"210 793 LINE",
"58 773 LINE",
"58 730 LINE",
"136 713 LINE",
"136 52 LINE",
"53 42 LINE"
);
}
);
width = 341;
}
);
unicode = 006C;
userData = {
com.typemytype.robofont.layerData = {
};
};
},
{
glyphname = ldot;
layers = (
{
layerId = "39185045-6A8C-415A-8312-7B8F11386A4C";
name = Regular;
paths = (
{
closed = 1;
nodes = (
"53 0 LINE",
"317 0 LINE",
"317 42 LINE",
"230 52 LINE",
"230 782 LINE",
"210 793 LINE",
"58 773 LINE",
"58 730 LINE",
"136 713 LINE",
"136 52 LINE",
"53 42 LINE"
);
},
{
closed = 1;
nodes = (
"363 389 CURVE SMOOTH",
"363 352 OFFCURVE",
"393 329 OFFCURVE",
"424 329 CURVE SMOOTH",
"461 329 OFFCURVE",
"498 357 OFFCURVE",
"498 400 CURVE SMOOTH",
"498 433 OFFCURVE",
"479 460 OFFCURVE",
"436 460 CURVE SMOOTH",
"401 460 OFFCURVE",
"363 430 OFFCURVE"
);
}
);
width = 523;
}
);
unicode = 0140;
userData = {
com.typemytype.robofont.layerData = {
};
};
},
{
glyphname = lslash;
layers = (
{
layerId = "39185045-6A8C-415A-8312-7B8F11386A4C";
name = Regular;
paths = (
{
closed = 1;
nodes = (
"53 0 LINE",
"317 0 LINE",
"317 42 LINE",
"230 52 LINE",
"230 410 LINE",
"320 446 LINE",
"320 518 LINE",
"230 480 LINE",
"230 782 LINE",
"210 793 LINE",
"58 773 LINE",
"58 730 LINE",
"136 713 LINE",
"136 442 LINE",
"60 411 LINE",
"60 344 LINE",
"136 374 LINE",
"136 52 LINE",
"53 42 LINE"
);
}
);
width = 341;
}
);
unicode = 0142;
userData = {
com.typemytype.robofont.layerData = {
};
};
},
{
glyphname = m;
lastChange = "2014-08-26 11:01:51 +0100";
layers = (
{
layerId = "39185045-6A8C-415A-8312-7B8F11386A4C";
name = Regular;
paths = (
{
closed = 1;
nodes = (
"67 0 LINE",
"301 0 LINE",
"301 42 LINE",
"229 52 LINE",
"228 150 OFFCURVE",
"229 247 OFFCURVE",
"229 345 CURVE SMOOTH",
"229 434 LINE",
"278 468 OFFCURVE",
"325 483 OFFCURVE",
"360 485 CURVE SMOOTH",
"459 489 OFFCURVE",
"479 438 OFFCURVE",
"479 313 CURVE SMOOTH",
"479 52 LINE",
"406 42 LINE",
"406 0 LINE",
"648 0 LINE",
"648 42 LINE",
"573 51 LINE",
"573 328 LINE SMOOTH",
"573 371 OFFCURVE",
"569 412 OFFCURVE",
"562 443 CURVE",
"604 467 OFFCURVE",
"648 483 OFFCURVE",
"692 485 CURVE SMOOTH",
"792 489 OFFCURVE",
"810 431 OFFCURVE",
"810 306 CURVE SMOOTH",
"810 52 LINE",
"744 42 LINE",
"744 0 LINE",
"986 0 LINE",
"986 42 LINE",
"904 52 LINE",
"904 323 LINE SMOOTH",
"904 491 OFFCURVE",
"863 560 OFFCURVE",
"741 556 CURVE SMOOTH",
"678 554 OFFCURVE",
"593 522 OFFCURVE",
"546 487 CURVE",
"522 540 OFFCURVE",
"480 559 OFFCURVE",
"410 556 CURVE SMOOTH",
"344 554 OFFCURVE",
"260 515 OFFCURVE",
"216 477 CURVE",
"216 546 LINE",
"194 556 LINE",
"64 518 LINE",
"64 487 LINE",
"134 449 LINE",
"134 52 LINE",
"67 42 LINE"
);
}
);
width = 1011;
}
);
leftKerningGroup = n;
unicode = 006D;
userData = {
com.typemytype.robofont.layerData = {
};
};
},
{
glyphname = n;
lastChange = "2014-08-26 11:01:47 +0100";
layers = (
{
layerId = "39185045-6A8C-415A-8312-7B8F11386A4C";
name = Regular;
paths = (
{
closed = 1;
nodes = (
"67 0 LINE",
"301 0 LINE",
"301 42 LINE",
"229 52 LINE",
"229 434 LINE",
"278 468 OFFCURVE",
"323 483 OFFCURVE",
"363 485 CURVE SMOOTH",
"462 489 OFFCURVE",
"481 430 OFFCURVE",
"481 310 CURVE SMOOTH",
"481 52 LINE",
"407 42 LINE",
"407 0 LINE",
"653 0 LINE",
"653 42 LINE",
"575 51 LINE",
"575 327 LINE SMOOTH",
"575 491 OFFCURVE",
"534 560 OFFCURVE",
"413 556 CURVE SMOOTH",
"346 554 OFFCURVE",
"261 515 OFFCURVE",
"216 477 CURVE",
"216 546 LINE",
"194 556 LINE",
"64 518 LINE",
"64 487 LINE",
"134 449 LINE",
"134 51 LINE",
"67 42 LINE"
);
}
);
width = 682;
}
);
leftKerningGroup = n;
unicode = 006E;
userData = {
com.typemytype.robofont.layerData = {
};
};
},
{
glyphname = nacute;
layers = (
{
layerId = "39185045-6A8C-415A-8312-7B8F11386A4C";
name = Regular;
paths = (
{
closed = 1;
nodes = (
"322 654 LINE",
"375 679 OFFCURVE",
"472 736 OFFCURVE",
"511 796 CURVE",
"440 869 LINE",
"296 681 LINE"
);
},
{
closed = 1;
nodes = (
"67 0 LINE",
"301 0 LINE",
"301 42 LINE",
"229 52 LINE",
"229 434 LINE",
"278 468 OFFCURVE",
"323 483 OFFCURVE",
"363 485 CURVE SMOOTH",
"462 489 OFFCURVE",
"481 430 OFFCURVE",
"481 310 CURVE SMOOTH",
"481 52 LINE",
"407 42 LINE",
"407 0 LINE",
"653 0 LINE",
"653 42 LINE",
"575 51 LINE",
"575 327 LINE SMOOTH",
"575 491 OFFCURVE",
"534 560 OFFCURVE",
"413 556 CURVE SMOOTH",
"346 554 OFFCURVE",
"261 515 OFFCURVE",
"216 477 CURVE",
"216 546 LINE",
"194 556 LINE",
"64 518 LINE",
"64 487 LINE",
"134 449 LINE",
"134 51 LINE",
"67 42 LINE"
);
}
);
width = 682;
}
);
unicode = 0144;
userData = {
com.typemytype.robofont.layerData = {
};
};
},
{
glyphname = ntilde;
layers = (
{
layerId = "39185045-6A8C-415A-8312-7B8F11386A4C";
name = Regular;
paths = (
{
closed = 1;
nodes = (
"198 692 LINE",
"218 712 OFFCURVE",
"250 738 OFFCURVE",
"288 738 CURVE SMOOTH",
"336 738 OFFCURVE",
"351 672 OFFCURVE",
"415 672 CURVE SMOOTH",
"467 672 OFFCURVE",
"525 712 OFFCURVE",
"550 758 CURVE",
"525 793 LINE",
"504 773 OFFCURVE",
"472 747 OFFCURVE",
"435 747 CURVE SMOOTH",
"387 747 OFFCURVE",
"371 813 OFFCURVE",
"308 813 CURVE SMOOTH",
"256 813 OFFCURVE",
"197 772 OFFCURVE",
"172 728 CURVE"
);
},
{
closed = 1;
nodes = (
"67 0 LINE",
"301 0 LINE",
"301 42 LINE",
"229 52 LINE",
"229 434 LINE",
"278 468 OFFCURVE",
"323 483 OFFCURVE",
"363 485 CURVE SMOOTH",
"462 489 OFFCURVE",
"481 430 OFFCURVE",
"481 310 CURVE SMOOTH",
"481 52 LINE",
"407 42 LINE",
"407 0 LINE",
"653 0 LINE",
"653 42 LINE",
"575 51 LINE",
"575 327 LINE SMOOTH",
"575 491 OFFCURVE",
"534 560 OFFCURVE",
"413 556 CURVE SMOOTH",
"346 554 OFFCURVE",
"261 515 OFFCURVE",
"216 477 CURVE",
"216 546 LINE",
"194 556 LINE",
"64 518 LINE",
"64 487 LINE",
"134 449 LINE",
"134 51 LINE",
"67 42 LINE"
);
}
);
width = 682;
}
);
unicode = 00F1;
userData = {
com.typemytype.robofont.layerData = {
};
};
},
{
glyphname = o;
lastChange = "2014-08-26 11:02:44 +0100";
layers = (
{
layerId = "39185045-6A8C-415A-8312-7B8F11386A4C";
name = Regular;
paths = (
{
closed = 1;
nodes = (
"50 284 CURVE SMOOTH",
"48 129 OFFCURVE",
"119 -12 OFFCURVE",
"298 -12 CURVE SMOOTH",
"438 -12 OFFCURVE",
"551 106 OFFCURVE",
"553 280 CURVE SMOOTH",
"554 438 OFFCURVE",
"476 564 OFFCURVE",
"310 563 CURVE SMOOTH",
"175 561 OFFCURVE",
"53 458 OFFCURVE"
);
},
{
closed = 1;
nodes = (
"302 43 CURVE SMOOTH",
"199 45 OFFCURVE",
"150 162 OFFCURVE",
"150 289 CURVE SMOOTH",
"150 429 OFFCURVE",
"194 513 OFFCURVE",
"304 511 CURVE SMOOTH",
"408 509 OFFCURVE",
"453 407 OFFCURVE",
"453 275 CURVE SMOOTH",
"453 125 OFFCURVE",
"413 41 OFFCURVE"
);
}
);
width = 601;
}
);
leftKerningGroup = o;
unicode = 006F;
userData = {
com.typemytype.robofont.layerData = {
};
};
},
{
glyphname = oacute;
layers = (
{
layerId = "39185045-6A8C-415A-8312-7B8F11386A4C";
name = Regular;
paths = (
{
closed = 1;
nodes = (
"264 654 LINE",
"317 679 OFFCURVE",
"414 736 OFFCURVE",
"453 796 CURVE",
"382 869 LINE",
"238 681 LINE"
);
},
{
closed = 1;
nodes = (
"50 284 CURVE SMOOTH",
"48 129 OFFCURVE",
"119 -12 OFFCURVE",
"298 -12 CURVE SMOOTH",
"438 -12 OFFCURVE",
"551 106 OFFCURVE",
"553 280 CURVE SMOOTH",
"554 438 OFFCURVE",
"476 564 OFFCURVE",
"310 563 CURVE SMOOTH",
"175 561 OFFCURVE",
"53 458 OFFCURVE"
);
},
{
closed = 1;
nodes = (
"302 43 CURVE SMOOTH",
"199 45 OFFCURVE",
"150 162 OFFCURVE",
"150 289 CURVE SMOOTH",
"150 429 OFFCURVE",
"194 513 OFFCURVE",
"304 511 CURVE SMOOTH",
"408 509 OFFCURVE",
"453 407 OFFCURVE",
"453 275 CURVE SMOOTH",
"453 125 OFFCURVE",
"413 41 OFFCURVE"
);
}
);
width = 601;
}
);
unicode = 00F3;
userData = {
com.typemytype.robofont.layerData = {
};
};
},
{
glyphname = ocircumflex;
layers = (
{
layerId = "39185045-6A8C-415A-8312-7B8F11386A4C";
name = Regular;
paths = (
{
closed = 1;
nodes = (
"167 652 LINE",
"309 783 LINE",
"442 652 LINE",
"483 675 LINE",
"355 867 LINE",
"263 867 LINE",
"130 674 LINE"
);
},
{
closed = 1;
nodes = (
"50 284 CURVE SMOOTH",
"48 129 OFFCURVE",
"119 -12 OFFCURVE",
"298 -12 CURVE SMOOTH",
"438 -12 OFFCURVE",
"551 106 OFFCURVE",
"553 280 CURVE SMOOTH",
"554 438 OFFCURVE",
"476 564 OFFCURVE",
"310 563 CURVE SMOOTH",
"175 561 OFFCURVE",
"53 458 OFFCURVE"
);
},
{
closed = 1;
nodes = (
"302 43 CURVE SMOOTH",
"199 45 OFFCURVE",
"150 162 OFFCURVE",
"150 289 CURVE SMOOTH",
"150 429 OFFCURVE",
"194 513 OFFCURVE",
"304 511 CURVE SMOOTH",
"408 509 OFFCURVE",
"453 407 OFFCURVE",
"453 275 CURVE SMOOTH",
"453 125 OFFCURVE",
"413 41 OFFCURVE"
);
}
);
width = 601;
}
);
unicode = 00F4;
userData = {
com.typemytype.robofont.layerData = {
};
};
},
{
glyphname = odieresis;
layers = (
{
layerId = "39185045-6A8C-415A-8312-7B8F11386A4C";
name = Regular;
paths = (
{
closed = 1;
nodes = (
"417 675 CURVE SMOOTH",
"453 675 OFFCURVE",
"490 701 OFFCURVE",
"490 744 CURVE SMOOTH",
"490 777 OFFCURVE",
"471 804 OFFCURVE",
"428 804 CURVE SMOOTH",
"393 804 OFFCURVE",
"356 774 OFFCURVE",
"356 733 CURVE SMOOTH",
"356 696 OFFCURVE",
"385 675 OFFCURVE"
);
},
{
closed = 1;
nodes = (
"189 675 CURVE SMOOTH",
"226 675 OFFCURVE",
"262 701 OFFCURVE",
"262 744 CURVE SMOOTH",
"262 777 OFFCURVE",
"243 804 OFFCURVE",
"200 804 CURVE SMOOTH",
"166 804 OFFCURVE",
"128 774 OFFCURVE",
"128 733 CURVE SMOOTH",
"128 696 OFFCURVE",
"157 675 OFFCURVE"
);
},
{
closed = 1;
nodes = (
"50 284 CURVE SMOOTH",
"48 129 OFFCURVE",
"119 -12 OFFCURVE",
"298 -12 CURVE SMOOTH",
"438 -12 OFFCURVE",
"551 106 OFFCURVE",
"553 280 CURVE SMOOTH",
"554 438 OFFCURVE",
"476 564 OFFCURVE",
"310 563 CURVE SMOOTH",
"175 561 OFFCURVE",
"53 458 OFFCURVE"
);
},
{
closed = 1;
nodes = (
"302 43 CURVE SMOOTH",
"199 45 OFFCURVE",
"150 162 OFFCURVE",
"150 289 CURVE SMOOTH",
"150 429 OFFCURVE",
"194 513 OFFCURVE",
"304 511 CURVE SMOOTH",
"408 509 OFFCURVE",
"453 407 OFFCURVE",
"453 275 CURVE SMOOTH",
"453 125 OFFCURVE",
"413 41 OFFCURVE"
);
}
);
width = 601;
}
);
unicode = 00F6;
userData = {
com.typemytype.robofont.layerData = {
};
};
},
{
glyphname = ograve;
layers = (
{
layerId = "39185045-6A8C-415A-8312-7B8F11386A4C";
name = Regular;
paths = (
{
closed = 1;
nodes = (
"396 681 LINE",
"252 869 LINE",
"181 796 LINE",
"220 736 OFFCURVE",
"316 679 OFFCURVE",
"370 654 CURVE"
);
},
{
closed = 1;
nodes = (
"50 284 CURVE SMOOTH",
"48 129 OFFCURVE",
"119 -12 OFFCURVE",
"298 -12 CURVE SMOOTH",
"438 -12 OFFCURVE",
"551 106 OFFCURVE",
"553 280 CURVE SMOOTH",
"554 438 OFFCURVE",
"476 564 OFFCURVE",
"310 563 CURVE SMOOTH",
"175 561 OFFCURVE",
"53 458 OFFCURVE"
);
},
{
closed = 1;
nodes = (
"302 43 CURVE SMOOTH",
"199 45 OFFCURVE",
"150 162 OFFCURVE",
"150 289 CURVE SMOOTH",
"150 429 OFFCURVE",
"194 513 OFFCURVE",
"304 511 CURVE SMOOTH",
"408 509 OFFCURVE",
"453 407 OFFCURVE",
"453 275 CURVE SMOOTH",
"453 125 OFFCURVE",
"413 41 OFFCURVE"
);
}
);
width = 601;
}
);
unicode = 00F2;
userData = {
com.typemytype.robofont.layerData = {
};
};
},
{
glyphname = oslash;
layers = (
{
layerId = "39185045-6A8C-415A-8312-7B8F11386A4C";
name = Regular;
paths = (
{
closed = 1;
nodes = (
"160 -79 LINE",
"202 -95 LINE",
"232 -4 LINE",
"252 -9 OFFCURVE",
"273 -12 OFFCURVE",
"297 -12 CURVE SMOOTH",
"438 -12 OFFCURVE",
"551 106 OFFCURVE",
"552 280 CURVE SMOOTH",
"554 396 OFFCURVE",
"509 497 OFFCURVE",
"419 540 CURVE",
"446 621 LINE",
"407 636 LINE",
"379 555 LINE",
"358 560 OFFCURVE",
"335 563 OFFCURVE",
"310 563 CURVE SMOOTH",
"174 561 OFFCURVE",
"52 458 OFFCURVE",
"50 284 CURVE SMOOTH",
"48 165 OFFCURVE",
"89 54 OFFCURVE",
"190 9 CURVE"
);
},
{
closed = 1;
nodes = (
"216 80 LINE",
"171 125 OFFCURVE",
"150 205 OFFCURVE",
"150 289 CURVE SMOOTH",
"150 429 OFFCURVE",
"193 513 OFFCURVE",
"304 511 CURVE SMOOTH",
"323 511 OFFCURVE",
"341 507 OFFCURVE",
"357 499 CURVE"
);
},
{
closed = 1;
nodes = (
"394 472 LINE",
"435 431 OFFCURVE",
"452 359 OFFCURVE",
"452 275 CURVE SMOOTH",
"452 125 OFFCURVE",
"412 41 OFFCURVE",
"302 43 CURVE SMOOTH",
"284 43 OFFCURVE",
"268 47 OFFCURVE",
"253 54 CURVE"
);
}
);
width = 601;
}
);
unicode = 00F8;
userData = {
com.typemytype.robofont.layerData = {
};
};
},
{
glyphname = otilde;
layers = (
{
layerId = "39185045-6A8C-415A-8312-7B8F11386A4C";
name = Regular;
paths = (
{
closed = 1;
nodes = (
"140 692 LINE",
"160 712 OFFCURVE",
"192 738 OFFCURVE",
"230 738 CURVE SMOOTH",
"278 738 OFFCURVE",
"293 672 OFFCURVE",
"357 672 CURVE SMOOTH",
"409 672 OFFCURVE",
"467 712 OFFCURVE",
"492 758 CURVE",
"467 793 LINE",
"446 773 OFFCURVE",
"414 747 OFFCURVE",
"376 747 CURVE SMOOTH",
"329 747 OFFCURVE",
"313 813 OFFCURVE",
"250 813 CURVE SMOOTH",
"198 813 OFFCURVE",
"139 772 OFFCURVE",
"114 728 CURVE"
);
},
{
closed = 1;
nodes = (
"50 284 CURVE SMOOTH",
"48 129 OFFCURVE",
"119 -12 OFFCURVE",
"298 -12 CURVE SMOOTH",
"438 -12 OFFCURVE",
"551 106 OFFCURVE",
"553 280 CURVE SMOOTH",
"554 438 OFFCURVE",
"476 564 OFFCURVE",
"310 563 CURVE SMOOTH",
"175 561 OFFCURVE",
"53 458 OFFCURVE"
);
},
{
closed = 1;
nodes = (
"302 43 CURVE SMOOTH",
"199 45 OFFCURVE",
"150 162 OFFCURVE",
"150 289 CURVE SMOOTH",
"150 429 OFFCURVE",
"194 513 OFFCURVE",
"304 511 CURVE SMOOTH",
"408 509 OFFCURVE",
"453 407 OFFCURVE",
"453 275 CURVE SMOOTH",
"453 125 OFFCURVE",
"413 41 OFFCURVE"
);
}
);
width = 601;
}
);
unicode = 00F5;
userData = {
com.typemytype.robofont.layerData = {
};
};
},
{
glyphname = oe;
layers = (
{
layerId = "39185045-6A8C-415A-8312-7B8F11386A4C";
name = Regular;
paths = (
{
closed = 1;
nodes = (
"50 284 CURVE SMOOTH",
"48 129 OFFCURVE",
"119 -12 OFFCURVE",
"298 -12 CURVE SMOOTH",
"388 -12 OFFCURVE",
"466 37 OFFCURVE",
"512 118 CURVE",
"550 36 OFFCURVE",
"623 -12 OFFCURVE",
"727 -12 CURVE SMOOTH",
"801 -12 OFFCURVE",
"888 9 OFFCURVE",
"926 43 CURVE",
"908 84 LINE",
"880 68 OFFCURVE",
"814 55 OFFCURVE",
"764 55 CURVE SMOOTH",
"680 55 OFFCURVE",
"580 97 OFFCURVE",
"575 255 CURVE",
"574 259 OFFCURVE",
"574 262 OFFCURVE",
"574 266 CURVE",
"936 266 LINE",
"939 290 OFFCURVE",
"943 318 OFFCURVE",
"942 359 CURVE SMOOTH",
"937 488 OFFCURVE",
"866 565 OFFCURVE",
"751 563 CURVE SMOOTH",
"649 560 OFFCURVE",
"569 512 OFFCURVE",
"522 434 CURVE",
"486 512 OFFCURVE",
"416 564 OFFCURVE",
"310 563 CURVE SMOOTH",
"175 561 OFFCURVE",
"53 458 OFFCURVE"
);
},
{
closed = 1;
nodes = (
"302 43 CURVE SMOOTH",
"199 45 OFFCURVE",
"150 162 OFFCURVE",
"150 289 CURVE SMOOTH",
"150 429 OFFCURVE",
"194 513 OFFCURVE",
"304 511 CURVE SMOOTH",
"408 509 OFFCURVE",
"453 407 OFFCURVE",
"453 275 CURVE SMOOTH",
"453 125 OFFCURVE",
"413 41 OFFCURVE"
);
},
{
closed = 1;
nodes = (
"575 324 LINE",
"585 458 OFFCURVE",
"652 510 OFFCURVE",
"726 510 CURVE SMOOTH",
"753 510 OFFCURVE",
"774 505 OFFCURVE",
"791 494 CURVE SMOOTH",
"841 462 OFFCURVE",
"846 390 OFFCURVE",
"842 324 CURVE"
);
}
);
width = 990;
}
);
unicode = 0153;
userData = {
com.typemytype.robofont.layerData = {
};
};
},
{
glyphname = p;
lastChange = "2014-08-26 11:03:01 +0100";
layers = (
{
layerId = "39185045-6A8C-415A-8312-7B8F11386A4C";
name = Regular;
paths = (
{
closed = 1;
nodes = (
"61 -208 LINE",
"61 -250 LINE",
"318 -250 LINE",
"318 -208 LINE",
"223 -198 LINE",
"223 -127 LINE",
"220 4 LINE",
"251 -4 OFFCURVE",
"283 -11 OFFCURVE",
"319 -11 CURVE SMOOTH",
"484 -11 OFFCURVE",
"598 124 OFFCURVE",
"598 291 CURVE SMOOTH",
"598 490 OFFCURVE",
"493 563 OFFCURVE",
"383 563 CURVE SMOOTH",
"302 563 OFFCURVE",
"239 521 OFFCURVE",
"211 489 CURVE",
"211 546 LINE",
"189 556 LINE",
"60 518 LINE",
"60 487 LINE",
"129 449 LINE",
"129 -197 LINE"
);
},
{
closed = 1;
nodes = (
"223 259 LINE",
"222 449 LINE",
"243 467 OFFCURVE",
"283 500 OFFCURVE",
"344 500 CURVE SMOOTH",
"426 500 OFFCURVE",
"507 442 OFFCURVE",
"504 278 CURVE SMOOTH",
"502 106 OFFCURVE",
"415 40 OFFCURVE",
"331 40 CURVE SMOOTH",
"274 40 OFFCURVE",
"238 57 OFFCURVE",
"223 83 CURVE"
);
}
);
width = 646;
}
);
leftKerningGroup = n;
unicode = 0070;
userData = {
com.typemytype.robofont.layerData = {
};
};
},
{
glyphname = thorn;
layers = (
{
layerId = "39185045-6A8C-415A-8312-7B8F11386A4C";
name = Regular;
paths = (
{
closed = 1;
nodes = (
"190 -4 LINE",
"221 -10 OFFCURVE",
"255 -14 OFFCURVE",
"292 -14 CURVE SMOOTH",
"457 -14 OFFCURVE",
"568 129 OFFCURVE",
"568 295 CURVE SMOOTH",
"568 490 OFFCURVE",
"461 563 OFFCURVE",
"352 563 CURVE SMOOTH",
"276 563 OFFCURVE",
"228 530 OFFCURVE",
"193 500 CURVE",
"193 785 LINE",
"173 793 LINE",
"16 776 LINE",
"16 733 LINE",
"99 716 LINE",
"99 -197 LINE",
"31 -208 LINE",
"31 -250 LINE",
"289 -250 LINE",
"289 -208 LINE",
"193 -198 LINE",
"192 -50 LINE"
);
},
{
closed = 1;
nodes = (
"193 449 LINE",
"214 469 OFFCURVE",
"256 495 OFFCURVE",
"313 495 CURVE SMOOTH",
"394 495 OFFCURVE",
"478 435 OFFCURVE",
"475 278 CURVE SMOOTH",
"473 111 OFFCURVE",
"388 38 OFFCURVE",
"303 38 CURVE SMOOTH",
"247 38 OFFCURVE",
"203 50 OFFCURVE",
"193 77 CURVE"
);
}
);
width = 617;
}
);
unicode = 00FE;
userData = {
com.typemytype.robofont.layerData = {
};
};
},
{
glyphname = q;
layers = (
{
layerId = "39185045-6A8C-415A-8312-7B8F11386A4C";
name = Regular;
paths = (
{
closed = 1;
nodes = (
"262 -14 CURVE SMOOTH",
"351 -14 OFFCURVE",
"405 30 OFFCURVE",
"427 52 CURVE",
"424 -23 LINE",
"424 -193 LINE",
"324 -203 LINE",
"324 -250 LINE",
"584 -250 LINE",
"584 -203 LINE",
"518 -193 LINE",
"518 547 LINE",
"499 557 LINE",
"440 545 LINE",
"417 555 OFFCURVE",
"377 563 OFFCURVE",
"338 563 CURVE SMOOTH",
"168 563 OFFCURVE",
"49 433 OFFCURVE",
"49 267 CURVE SMOOTH",
"49 23 OFFCURVE",
"192 -14 OFFCURVE"
);
},
{
closed = 1;
nodes = (
"296 54 CURVE SMOOTH",
"201 54 OFFCURVE",
"140 132 OFFCURVE",
"142 283 CURVE SMOOTH",
"145 435 OFFCURVE",
"222 511 OFFCURVE",
"322 511 CURVE SMOOTH",
"365 511 OFFCURVE",
"401 501 OFFCURVE",
"424 472 CURVE",
"424 100 LINE",
"402 78 OFFCURVE",
"358 54 OFFCURVE"
);
}
);
width = 606;
}
);
unicode = 0071;
userData = {
com.typemytype.robofont.layerData = {
};
};
},
{
glyphname = r;
lastChange = "2014-08-26 11:06:11 +0100";
layers = (
{
layerId = "39185045-6A8C-415A-8312-7B8F11386A4C";
name = Regular;
paths = (
{
closed = 1;
nodes = (
"55 0 LINE",
"368 0 LINE",
"368 42 LINE",
"229 53 LINE",
"229 435 LINE",
"258 454 OFFCURVE",
"292 469 OFFCURVE",
"344 469 CURVE SMOOTH",
"389 469 OFFCURVE",
"409 460 OFFCURVE",
"431 453 CURVE",
"431 553 LINE",
"423 555 OFFCURVE",
"405 556 OFFCURVE",
"383 556 CURVE SMOOTH",
"323 556 OFFCURVE",
"241 508 OFFCURVE",
"216 471 CURVE",
"216 546 LINE",
"193 556 LINE",
"64 518 LINE",
"64 487 LINE",
"134 449 LINE",
"134 52 LINE",
"55 42 LINE"
);
}
);
width = 451;
}
);
leftKerningGroup = n;
unicode = 0072;
userData = {
com.typemytype.robofont.layerData = {
};
};
},
{
glyphname = rcaron;
layers = (
{
layerId = "39185045-6A8C-415A-8312-7B8F11386A4C";
name = Regular;
paths = (
{
closed = 1;
nodes = (
"238 652 LINE",
"331 652 LINE",
"459 844 LINE",
"422 867 LINE",
"285 736 LINE",
"147 866 LINE",
"105 844 LINE"
);
},
{
closed = 1;
nodes = (
"55 0 LINE",
"368 0 LINE",
"368 42 LINE",
"229 53 LINE",
"229 435 LINE",
"258 454 OFFCURVE",
"292 469 OFFCURVE",
"344 469 CURVE SMOOTH",
"389 469 OFFCURVE",
"409 460 OFFCURVE",
"431 453 CURVE",
"431 553 LINE",
"423 555 OFFCURVE",
"405 556 OFFCURVE",
"383 556 CURVE SMOOTH",
"323 556 OFFCURVE",
"241 508 OFFCURVE",
"216 471 CURVE",
"216 546 LINE",
"193 556 LINE",
"64 518 LINE",
"64 487 LINE",
"134 449 LINE",
"134 52 LINE",
"55 42 LINE"
);
}
);
width = 451;
}
);
unicode = 0159;
userData = {
com.typemytype.robofont.layerData = {
};
};
},
{
glyphname = rcommaaccent;
layers = (
{
layerId = "39185045-6A8C-415A-8312-7B8F11386A4C";
name = Regular;
paths = (
{
closed = 1;
nodes = (
"55 0 LINE",
"368 0 LINE",
"368 42 LINE",
"229 53 LINE",
"229 435 LINE",
"258 454 OFFCURVE",
"292 469 OFFCURVE",
"344 469 CURVE SMOOTH",
"389 469 OFFCURVE",
"409 460 OFFCURVE",
"431 453 CURVE",
"431 553 LINE",
"423 555 OFFCURVE",
"405 556 OFFCURVE",
"383 556 CURVE SMOOTH",
"323 556 OFFCURVE",
"241 508 OFFCURVE",
"216 471 CURVE",
"216 546 LINE",
"193 556 LINE",
"64 518 LINE",
"64 487 LINE",
"134 449 LINE",
"134 52 LINE",
"55 42 LINE"
);
},
{
closed = 1;
nodes = (
"129 -71 LINE",
"129 -97 LINE",
"146 -97 OFFCURVE",
"179 -126 OFFCURVE",
"179 -164 CURVE SMOOTH",
"179 -207 OFFCURVE",
"167 -258 OFFCURVE",
"129 -275 CURVE",
"129 -288 LINE",
"157 -313 LINE",
"200 -301 OFFCURVE",
"279 -233 OFFCURVE",
"279 -144 CURVE SMOOTH",
"279 -96 OFFCURVE",
"247 -38 OFFCURVE",
"179 -20 CURVE"
);
}
);
width = 451;
}
);
unicode = 0157;
userData = {
com.typemytype.robofont.layerData = {
};
};
},
{
glyphname = s;
lastChange = "2014-08-26 11:03:41 +0100";
layers = (
{
layerId = "39185045-6A8C-415A-8312-7B8F11386A4C";
name = Regular;
paths = (
{
closed = 1;
nodes = (
"82 30 LINE",
"131 2 OFFCURVE",
"193 -12 OFFCURVE",
"252 -12 CURVE SMOOTH",
"371 -12 OFFCURVE",
"466 44 OFFCURVE",
"466 155 CURVE SMOOTH",
"466 248 OFFCURVE",
"384 281 OFFCURVE",
"312 315 CURVE SMOOTH",
"244 348 OFFCURVE",
"174 373 OFFCURVE",
"176 432 CURVE SMOOTH",
"178 490 OFFCURVE",
"224 514 OFFCURVE",
"286 514 CURVE SMOOTH",
"329 514 OFFCURVE",
"353 498 OFFCURVE",
"371 479 CURVE",
"392 424 LINE",
"433 424 LINE",
"433 529 LINE",
"403 546 OFFCURVE",
"346 564 OFFCURVE",
"281 563 CURVE SMOOTH",
"193 561 OFFCURVE",
"88 516 OFFCURVE",
"86 415 CURVE SMOOTH",
"84 329 OFFCURVE",
"160 281 OFFCURVE",
"237 245 CURVE SMOOTH",
"306 211 OFFCURVE",
"376 192 OFFCURVE",
"376 133 CURVE SMOOTH",
"376 68 OFFCURVE",
"324 39 OFFCURVE",
"251 41 CURVE SMOOTH",
"206 42 OFFCURVE",
"177 55 OFFCURVE",
"145 82 CURVE",
"125 142 LINE",
"82 142 LINE"
);
}
);
width = 512;
}
);
leftKerningGroup = s;
unicode = 0073;
userData = {
com.typemytype.robofont.layerData = {
};
};
},
{
glyphname = scaron;
layers = (
{
layerId = "39185045-6A8C-415A-8312-7B8F11386A4C";
name = Regular;
paths = (
{
closed = 1;
nodes = (
"209 652 LINE",
"301 652 LINE",
"430 844 LINE",
"393 867 LINE",
"255 736 LINE",
"118 866 LINE",
"76 844 LINE"
);
},
{
closed = 1;
nodes = (
"80 30 LINE",
"129 2 OFFCURVE",
"191 -12 OFFCURVE",
"250 -12 CURVE SMOOTH",
"369 -12 OFFCURVE",
"463 44 OFFCURVE",
"463 155 CURVE SMOOTH",
"463 248 OFFCURVE",
"381 281 OFFCURVE",
"310 315 CURVE SMOOTH",
"241 348 OFFCURVE",
"171 373 OFFCURVE",
"174 432 CURVE SMOOTH",
"175 490 OFFCURVE",
"222 514 OFFCURVE",
"284 514 CURVE SMOOTH",
"326 514 OFFCURVE",
"351 498 OFFCURVE",
"368 479 CURVE",
"389 424 LINE",
"431 424 LINE",
"431 529 LINE",
"400 546 OFFCURVE",
"344 564 OFFCURVE",
"278 563 CURVE SMOOTH",
"191 561 OFFCURVE",
"85 516 OFFCURVE",
"83 415 CURVE SMOOTH",
"82 329 OFFCURVE",
"157 281 OFFCURVE",
"235 245 CURVE SMOOTH",
"304 211 OFFCURVE",
"374 192 OFFCURVE",
"374 133 CURVE SMOOTH",
"374 68 OFFCURVE",
"321 39 OFFCURVE",
"249 41 CURVE SMOOTH",
"203 42 OFFCURVE",
"175 55 OFFCURVE",
"142 82 CURVE",
"123 142 LINE",
"80 142 LINE"
);
}
);
width = 497;
}
);
unicode = 0161;
userData = {
com.typemytype.robofont.layerData = {
};
};
},
{
glyphname = germandbls;
layers = (
{
layerId = "39185045-6A8C-415A-8312-7B8F11386A4C";
name = Regular;
paths = (
{
closed = 1;
nodes = (
"33 0 LINE",
"204 0 LINE",
"204 429 LINE SMOOTH",
"204 646 OFFCURVE",
"241 717 OFFCURVE",
"348 717 CURVE SMOOTH",
"414 717 OFFCURVE",
"442 663 OFFCURVE",
"442 598 CURVE SMOOTH",
"442 502 OFFCURVE",
"339 423 OFFCURVE",
"339 356 CURVE SMOOTH",
"339 234 OFFCURVE",
"549 236 OFFCURVE",
"549 135 CURVE SMOOTH",
"549 63 OFFCURVE",
"497 44 OFFCURVE",
"444 44 CURVE SMOOTH",
"407 44 OFFCURVE",
"354 70 OFFCURVE",
"329 83 CURVE",
"329 -1 LINE",
"368 -10 OFFCURVE",
"408 -10 OFFCURVE",
"437 -10 CURVE SMOOTH",
"543 -10 OFFCURVE",
"639 37 OFFCURVE",
"639 151 CURVE SMOOTH",
"639 307 OFFCURVE",
"429 292 OFFCURVE",
"429 393 CURVE SMOOTH",
"429 482 OFFCURVE",
"526 512 OFFCURVE",
"526 631 CURVE SMOOTH",
"526 743 OFFCURVE",
"449 775 OFFCURVE",
"374 775 CURVE SMOOTH",
"237 775 OFFCURVE",
"111 667 OFFCURVE",
"111 429 CURVE SMOOTH",
"111 57 LINE",
"33 42 LINE"
);
}
);
width = 651;
}
);
unicode = 00DF;
userData = {
com.typemytype.robofont.layerData = {
};
};
},
{
glyphname = t;
lastChange = "2014-08-26 11:03:58 +0100";
layers = (
{
layerId = "39185045-6A8C-415A-8312-7B8F11386A4C";
name = Regular;
paths = (
{
closed = 1;
nodes = (
"129 128 CURVE SMOOTH",
"129 29 OFFCURVE",
"170 -12 OFFCURVE",
"241 -12 CURVE SMOOTH",
"286 -12 OFFCURVE",
"363 6 OFFCURVE",
"393 38 CURVE",
"377 81 LINE",
"362 71 OFFCURVE",
"311 57 OFFCURVE",
"278 57 CURVE SMOOTH",
"226 57 OFFCURVE",
"221 88 OFFCURVE",
"221 239 CURVE SMOOTH",
"221 485 LINE",
"385 485 LINE",
"385 546 LINE",
"221 546 LINE",
"221 677 LINE",
"173 677 LINE",
"170 660 OFFCURVE",
"151 589 OFFCURVE",
"142 566 CURVE SMOOTH",
"128 534 OFFCURVE",
"112 536 OFFCURVE",
"55 521 CURVE",
"55 485 LINE",
"129 485 LINE",
"129 365 OFFCURVE",
"129 248 OFFCURVE"
);
}
);
width = 421;
}
);
leftKerningGroup = t;
unicode = 0074;
userData = {
com.typemytype.robofont.layerData = {
};
};
},
{
glyphname = u;
lastChange = "2014-08-26 11:04:26 +0100";
layers = (
{
layerId = "39185045-6A8C-415A-8312-7B8F11386A4C";
name = Regular;
paths = (
{
closed = 1;
nodes = (
"104 225 LINE SMOOTH",
"106 90 OFFCURVE",
"112 -10 OFFCURVE",
"266 -10 CURVE SMOOTH",
"325 -10 OFFCURVE",
"390 16 OFFCURVE",
"446 65 CURVE",
"446 25 LINE SMOOTH",
"446 -4 OFFCURVE",
"465 -17 OFFCURVE",
"497 -17 CURVE SMOOTH",
"527 -17 OFFCURVE",
"569 -6 OFFCURVE",
"588 4 CURVE",
"588 42 LINE",
"529 42 LINE",
"529 548 LINE",
"516 556 LINE",
"376 528 LINE",
"376 488 LINE",
"437 473 LINE",
"437 112 LINE",
"420 94 OFFCURVE",
"360 57 OFFCURVE",
"302 57 CURVE SMOOTH",
"216 57 OFFCURVE",
"197 104 OFFCURVE",
"197 211 CURVE SMOOTH",
"197 547 LINE",
"180 556 LINE",
"54 529 LINE",
"54 492 LINE",
"104 477 LINE"
);
}
);
width = 631;
}
);
leftKerningGroup = u;
unicode = 0075;
userData = {
com.typemytype.robofont.layerData = {
};
};
},
{
glyphname = uacute;
layers = (
{
layerId = "39185045-6A8C-415A-8312-7B8F11386A4C";
name = Regular;
paths = (
{
closed = 1;
nodes = (
"258 654 LINE",
"312 679 OFFCURVE",
"408 736 OFFCURVE",
"447 796 CURVE",
"376 869 LINE",
"232 681 LINE"
);
},
{
closed = 1;
nodes = (
"104 225 LINE SMOOTH",
"106 90 OFFCURVE",
"112 -10 OFFCURVE",
"266 -10 CURVE SMOOTH",
"325 -10 OFFCURVE",
"390 16 OFFCURVE",
"446 65 CURVE",
"446 25 LINE SMOOTH",
"446 -4 OFFCURVE",
"465 -17 OFFCURVE",
"497 -17 CURVE SMOOTH",
"527 -17 OFFCURVE",
"569 -6 OFFCURVE",
"588 4 CURVE",
"588 42 LINE",
"529 42 LINE",
"529 548 LINE",
"516 556 LINE",
"376 528 LINE",
"376 488 LINE",
"437 473 LINE",
"437 112 LINE",
"420 94 OFFCURVE",
"360 57 OFFCURVE",
"302 57 CURVE SMOOTH",
"216 57 OFFCURVE",
"197 104 OFFCURVE",
"197 211 CURVE SMOOTH",
"197 547 LINE",
"180 556 LINE",
"54 529 LINE",
"54 492 LINE",
"104 477 LINE"
);
}
);
width = 631;
}
);
unicode = 00FA;
userData = {
com.typemytype.robofont.layerData = {
};
};
},
{
glyphname = ucircumflex;
layers = (
{
layerId = "39185045-6A8C-415A-8312-7B8F11386A4C";
name = Regular;
paths = (
{
closed = 1;
nodes = (
"161 652 LINE",
"303 783 LINE",
"436 652 LINE",
"478 675 LINE",
"350 867 LINE",
"257 867 LINE",
"124 674 LINE"
);
},
{
closed = 1;
nodes = (
"104 225 LINE SMOOTH",
"106 90 OFFCURVE",
"112 -10 OFFCURVE",
"266 -10 CURVE SMOOTH",
"325 -10 OFFCURVE",
"390 16 OFFCURVE",
"446 65 CURVE",
"446 25 LINE SMOOTH",
"446 -4 OFFCURVE",
"465 -17 OFFCURVE",
"497 -17 CURVE SMOOTH",
"527 -17 OFFCURVE",
"569 -6 OFFCURVE",
"588 4 CURVE",
"588 42 LINE",
"529 42 LINE",
"529 548 LINE",
"516 556 LINE",
"376 528 LINE",
"376 488 LINE",
"437 473 LINE",
"437 112 LINE",
"420 94 OFFCURVE",
"360 57 OFFCURVE",
"302 57 CURVE SMOOTH",
"216 57 OFFCURVE",
"197 104 OFFCURVE",
"197 211 CURVE SMOOTH",
"197 547 LINE",
"180 556 LINE",
"54 529 LINE",
"54 492 LINE",
"104 477 LINE"
);
}
);
width = 631;
}
);
unicode = 00FB;
userData = {
com.typemytype.robofont.layerData = {
};
};
},
{
glyphname = udieresis;
layers = (
{
layerId = "39185045-6A8C-415A-8312-7B8F11386A4C";
name = Regular;
paths = (
{
closed = 1;
nodes = (
"411 675 CURVE SMOOTH",
"447 675 OFFCURVE",
"484 701 OFFCURVE",
"484 744 CURVE SMOOTH",
"484 777 OFFCURVE",
"465 804 OFFCURVE",
"422 804 CURVE SMOOTH",
"387 804 OFFCURVE",
"350 774 OFFCURVE",
"350 733 CURVE SMOOTH",
"350 696 OFFCURVE",
"379 675 OFFCURVE"
);
},
{
closed = 1;
nodes = (
"183 675 CURVE SMOOTH",
"220 675 OFFCURVE",
"256 701 OFFCURVE",
"256 744 CURVE SMOOTH",
"256 777 OFFCURVE",
"237 804 OFFCURVE",
"194 804 CURVE SMOOTH",
"160 804 OFFCURVE",
"123 774 OFFCURVE",
"123 733 CURVE SMOOTH",
"123 696 OFFCURVE",
"151 675 OFFCURVE"
);
},
{
closed = 1;
nodes = (
"104 225 LINE SMOOTH",
"106 90 OFFCURVE",
"112 -10 OFFCURVE",
"266 -10 CURVE SMOOTH",
"325 -10 OFFCURVE",
"390 16 OFFCURVE",
"446 65 CURVE",
"446 25 LINE SMOOTH",
"446 -4 OFFCURVE",
"465 -17 OFFCURVE",
"497 -17 CURVE SMOOTH",
"527 -17 OFFCURVE",
"569 -6 OFFCURVE",
"588 4 CURVE",
"588 42 LINE",
"529 42 LINE",
"529 548 LINE",
"516 556 LINE",
"376 528 LINE",
"376 488 LINE",
"437 473 LINE",
"437 112 LINE",
"420 94 OFFCURVE",
"360 57 OFFCURVE",
"302 57 CURVE SMOOTH",
"216 57 OFFCURVE",
"197 104 OFFCURVE",
"197 211 CURVE SMOOTH",
"197 547 LINE",
"180 556 LINE",
"54 529 LINE",
"54 492 LINE",
"104 477 LINE"
);
}
);
width = 631;
}
);
unicode = 00FC;
userData = {
com.typemytype.robofont.layerData = {
};
};
},
{
glyphname = ugrave;
layers = (
{
layerId = "39185045-6A8C-415A-8312-7B8F11386A4C";
name = Regular;
paths = (
{
closed = 1;
nodes = (
"390 681 LINE",
"246 869 LINE",
"175 796 LINE",
"214 736 OFFCURVE",
"311 679 OFFCURVE",
"364 654 CURVE"
);
},
{
closed = 1;
nodes = (
"104 225 LINE SMOOTH",
"106 90 OFFCURVE",
"112 -10 OFFCURVE",
"266 -10 CURVE SMOOTH",
"325 -10 OFFCURVE",
"390 16 OFFCURVE",
"446 65 CURVE",
"446 25 LINE SMOOTH",
"446 -4 OFFCURVE",
"465 -17 OFFCURVE",
"497 -17 CURVE SMOOTH",
"527 -17 OFFCURVE",
"569 -6 OFFCURVE",
"588 4 CURVE",
"588 42 LINE",
"529 42 LINE",
"529 548 LINE",
"516 556 LINE",
"376 528 LINE",
"376 488 LINE",
"437 473 LINE",
"437 112 LINE",
"420 94 OFFCURVE",
"360 57 OFFCURVE",
"302 57 CURVE SMOOTH",
"216 57 OFFCURVE",
"197 104 OFFCURVE",
"197 211 CURVE SMOOTH",
"197 547 LINE",
"180 556 LINE",
"54 529 LINE",
"54 492 LINE",
"104 477 LINE"
);
}
);
width = 631;
}
);
unicode = 00F9;
userData = {
com.typemytype.robofont.layerData = {
};
};
},
{
glyphname = v;
lastChange = "2014-08-26 11:06:00 +0100";
layers = (
{
layerId = "39185045-6A8C-415A-8312-7B8F11386A4C";
name = Regular;
paths = (
{
closed = 1;
nodes = (
"263 -12 LINE",
"329 -12 LINE",
"527 484 LINE",
"579 495 LINE",
"579 546 LINE",
"384 546 LINE",
"384 495 LINE",
"447 485 LINE",
"354 218 LINE",
"309 84 LINE",
"263 224 LINE",
"156 485 LINE",
"216 495 LINE",
"216 546 LINE",
"1 546 LINE",
"1 495 LINE",
"48 486 LINE"
);
}
);
width = 580;
}
);
leftKerningGroup = v;
unicode = 0076;
userData = {
com.typemytype.robofont.layerData = {
};
};
},
{
glyphname = w;
lastChange = "2014-08-26 11:04:54 +0100";
layers = (
{
layerId = "39185045-6A8C-415A-8312-7B8F11386A4C";
name = Regular;
paths = (
{
closed = 1;
nodes = (
"217 -12 LINE",
"298 -12 LINE",
"396 360 LINE",
"415 433 LINE",
"427 360 LINE",
"533 -12 LINE",
"619 -12 LINE",
"764 484 LINE",
"825 495 LINE",
"825 546 LINE",
"628 546 LINE",
"628 495 LINE",
"688 485 LINE",
"612 183 LINE",
"585 81 LINE",
"558 187 LINE",
"463 546 LINE",
"379 546 LINE",
"287 186 LINE",
"265 81 LINE",
"238 187 LINE",
"146 484 LINE",
"214 495 LINE",
"214 546 LINE",
"1 546 LINE",
"1 495 LINE",
"51 486 LINE"
);
}
);
width = 826;
}
);
leftKerningGroup = v;
unicode = 0077;
userData = {
com.typemytype.robofont.layerData = {
};
};
},
{
glyphname = x;
lastChange = "2014-08-26 11:05:15 +0100";
layers = (
{
layerId = "39185045-6A8C-415A-8312-7B8F11386A4C";
name = Regular;
paths = (
{
closed = 1;
nodes = (
"3 0 LINE",
"243 0 LINE",
"243 42 LINE",
"154 52 LINE",
"250 189 LINE",
"271 226 LINE",
"305 178 LINE",
"309 170 OFFCURVE",
"320 163 OFFCURVE",
"394 52 CURVE",
"327 42 LINE",
"327 0 LINE",
"568 0 LINE",
"568 42 LINE",
"504 51 LINE",
"330 277 LINE",
"489 485 LINE",
"564 495 LINE",
"564 546 LINE",
"344 546 LINE",
"344 495 LINE",
"414 487 LINE",
"317 344 LINE",
"297 310 LINE",
"274 346 LINE",
"179 486 LINE",
"247 495 LINE",
"247 546 LINE",
"2 546 LINE",
"2 495 LINE",
"69 486 LINE",
"239 265 LINE",
"76 52 LINE",
"3 42 LINE"
);
}
);
width = 570;
}
);
leftKerningGroup = x;
unicode = 0078;
userData = {
com.typemytype.robofont.layerData = {
};
};
},
{
glyphname = y;
lastChange = "2014-08-26 11:05:04 +0100";
layers = (
{
layerId = "39185045-6A8C-415A-8312-7B8F11386A4C";
name = Regular;
paths = (
{
closed = 1;
nodes = (
"73 -244 LINE",
"79 -248 OFFCURVE",
"99 -251 OFFCURVE",
"112 -251 CURVE SMOOTH",
"127 -251 OFFCURVE",
"142 -250 OFFCURVE",
"155 -247 CURVE SMOOTH",
"235 -227 OFFCURVE",
"284 -149 OFFCURVE",
"335 -19 CURVE SMOOTH",
"351 20 OFFCURVE",
"381 107 OFFCURVE",
"512 487 CURVE",
"566 495 LINE",
"566 546 LINE",
"355 546 LINE",
"355 495 LINE",
"432 486 LINE",
"333 157 LINE",
"304 58 LINE",
"271 157 LINE",
"157 485 LINE",
"227 495 LINE",
"227 546 LINE",
"1 546 LINE",
"1 495 LINE",
"52 486 LINE",
"248 0 LINE",
"269 0 LINE",
"226 -145 OFFCURVE",
"159 -171 OFFCURVE",
"112 -171 CURVE SMOOTH",
"101 -171 OFFCURVE",
"84 -169 OFFCURVE",
"73 -166 CURVE"
);
}
);
width = 562;
}
);
leftKerningGroup = v;
unicode = 0079;
userData = {
com.typemytype.robofont.layerData = {
};
};
},
{
glyphname = yacute;
layers = (
{
layerId = "39185045-6A8C-415A-8312-7B8F11386A4C";
name = Regular;
paths = (
{
closed = 1;
nodes = (
"253 654 LINE",
"307 679 OFFCURVE",
"403 736 OFFCURVE",
"442 796 CURVE",
"371 869 LINE",
"228 681 LINE"
);
},
{
closed = 1;
nodes = (
"73 -244 LINE",
"79 -248 OFFCURVE",
"99 -251 OFFCURVE",
"112 -251 CURVE SMOOTH",
"127 -251 OFFCURVE",
"142 -250 OFFCURVE",
"155 -247 CURVE SMOOTH",
"235 -227 OFFCURVE",
"284 -149 OFFCURVE",
"335 -19 CURVE SMOOTH",
"351 20 OFFCURVE",
"381 107 OFFCURVE",
"512 487 CURVE",
"566 495 LINE",
"566 546 LINE",
"355 546 LINE",
"355 495 LINE",
"432 486 LINE",
"333 157 LINE",
"304 58 LINE",
"271 157 LINE",
"157 485 LINE",
"227 495 LINE",
"227 546 LINE",
"1 546 LINE",
"1 495 LINE",
"52 486 LINE",
"248 0 LINE",
"269 0 LINE",
"226 -145 OFFCURVE",
"159 -171 OFFCURVE",
"112 -171 CURVE SMOOTH",
"101 -171 OFFCURVE",
"84 -169 OFFCURVE",
"73 -166 CURVE"
);
}
);
width = 562;
}
);
unicode = 00FD;
userData = {
com.typemytype.robofont.layerData = {
};
};
},
{
glyphname = ydieresis;
layers = (
{
layerId = "39185045-6A8C-415A-8312-7B8F11386A4C";
name = Regular;
paths = (
{
closed = 1;
nodes = (
"406 675 CURVE SMOOTH",
"442 675 OFFCURVE",
"479 701 OFFCURVE",
"479 744 CURVE SMOOTH",
"479 777 OFFCURVE",
"460 804 OFFCURVE",
"417 804 CURVE SMOOTH",
"382 804 OFFCURVE",
"345 774 OFFCURVE",
"345 733 CURVE SMOOTH",
"345 696 OFFCURVE",
"374 675 OFFCURVE"
);
},
{
closed = 1;
nodes = (
"178 675 CURVE SMOOTH",
"215 675 OFFCURVE",
"251 701 OFFCURVE",
"251 744 CURVE SMOOTH",
"251 777 OFFCURVE",
"232 804 OFFCURVE",
"189 804 CURVE SMOOTH",
"155 804 OFFCURVE",
"118 774 OFFCURVE",
"118 733 CURVE SMOOTH",
"118 696 OFFCURVE",
"146 675 OFFCURVE"
);
},
{
closed = 1;
nodes = (
"73 -244 LINE",
"79 -248 OFFCURVE",
"99 -251 OFFCURVE",
"112 -251 CURVE SMOOTH",
"127 -251 OFFCURVE",
"142 -250 OFFCURVE",
"155 -247 CURVE SMOOTH",
"235 -227 OFFCURVE",
"284 -149 OFFCURVE",
"335 -19 CURVE SMOOTH",
"351 20 OFFCURVE",
"381 107 OFFCURVE",
"512 487 CURVE",
"566 495 LINE",
"566 546 LINE",
"355 546 LINE",
"355 495 LINE",
"432 486 LINE",
"333 157 LINE",
"304 58 LINE",
"271 157 LINE",
"157 485 LINE",
"227 495 LINE",
"227 546 LINE",
"1 546 LINE",
"1 495 LINE",
"52 486 LINE",
"248 0 LINE",
"269 0 LINE",
"226 -145 OFFCURVE",
"159 -171 OFFCURVE",
"112 -171 CURVE SMOOTH",
"101 -171 OFFCURVE",
"84 -169 OFFCURVE",
"73 -166 CURVE"
);
}
);
width = 562;
}
);
unicode = 00FF;
userData = {
com.typemytype.robofont.layerData = {
};
};
},
{
glyphname = z;
lastChange = "2014-08-26 11:05:32 +0100";
layers = (
{
layerId = "39185045-6A8C-415A-8312-7B8F11386A4C";
name = Regular;
paths = (
{
closed = 1;
nodes = (
"59 0 LINE",
"490 0 LINE",
"498 141 LINE",
"481 141 OFFCURVE",
"465 141 OFFCURVE",
"448 141 CURVE",
"417 59 LINE",
"158 48 LINE",
"207 111 LINE",
"493 506 LINE",
"480 546 LINE",
"66 546 LINE",
"66 403 LINE",
"111 403 LINE",
"141 493 LINE",
"380 500 LINE",
"340 453 LINE",
"77 86 LINE",
"43 40 LINE"
);
}
);
width = 526;
}
);
leftKerningGroup = z;
unicode = 007A;
userData = {
com.typemytype.robofont.layerData = {
};
};
},
{
glyphname = zcaron;
layers = (
{
layerId = "39185045-6A8C-415A-8312-7B8F11386A4C";
name = Regular;
paths = (
{
closed = 1;
nodes = (
"229 652 LINE",
"321 652 LINE",
"450 844 LINE",
"413 867 LINE",
"275 736 LINE",
"138 866 LINE",
"96 844 LINE"
);
},
{
closed = 1;
nodes = (
"59 0 LINE",
"490 0 LINE",
"498 141 LINE",
"481 141 OFFCURVE",
"465 141 OFFCURVE",
"448 141 CURVE",
"417 59 LINE",
"158 48 LINE",
"207 111 LINE",
"493 506 LINE",
"480 546 LINE",
"66 546 LINE",
"66 403 LINE",
"111 403 LINE",
"141 493 LINE",
"380 500 LINE",
"340 453 LINE",
"77 86 LINE",
"43 40 LINE"
);
}
);
width = 526;
}
);
unicode = 017E;
userData = {
com.typemytype.robofont.layerData = {
};
};
},
{
glyphname = zdotaccent;
layers = (
{
layerId = "39185045-6A8C-415A-8312-7B8F11386A4C";
name = Regular;
paths = (
{
closed = 1;
nodes = (
"260 664 CURVE SMOOTH",
"297 664 OFFCURVE",
"333 692 OFFCURVE",
"333 735 CURVE SMOOTH",
"333 768 OFFCURVE",
"314 795 OFFCURVE",
"271 795 CURVE SMOOTH",
"237 795 OFFCURVE",
"199 765 OFFCURVE",
"199 724 CURVE SMOOTH",
"199 687 OFFCURVE",
"229 664 OFFCURVE"
);
},
{
closed = 1;
nodes = (
"59 0 LINE",
"490 0 LINE",
"498 141 LINE",
"481 141 OFFCURVE",
"465 141 OFFCURVE",
"448 141 CURVE",
"417 59 LINE",
"158 48 LINE",
"207 111 LINE",
"493 506 LINE",
"480 546 LINE",
"66 546 LINE",
"66 403 LINE",
"111 403 LINE",
"141 493 LINE",
"380 500 LINE",
"340 453 LINE",
"77 86 LINE",
"43 40 LINE"
);
}
);
width = 526;
}
);
unicode = 017C;
userData = {
com.typemytype.robofont.layerData = {
};
};
},
{
glyphname = f_f;
layers = (
{
layerId = "39185045-6A8C-415A-8312-7B8F11386A4C";
name = Regular;
paths = (
{
closed = 1;
nodes = (
"462 0 LINE",
"767 0 LINE",
"767 42 LINE",
"654 51 LINE",
"654 480 LINE",
"802 480 LINE",
"802 546 LINE",
"654 546 LINE",
"654 627 LINE SMOOTH",
"654 738 OFFCURVE",
"688 749 OFFCURVE",
"741 749 CURVE SMOOTH",
"788 749 OFFCURVE",
"821 739 OFFCURVE",
"831 733 CURVE",
"831 816 LINE",
"823 820 OFFCURVE",
"805 825 OFFCURVE",
"761 825 CURVE SMOOTH",
"678 825 OFFCURVE",
"561 732 OFFCURVE",
"561 587 CURVE SMOOTH",
"561 546 LINE",
"453 518 LINE",
"453 480 LINE",
"561 480 LINE",
"561 52 LINE",
"462 42 LINE"
);
},
{
closed = 1;
nodes = (
"54 0 LINE",
"358 0 LINE",
"358 42 LINE",
"246 51 LINE",
"246 480 LINE",
"393 480 LINE",
"393 546 LINE",
"246 546 LINE",
"246 627 LINE SMOOTH",
"246 738 OFFCURVE",
"280 749 OFFCURVE",
"333 749 CURVE SMOOTH",
"379 749 OFFCURVE",
"413 739 OFFCURVE",
"422 733 CURVE",
"422 816 LINE",
"415 820 OFFCURVE",
"396 825 OFFCURVE",
"352 825 CURVE SMOOTH",
"270 825 OFFCURVE",
"152 732 OFFCURVE",
"152 587 CURVE SMOOTH",
"152 546 LINE",
"44 518 LINE",
"44 480 LINE",
"152 480 LINE",
"152 52 LINE",
"54 42 LINE"
);
}
);
width = 817;
}
);
userData = {
com.typemytype.robofont.layerData = {
};
};
},
{
glyphname = f_f_i;
layers = (
{
layerId = "39185045-6A8C-415A-8312-7B8F11386A4C";
name = Regular;
paths = (
{
closed = 1;
nodes = (
"462 0 LINE",
"767 0 LINE",
"767 42 LINE",
"654 51 LINE",
"654 480 LINE",
"802 480 LINE",
"802 546 LINE",
"654 546 LINE",
"654 627 LINE SMOOTH",
"654 738 OFFCURVE",
"688 749 OFFCURVE",
"741 749 CURVE SMOOTH",
"788 749 OFFCURVE",
"821 739 OFFCURVE",
"831 733 CURVE",
"831 816 LINE",
"823 820 OFFCURVE",
"805 825 OFFCURVE",
"761 825 CURVE SMOOTH",
"678 825 OFFCURVE",
"561 732 OFFCURVE",
"561 587 CURVE SMOOTH",
"561 546 LINE",
"453 518 LINE",
"453 480 LINE",
"561 480 LINE",
"561 52 LINE",
"462 42 LINE"
);
},
{
closed = 1;
nodes = (
"54 0 LINE",
"358 0 LINE",
"358 42 LINE",
"246 51 LINE",
"246 480 LINE",
"393 480 LINE",
"393 546 LINE",
"246 546 LINE",
"246 627 LINE SMOOTH",
"246 738 OFFCURVE",
"280 749 OFFCURVE",
"333 749 CURVE SMOOTH",
"379 749 OFFCURVE",
"413 739 OFFCURVE",
"422 733 CURVE",
"422 816 LINE",
"415 820 OFFCURVE",
"396 825 OFFCURVE",
"352 825 CURVE SMOOTH",
"270 825 OFFCURVE",
"152 732 OFFCURVE",
"152 587 CURVE SMOOTH",
"152 546 LINE",
"44 518 LINE",
"44 480 LINE",
"152 480 LINE",
"152 52 LINE",
"54 42 LINE"
);
},
{
closed = 1;
nodes = (
"918 731 CURVE SMOOTH",
"918 694 OFFCURVE",
"948 671 OFFCURVE",
"980 671 CURVE SMOOTH",
"1017 671 OFFCURVE",
"1053 699 OFFCURVE",
"1053 742 CURVE SMOOTH",
"1053 775 OFFCURVE",
"1034 803 OFFCURVE",
"991 803 CURVE SMOOTH",
"957 803 OFFCURVE",
"918 772 OFFCURVE"
);
},
{
closed = 1;
nodes = (
"872 0 LINE",
"1124 0 LINE",
"1124 42 LINE",
"1045 52 LINE",
"1045 546 LINE",
"1023 556 LINE",
"888 518 LINE",
"888 487 LINE",
"955 452 LINE",
"955 52 LINE",
"872 42 LINE"
);
}
);
width = 1151;
}
);
userData = {
com.typemytype.robofont.layerData = {
};
};
},
{
glyphname = f_f_l;
layers = (
{
layerId = "39185045-6A8C-415A-8312-7B8F11386A4C";
name = Regular;
paths = (
{
closed = 1;
nodes = (
"462 0 LINE",
"767 0 LINE",
"767 42 LINE",
"654 51 LINE",
"654 480 LINE",
"802 480 LINE",
"802 546 LINE",
"654 546 LINE",
"654 627 LINE SMOOTH",
"654 738 OFFCURVE",
"688 749 OFFCURVE",
"741 749 CURVE SMOOTH",
"788 749 OFFCURVE",
"821 739 OFFCURVE",
"831 733 CURVE",
"831 816 LINE",
"823 820 OFFCURVE",
"805 825 OFFCURVE",
"761 825 CURVE SMOOTH",
"678 825 OFFCURVE",
"561 732 OFFCURVE",
"561 587 CURVE SMOOTH",
"561 546 LINE",
"453 518 LINE",
"453 480 LINE",
"561 480 LINE",
"561 52 LINE",
"462 42 LINE"
);
},
{
closed = 1;
nodes = (
"54 0 LINE",
"358 0 LINE",
"358 42 LINE",
"246 51 LINE",
"246 480 LINE",
"393 480 LINE",
"393 546 LINE",
"246 546 LINE",
"246 627 LINE SMOOTH",
"246 738 OFFCURVE",
"280 749 OFFCURVE",
"333 749 CURVE SMOOTH",
"379 749 OFFCURVE",
"413 739 OFFCURVE",
"422 733 CURVE",
"422 816 LINE",
"415 820 OFFCURVE",
"396 825 OFFCURVE",
"352 825 CURVE SMOOTH",
"270 825 OFFCURVE",
"152 732 OFFCURVE",
"152 587 CURVE SMOOTH",
"152 546 LINE",
"44 518 LINE",
"44 480 LINE",
"152 480 LINE",
"152 52 LINE",
"54 42 LINE"
);
},
{
closed = 1;
nodes = (
"870 0 LINE",
"1134 0 LINE",
"1134 42 LINE",
"1047 52 LINE",
"1047 782 LINE",
"1028 793 LINE",
"875 773 LINE",
"875 730 LINE",
"953 713 LINE",
"953 52 LINE",
"870 42 LINE"
);
}
);
width = 1158;
}
);
userData = {
com.typemytype.robofont.layerData = {
};
};
},
{
glyphname = fi;
layers = (
{
layerId = "39185045-6A8C-415A-8312-7B8F11386A4C";
name = Regular;
paths = (
{
closed = 1;
nodes = (
"54 0 LINE",
"358 0 LINE",
"358 42 LINE",
"246 51 LINE",
"246 480 LINE",
"393 480 LINE",
"393 546 LINE",
"246 546 LINE",
"246 627 LINE SMOOTH",
"246 738 OFFCURVE",
"280 749 OFFCURVE",
"333 749 CURVE SMOOTH",
"379 749 OFFCURVE",
"413 739 OFFCURVE",
"422 733 CURVE",
"422 816 LINE",
"415 820 OFFCURVE",
"396 825 OFFCURVE",
"352 825 CURVE SMOOTH",
"270 825 OFFCURVE",
"152 732 OFFCURVE",
"152 587 CURVE SMOOTH",
"152 546 LINE",
"44 518 LINE",
"44 480 LINE",
"152 480 LINE",
"152 52 LINE",
"54 42 LINE"
);
},
{
closed = 1;
nodes = (
"571 671 CURVE SMOOTH",
"608 671 OFFCURVE",
"645 699 OFFCURVE",
"645 742 CURVE SMOOTH",
"645 775 OFFCURVE",
"625 803 OFFCURVE",
"583 803 CURVE SMOOTH",
"548 803 OFFCURVE",
"510 772 OFFCURVE",
"510 731 CURVE SMOOTH",
"510 694 OFFCURVE",
"540 671 OFFCURVE"
);
},
{
closed = 1;
nodes = (
"463 0 LINE",
"715 0 LINE",
"715 42 LINE",
"636 52 LINE",
"636 546 LINE",
"614 556 LINE",
"479 518 LINE",
"479 487 LINE",
"546 452 LINE",
"546 52 LINE",
"463 42 LINE"
);
}
);
width = 742;
}
);
unicode = FB01;
userData = {
com.typemytype.robofont.layerData = {
};
};
},
{
glyphname = fl;
layers = (
{
layerId = "39185045-6A8C-415A-8312-7B8F11386A4C";
name = Regular;
paths = (
{
closed = 1;
nodes = (
"54 0 LINE",
"358 0 LINE",
"358 42 LINE",
"246 51 LINE",
"246 480 LINE",
"393 480 LINE",
"393 546 LINE",
"246 546 LINE",
"246 627 LINE SMOOTH",
"246 738 OFFCURVE",
"280 749 OFFCURVE",
"333 749 CURVE SMOOTH",
"379 749 OFFCURVE",
"413 739 OFFCURVE",
"422 733 CURVE",
"422 816 LINE",
"415 820 OFFCURVE",
"396 825 OFFCURVE",
"352 825 CURVE SMOOTH",
"270 825 OFFCURVE",
"152 732 OFFCURVE",
"152 587 CURVE SMOOTH",
"152 546 LINE",
"44 518 LINE",
"44 480 LINE",
"152 480 LINE",
"152 52 LINE",
"54 42 LINE"
);
},
{
closed = 1;
nodes = (
"461 0 LINE",
"726 0 LINE",
"726 42 LINE",
"639 52 LINE",
"639 782 LINE",
"619 793 LINE",
"466 773 LINE",
"466 730 LINE",
"544 713 LINE",
"544 52 LINE",
"461 42 LINE"
);
}
);
width = 750;
}
);
unicode = FB02;
userData = {
com.typemytype.robofont.layerData = {
};
};
},
{
glyphname = ordfeminine;
layers = (
{
layerId = "39185045-6A8C-415A-8312-7B8F11386A4C";
name = Regular;
paths = (
{
closed = 1;
nodes = (
"158 359 CURVE SMOOTH",
"242 359 OFFCURVE",
"286 391 OFFCURVE",
"307 410 CURVE",
"307 402 LINE SMOOTH",
"307 362 OFFCURVE",
"326 356 OFFCURVE",
"351 356 CURVE SMOOTH",
"375 356 OFFCURVE",
"415 366 OFFCURVE",
"432 373 CURVE",
"432 410 LINE",
"389 410 LINE",
"390 633 LINE SMOOTH",
"390 760 OFFCURVE",
"321 778 OFFCURVE",
"228 778 CURVE SMOOTH",
"165 778 OFFCURVE",
"90 757 OFFCURVE",
"61 731 CURVE",
"80 688 LINE",
"103 706 OFFCURVE",
"150 718 OFFCURVE",
"200 718 CURVE SMOOTH",
"262 718 OFFCURVE",
"305 710 OFFCURVE",
"305 627 CURVE SMOOTH",
"305 615 LINE",
"168 615 OFFCURVE",
"39 594 OFFCURVE",
"39 476 CURVE SMOOTH",
"39 395 OFFCURVE",
"114 359 OFFCURVE"
);
},
{
closed = 1;
nodes = (
"195 417 CURVE SMOOTH",
"160 417 OFFCURVE",
"130 443 OFFCURVE",
"130 492 CURVE SMOOTH",
"130 553 OFFCURVE",
"203 570 OFFCURVE",
"304 570 CURVE",
"304 450 LINE",
"280 428 OFFCURVE",
"228 417 OFFCURVE"
);
}
);
width = 471;
}
);
unicode = 00AA;
userData = {
com.typemytype.robofont.layerData = {
};
};
},
{
glyphname = ordmasculine;
layers = (
{
layerId = "39185045-6A8C-415A-8312-7B8F11386A4C";
name = Regular;
paths = (
{
closed = 1;
nodes = (
"240 359 CURVE SMOOTH",
"327 359 OFFCURVE",
"442 417 OFFCURVE",
"444 564 CURVE SMOOTH",
"445 695 OFFCURVE",
"371 778 OFFCURVE",
"250 778 CURVE SMOOTH",
"159 778 OFFCURVE",
"48 718 OFFCURVE",
"45 569 CURVE SMOOTH",
"43 434 OFFCURVE",
"130 359 OFFCURVE"
);
},
{
closed = 1;
nodes = (
"238 409 CURVE SMOOTH",
"186 409 OFFCURVE",
"141 473 OFFCURVE",
"141 574 CURVE SMOOTH",
"141 683 OFFCURVE",
"180 726 OFFCURVE",
"245 728 CURVE SMOOTH",
"309 729 OFFCURVE",
"348 659 OFFCURVE",
"348 559 CURVE SMOOTH",
"348 436 OFFCURVE",
"308 409 OFFCURVE"
);
}
);
width = 487;
}
);
unicode = 00BA;
userData = {
com.typemytype.robofont.layerData = {
};
};
},
{
glyphname = Omega;
layers = (
{
layerId = "39185045-6A8C-415A-8312-7B8F11386A4C";
name = Regular;
paths = (
{
closed = 1;
nodes = (
"69 0 LINE",
"412 0 LINE",
"412 81 LINE",
"333 125 OFFCURVE",
"233 241 OFFCURVE",
"233 402 CURVE SMOOTH",
"233 611 OFFCURVE",
"329 718 OFFCURVE",
"468 718 CURVE SMOOTH",
"585 718 OFFCURVE",
"694 623 OFFCURVE",
"694 418 CURVE SMOOTH",
"694 259 OFFCURVE",
"627 141 OFFCURVE",
"527 81 CURVE",
"527 0 LINE",
"859 0 LINE",
"881 191 LINE",
"833 195 LINE",
"799 89 LINE",
"629 89 LINE",
"710 157 OFFCURVE",
"797 298 OFFCURVE",
"800 419 CURVE SMOOTH",
"804 638 OFFCURVE",
"666 758 OFFCURVE",
"475 758 CURVE SMOOTH",
"301 758 OFFCURVE",
"132 647 OFFCURVE",
"128 401 CURVE SMOOTH",
"125 256 OFFCURVE",
"218 140 OFFCURVE",
"300 89 CURVE",
"134 89 LINE",
"118 180 LINE",
"69 176 LINE"
);
}
);
width = 951;
}
);
unicode = 03A9;
userData = {
com.typemytype.robofont.layerData = {
};
};
},
{
glyphname = mu;
layers = (
{
layerId = "39185045-6A8C-415A-8312-7B8F11386A4C";
name = Regular;
paths = (
{
closed = 1;
nodes = (
"221 -1 LINE",
"240 -7 OFFCURVE",
"263 -10 OFFCURVE",
"291 -10 CURVE SMOOTH",
"350 -10 OFFCURVE",
"414 14 OFFCURVE",
"471 65 CURVE",
"471 25 LINE SMOOTH",
"471 -4 OFFCURVE",
"490 -17 OFFCURVE",
"521 -17 CURVE SMOOTH",
"552 -17 OFFCURVE",
"593 -6 OFFCURVE",
"612 4 CURVE",
"612 42 LINE",
"554 42 LINE",
"554 548 LINE",
"540 556 LINE",
"400 528 LINE",
"400 488 LINE",
"461 473 LINE",
"461 112 LINE",
"444 94 OFFCURVE",
"385 57 OFFCURVE",
"327 57 CURVE SMOOTH",
"241 57 OFFCURVE",
"221 104 OFFCURVE",
"221 211 CURVE SMOOTH",
"221 547 LINE",
"204 556 LINE",
"79 529 LINE",
"79 492 LINE",
"129 477 LINE",
"129 -182 LINE",
"221 -182 LINE"
);
}
);
width = 691;
}
);
unicode = 03BC;
userData = {
com.typemytype.robofont.layerData = {
};
};
},
{
glyphname = pi;
layers = (
{
layerId = "39185045-6A8C-415A-8312-7B8F11386A4C";
name = Regular;
paths = (
{
closed = 1;
nodes = (
"160 -12 LINE",
"186 -4 OFFCURVE",
"209 8 OFFCURVE",
"229 25 CURVE SMOOTH",
"273 66 OFFCURVE",
"285 98 OFFCURVE",
"293 210 CURVE SMOOTH",
"303 452 LINE",
"489 452 LINE",
"469 137 LINE SMOOTH",
"465 68 OFFCURVE",
"465 -12 OFFCURVE",
"531 -12 CURVE SMOOTH",
"612 -12 OFFCURVE",
"674 83 OFFCURVE",
"688 140 CURVE",
"635 140 LINE",
"623 105 OFFCURVE",
"586 80 OFFCURVE",
"557 80 CURVE SMOOTH",
"547 80 OFFCURVE",
"533 85 OFFCURVE",
"533 127 CURVE SMOOTH",
"549 452 LINE",
"634 454 OFFCURVE",
"698 509 OFFCURVE",
"704 599 CURVE",
"653 599 LINE",
"633 559 OFFCURVE",
"600 546 OFFCURVE",
"556 546 CURVE SMOOTH",
"232 546 LINE SMOOTH",
"166 546 OFFCURVE",
"112 515 OFFCURVE",
"83 457 CURVE SMOOTH",
"74 439 OFFCURVE",
"74 419 OFFCURVE",
"76 409 CURVE",
"126 403 LINE",
"138 433 OFFCURVE",
"177 452 OFFCURVE",
"215 452 CURVE SMOOTH",
"245 452 LINE",
"234 239 LINE SMOOTH",
"230 172 OFFCURVE",
"220 128 OFFCURVE",
"163 89 CURVE SMOOTH",
"136 70 OFFCURVE",
"97 57 OFFCURVE",
"90 56 CURVE"
);
}
);
width = 777;
}
);
unicode = 03C0;
userData = {
com.typemytype.robofont.layerData = {
};
};
},
{
glyphname = "aShort-deva";
lastChange = "2014-08-25 10:41:29 +0100";
layers = (
{
anchors = (
{
name = top;
position = "{843, 650}";
}
);
layerId = "39185045-6A8C-415A-8312-7B8F11386A4C";
name = Regular;
paths = (
{
closed = 1;
nodes = (
"152 971 OFFCURVE",
"137 931 OFFCURVE",
"137 893 CURVE SMOOTH",
"137 841 OFFCURVE",
"246 772 OFFCURVE",
"360 772 CURVE SMOOTH",
"414 772 OFFCURVE",
"508 787 OFFCURVE",
"555 787 CURVE SMOOTH",
"640 787 OFFCURVE",
"664 733 OFFCURVE",
"664 684 CURVE SMOOTH",
"664 669 OFFCURVE",
"660 656 OFFCURVE",
"653 645 CURVE",
"707 642 LINE",
"711 658 OFFCURVE",
"717 684 OFFCURVE",
"717 703 CURVE SMOOTH",
"717 737 OFFCURVE",
"695 774 OFFCURVE",
"669 806 CURVE SMOOTH",
"636 844 OFFCURVE",
"592 875 OFFCURVE",
"538 875 CURVE SMOOTH",
"492 875 OFFCURVE",
"314 859 OFFCURVE",
"274 859 CURVE SMOOTH",
"225 859 OFFCURVE",
"191 874 OFFCURVE",
"191 910 CURVE SMOOTH",
"191 931 OFFCURVE",
"199 958 OFFCURVE",
"209 984 CURVE",
"160 991 LINE"
);
},
{
closed = 1;
nodes = (
"346 323 LINE",
"385 296 OFFCURVE",
"399 249 OFFCURVE",
"399 210 CURVE SMOOTH",
"399 150 OFFCURVE",
"350 98 OFFCURVE",
"280 98 CURVE SMOOTH",
"186 98 OFFCURVE",
"93 199 OFFCURVE",
"42 284 CURVE",
"8 262 LINE",
"57 173 OFFCURVE",
"153 18 OFFCURVE",
"317 18 CURVE SMOOTH",
"414 18 OFFCURVE",
"478 77 OFFCURVE",
"478 173 CURVE SMOOTH",
"478 251 OFFCURVE",
"441 300 OFFCURVE",
"381 351 CURVE"
);
},
{
closed = 1;
nodes = (
"219 667 OFFCURVE",
"133 630 OFFCURVE",
"96 603 CURVE",
"142 516 LINE",
"183 553 OFFCURVE",
"234 586 OFFCURVE",
"290 586 CURVE SMOOTH",
"342 586 OFFCURVE",
"388 544 OFFCURVE",
"388 497 CURVE SMOOTH",
"388 450 OFFCURVE",
"360 425 OFFCURVE",
"328 407 CURVE SMOOTH",
"292 388 OFFCURVE",
"233 382 OFFCURVE",
"197 380 CURVE",
"186 353 LINE",
"221 289 LINE",
"274 296 OFFCURVE",
"316 303 OFFCURVE",
"380 324 CURVE",
"433 365 OFFCURVE",
"451 422 OFFCURVE",
"451 461 CURVE SMOOTH",
"451 557 OFFCURVE",
"336 665 OFFCURVE",
"256 667 CURVE SMOOTH"
);
},
{
closed = 1;
nodes = (
"388 301 LINE",
"445 261 LINE",
"460 270 LINE",
"498 240 OFFCURVE",
"537 220 OFFCURVE",
"585 220 CURVE SMOOTH",
"621 220 OFFCURVE",
"644 230 OFFCURVE",
"661 243 CURVE",
"655 334 LINE",
"625 313 OFFCURVE",
"593 296 OFFCURVE",
"545 296 CURVE SMOOTH",
"488 296 OFFCURVE",
"421 324 OFFCURVE",
"385 346 CURVE"
);
},
{
closed = 1;
nodes = (
"645 605 LINE",
"645 287 LINE",
"583 232 LINE",
"645 232 LINE",
"645 -1 LINE",
"717 -42 LINE",
"733 -42 LINE",
"733 605 LINE"
);
},
{
closed = 1;
nodes = (
"467 650 LINE",
"467 634 LINE",
"499 575 LINE",
"843 575 LINE",
"843 590 LINE",
"811 650 LINE"
);
}
);
width = 843;
}
);
unicode = 0904;
},
{
glyphname = "a-deva";
lastChange = "2014-08-25 10:44:16 +0100";
layers = (
{
anchors = (
{
name = bottom;
position = "{690, 0}";
},
{
name = nukta;
position = "{68, 0}";
},
{
name = top;
position = "{690, 650}";
}
);
layerId = "39185045-6A8C-415A-8312-7B8F11386A4C";
name = Regular;
paths = (
{
closed = 1;
nodes = (
"346 323 LINE",
"385 296 OFFCURVE",
"399 249 OFFCURVE",
"399 210 CURVE SMOOTH",
"399 150 OFFCURVE",
"350 98 OFFCURVE",
"280 98 CURVE SMOOTH",
"186 98 OFFCURVE",
"93 199 OFFCURVE",
"42 284 CURVE",
"8 262 LINE",
"57 173 OFFCURVE",
"153 18 OFFCURVE",
"317 18 CURVE SMOOTH",
"414 18 OFFCURVE",
"478 77 OFFCURVE",
"478 173 CURVE SMOOTH",
"478 251 OFFCURVE",
"441 300 OFFCURVE",
"381 351 CURVE"
);
},
{
closed = 1;
nodes = (
"219 667 OFFCURVE",
"133 630 OFFCURVE",
"96 603 CURVE",
"142 516 LINE",
"183 553 OFFCURVE",
"234 586 OFFCURVE",
"290 586 CURVE SMOOTH",
"342 586 OFFCURVE",
"388 544 OFFCURVE",
"388 497 CURVE SMOOTH",
"388 450 OFFCURVE",
"360 425 OFFCURVE",
"328 407 CURVE SMOOTH",
"292 388 OFFCURVE",
"233 382 OFFCURVE",
"197 380 CURVE",
"186 353 LINE",
"221 289 LINE",
"274 296 OFFCURVE",
"316 303 OFFCURVE",
"380 324 CURVE",
"433 365 OFFCURVE",
"451 422 OFFCURVE",
"451 461 CURVE SMOOTH",
"451 557 OFFCURVE",
"336 665 OFFCURVE",
"256 667 CURVE SMOOTH"
);
},
{
closed = 1;
nodes = (
"388 301 LINE",
"445 261 LINE",
"460 270 LINE",
"498 240 OFFCURVE",
"537 220 OFFCURVE",
"585 220 CURVE SMOOTH",
"621 220 OFFCURVE",
"644 230 OFFCURVE",
"661 243 CURVE",
"655 334 LINE",
"625 313 OFFCURVE",
"593 296 OFFCURVE",
"545 296 CURVE SMOOTH",
"488 296 OFFCURVE",
"421 324 OFFCURVE",
"385 346 CURVE"
);
},
{
closed = 1;
nodes = (
"645 605 LINE",
"645 287 LINE",
"583 232 LINE",
"645 232 LINE",
"645 -1 LINE",
"717 -42 LINE",
"733 -42 LINE",
"733 605 LINE"
);
},
{
closed = 1;
nodes = (
"467 650 LINE",
"467 634 LINE",
"499 575 LINE",
"843 575 LINE",
"843 590 LINE",
"811 650 LINE"
);
}
);
width = 843;
}
);
unicode = 0905;
},
{
glyphname = "aa-deva";
lastChange = "2014-08-25 10:44:55 +0100";
layers = (
{
anchors = (
{
name = bottom;
position = "{998, 0}";
},
{
name = nukta;
position = "{68, 0}";
},
{
name = top;
position = "{998, 650}";
}
);
layerId = "39185045-6A8C-415A-8312-7B8F11386A4C";
name = Regular;
paths = (
{
closed = 1;
nodes = (
"953 -1 LINE",
"1025 -42 LINE",
"1040 -42 LINE",
"1040 575 LINE",
"1150 575 LINE",
"1150 590 LINE",
"1118 650 LINE",
"467 650 LINE",
"467 634 LINE",
"499 575 LINE",
"645 575 LINE",
"645 327 LINE",
"618 310 OFFCURVE",
"589 296 OFFCURVE",
"545 296 CURVE SMOOTH",
"492 296 OFFCURVE",
"432 320 OFFCURVE",
"397 339 CURVE",
"429 368 OFFCURVE",
"451 419 OFFCURVE",
"451 461 CURVE SMOOTH",
"451 557 OFFCURVE",
"336 665 OFFCURVE",
"256 667 CURVE SMOOTH",
"219 667 OFFCURVE",
"133 630 OFFCURVE",
"96 603 CURVE",
"142 516 LINE",
"183 553 OFFCURVE",
"234 586 OFFCURVE",
"290 586 CURVE SMOOTH",
"342 586 OFFCURVE",
"388 544 OFFCURVE",
"388 497 CURVE SMOOTH",
"388 450 OFFCURVE",
"360 425 OFFCURVE",
"328 407 CURVE SMOOTH",
"292 388 OFFCURVE",
"233 382 OFFCURVE",
"197 380 CURVE",
"186 353 LINE",
"221 289 LINE",
"252 293 OFFCURVE",
"315 303 OFFCURVE",
"355 316 CURVE",
"386 290 OFFCURVE",
"399 247 OFFCURVE",
"399 210 CURVE SMOOTH",
"399 150 OFFCURVE",
"350 98 OFFCURVE",
"280 98 CURVE SMOOTH",
"186 98 OFFCURVE",
"93 199 OFFCURVE",
"42 284 CURVE",
"8 262 LINE",
"57 173 OFFCURVE",
"153 18 OFFCURVE",
"317 18 CURVE SMOOTH",
"414 18 OFFCURVE",
"478 77 OFFCURVE",
"478 173 CURVE SMOOTH",
"478 209 OFFCURVE",
"469 240 OFFCURVE",
"455 267 CURVE",
"460 270 LINE",
"498 240 OFFCURVE",
"537 220 OFFCURVE",
"585 220 CURVE SMOOTH",
"609 220 OFFCURVE",
"630 225 OFFCURVE",
"643 232 CURVE",
"645 232 LINE",
"645 -1 LINE",
"717 -42 LINE",
"733 -42 LINE",
"733 575 LINE",
"953 575 LINE"
);
}
);
width = 1150;
}
);
unicode = 0906;
},
{
glyphname = "i-deva";
lastChange = "2014-08-25 10:46:28 +0100";
layers = (
{
anchors = (
{
name = top;
position = "{364, 650}";
}
);
layerId = "39185045-6A8C-415A-8312-7B8F11386A4C";
name = Regular;
paths = (
{
closed = 1;
nodes = (
"-31 650 LINE",
"-31 634 LINE",
"0 575 LINE",
"319 575 LINE",
"319 495 LINE",
"175 495 LINE SMOOTH",
"116 495 OFFCURVE",
"82 447 OFFCURVE",
"82 373 CURVE SMOOTH",
"82 305 OFFCURVE",
"180 214 OFFCURVE",
"226 214 CURVE SMOOTH",
"275 214 OFFCURVE",
"339 244 OFFCURVE",
"372 244 CURVE",
"388 237 OFFCURVE",
"397 201 OFFCURVE",
"397 177 CURVE SMOOTH",
"397 109 OFFCURVE",
"302 76 OFFCURVE",
"197 72 CURVE",
"146 149 LINE",
"143 150 OFFCURVE",
"137 151 OFFCURVE",
"130 151 CURVE SMOOTH",
"104 151 OFFCURVE",
"61 120 OFFCURVE",
"61 76 CURVE SMOOTH",
"61 22 OFFCURVE",
"161 -3 OFFCURVE",
"222 -3 CURVE SMOOTH",
"336 -3 OFFCURVE",
"441 67 OFFCURVE",
"441 149 CURVE SMOOTH",
"441 223 OFFCURVE",
"391 319 OFFCURVE",
"334 319 CURVE SMOOTH",
"296 319 OFFCURVE",
"231 289 OFFCURVE",
"180 289 CURVE SMOOTH",
"161 289 OFFCURVE",
"139 317 OFFCURVE",
"139 346 CURVE SMOOTH",
"139 374 OFFCURVE",
"151 415 OFFCURVE",
"198 415 CURVE SMOOTH",
"407 415 LINE",
"407 575 LINE",
"517 575 LINE",
"517 590 LINE",
"485 650 LINE"
);
},
{
closed = 1;
nodes = (
"272 -167 LINE",
"335 -135 LINE",
"230 23 LINE",
"181 24 LINE"
);
}
);
width = 517;
}
);
unicode = 0907;
},
{
glyphname = "ii-deva";
lastChange = "2014-08-25 15:58:16 +0100";
layers = (
{
anchors = (
{
name = top;
position = "{422, 630}";
}
);
layerId = "39185045-6A8C-415A-8312-7B8F11386A4C";
name = Regular;
paths = (
{
closed = 1;
nodes = (
"-31 650 LINE",
"-31 634 LINE",
"0 575 LINE",
"319 575 LINE",
"319 495 LINE",
"175 495 LINE SMOOTH",
"116 495 OFFCURVE",
"82 447 OFFCURVE",
"82 373 CURVE SMOOTH",
"82 305 OFFCURVE",
"180 214 OFFCURVE",
"226 214 CURVE SMOOTH",
"275 214 OFFCURVE",
"339 244 OFFCURVE",
"372 244 CURVE",
"388 237 OFFCURVE",
"397 201 OFFCURVE",
"397 177 CURVE SMOOTH",
"397 109 OFFCURVE",
"302 76 OFFCURVE",
"197 72 CURVE",
"146 149 LINE",
"143 150 OFFCURVE",
"137 151 OFFCURVE",
"130 151 CURVE SMOOTH",
"104 151 OFFCURVE",
"61 120 OFFCURVE",
"61 76 CURVE SMOOTH",
"61 22 OFFCURVE",
"161 -3 OFFCURVE",
"222 -3 CURVE SMOOTH",
"336 -3 OFFCURVE",
"441 67 OFFCURVE",
"441 149 CURVE SMOOTH",
"441 223 OFFCURVE",
"391 319 OFFCURVE",
"334 319 CURVE SMOOTH",
"296 319 OFFCURVE",
"231 289 OFFCURVE",
"180 289 CURVE SMOOTH",
"161 289 OFFCURVE",
"139 317 OFFCURVE",
"139 346 CURVE SMOOTH",
"139 374 OFFCURVE",
"151 415 OFFCURVE",
"198 415 CURVE SMOOTH",
"407 415 LINE",
"407 575 LINE",
"517 575 LINE",
"517 590 LINE",
"485 650 LINE"
);
},
{
closed = 1;
nodes = (
"272 -167 LINE",
"335 -135 LINE",
"230 23 LINE",
"181 24 LINE"
);
},
{
closed = 1;
nodes = (
"281 983 OFFCURVE",
"199 928 OFFCURVE",
"199 841 CURVE SMOOTH",
"199 774 OFFCURVE",
"252 703 OFFCURVE",
"317 652 CURVE",
"317 591 LINE",
"382 650 LINE",
"342 687 OFFCURVE",
"294 754 OFFCURVE",
"294 814 CURVE SMOOTH",
"294 878 OFFCURVE",
"334 909 OFFCURVE",
"383 909 CURVE SMOOTH",
"427 909 OFFCURVE",
"480 883 OFFCURVE",
"502 866 CURVE",
"528 908 LINE",
"485 953 OFFCURVE",
"427 983 OFFCURVE",
"368 983 CURVE SMOOTH"
);
}
);
width = 517;
}
);
unicode = 0908;
},
{
glyphname = "u-deva";
lastChange = "2014-08-25 10:55:01 +0100";
layers = (
{
anchors = (
{
name = bottom;
position = "{382, -10}";
},
{
name = top;
position = "{365, 650}";
}
);
layerId = "39185045-6A8C-415A-8312-7B8F11386A4C";
name = Regular;
paths = (
{
closed = 1;
nodes = (
"360 308 LINE",
"403 280 OFFCURVE",
"464 238 OFFCURVE",
"464 179 CURVE SMOOTH",
"464 128 OFFCURVE",
"419 70 OFFCURVE",
"345 70 CURVE SMOOTH",
"237 70 OFFCURVE",
"110 199 OFFCURVE",
"60 294 CURVE",
"25 268 LINE",
"74 180 OFFCURVE",
"208 -10 OFFCURVE",
"382 -10 CURVE SMOOTH",
"483 -10 OFFCURVE",
"542 80 OFFCURVE",
"542 150 CURVE SMOOTH",
"542 225 OFFCURVE",
"472 288 OFFCURVE",
"415 330 CURVE"
);
},
{
closed = 1;
nodes = (
"321 584 LINE",
"355 562 OFFCURVE",
"410 513 OFFCURVE",
"410 470 CURVE SMOOTH",
"410 415 OFFCURVE",
"364 380 OFFCURVE",
"275 380 CURVE SMOOTH",
"245 380 OFFCURVE",
"209 386 OFFCURVE",
"191 388 CURVE",
"182 371 LINE",
"214 299 LINE",
"239 291 OFFCURVE",
"268 286 OFFCURVE",
"303 286 CURVE SMOOTH",
"381 286 OFFCURVE",
"478 337 OFFCURVE",
"478 434 CURVE SMOOTH",
"478 472 OFFCURVE",
"438 534 OFFCURVE",
"398 584 CURVE"
);
},
{
closed = 1;
nodes = (
"-31 650 LINE",
"-31 634 LINE",
"0 575 LINE",
"604 575 LINE",
"604 590 LINE",
"573 650 LINE"
);
}
);
width = 604;
}
);
unicode = 0909;
},
{
glyphname = "uu-deva";
lastChange = "2014-08-25 10:55:11 +0100";
layers = (
{
anchors = (
{
name = bottom;
position = "{382, -10}";
},
{
name = top;
position = "{365, 650}";
}
);
layerId = "39185045-6A8C-415A-8312-7B8F11386A4C";
name = Regular;
paths = (
{
closed = 1;
nodes = (
"25 268 LINE",
"74 180 OFFCURVE",
"208 -10 OFFCURVE",
"382 -10 CURVE SMOOTH",
"483 -10 OFFCURVE",
"542 80 OFFCURVE",
"542 150 CURVE SMOOTH",
"542 172 OFFCURVE",
"536 192 OFFCURVE",
"526 212 CURVE",
"578 267 OFFCURVE",
"631 313 OFFCURVE",
"683 313 CURVE SMOOTH",
"724 313 OFFCURVE",
"754 291 OFFCURVE",
"754 243 CURVE SMOOTH",
"754 180 OFFCURVE",
"682 103 OFFCURVE",
"654 72 CURVE",
"749 22 LINE",
"778 71 OFFCURVE",
"805 162 OFFCURVE",
"805 218 CURVE SMOOTH",
"805 315 OFFCURVE",
"724 388 OFFCURVE",
"667 388 CURVE SMOOTH",
"598 388 OFFCURVE",
"521 329 OFFCURVE",
"468 287 CURVE",
"452 301 OFFCURVE",
"436 313 OFFCURVE",
"422 325 CURVE",
"455 350 OFFCURVE",
"478 386 OFFCURVE",
"478 434 CURVE SMOOTH",
"478 470 OFFCURVE",
"442 528 OFFCURVE",
"405 575 CURVE",
"859 575 LINE",
"859 590 LINE",
"827 650 LINE",
"-31 650 LINE",
"-31 634 LINE",
"0 575 LINE",
"334 575 LINE",
"363 554 OFFCURVE",
"410 509 OFFCURVE",
"410 470 CURVE SMOOTH",
"410 415 OFFCURVE",
"364 380 OFFCURVE",
"275 380 CURVE SMOOTH",
"245 380 OFFCURVE",
"209 386 OFFCURVE",
"191 388 CURVE",
"182 371 LINE",
"214 299 LINE",
"239 291 OFFCURVE",
"268 286 OFFCURVE",
"303 286 CURVE SMOOTH",
"326 286 OFFCURVE",
"350 291 OFFCURVE",
"374 299 CURVE",
"411 273 OFFCURVE",
"464 234 OFFCURVE",
"464 179 CURVE SMOOTH",
"464 128 OFFCURVE",
"419 70 OFFCURVE",
"345 70 CURVE SMOOTH",
"237 70 OFFCURVE",
"110 199 OFFCURVE",
"60 294 CURVE"
);
}
);
width = 859;
}
);
unicode = 090A;
},
{
glyphname = "rVocalic-deva";
lastChange = "2014-08-25 10:55:30 +0100";
layers = (
{
anchors = (
{
name = bottom;
position = "{446, 0}";
},
{
name = top;
position = "{446, 650}";
}
);
layerId = "39185045-6A8C-415A-8312-7B8F11386A4C";
name = Regular;
paths = (
{
closed = 1;
nodes = (
"687 207 LINE",
"630 173 OFFCURVE",
"597 128 OFFCURVE",
"597 88 CURVE SMOOTH",
"597 16 OFFCURVE",
"704 -62 OFFCURVE",
"776 -62 CURVE SMOOTH",
"804 -62 OFFCURVE",
"843 -50 OFFCURVE",
"870 -35 CURVE",
"822 36 LINE",
"794 20 OFFCURVE",
"753 10 OFFCURVE",
"727 10 CURVE SMOOTH",
"685 10 OFFCURVE",
"663 37 OFFCURVE",
"663 60 CURVE SMOOTH",
"663 99 OFFCURVE",
"698 128 OFFCURVE",
"767 164 CURVE",
"695 339 LINE",
"711 355 OFFCURVE",
"719 374 OFFCURVE",
"719 395 CURVE SMOOTH",
"719 437 OFFCURVE",
"686 465 OFFCURVE",
"642 465 CURVE SMOOTH",
"621 465 OFFCURVE",
"596 453 OFFCURVE",
"588 444 CURVE",
"617 369 LINE",
"581 344 OFFCURVE",
"537 333 OFFCURVE",
"489 334 CURVE",
"489 575 LINE",
"870 575 LINE",
"870 590 LINE",
"838 650 LINE",
"-31 650 LINE",
"-31 634 LINE",
"0 575 LINE",
"401 575 LINE",
"401 361 LINE",
"331 417 OFFCURVE",
"251 466 OFFCURVE",
"185 466 CURVE SMOOTH",
"138 466 OFFCURVE",
"55 440 OFFCURVE",
"34 432 CURVE",
"82 346 LINE",
"112 357 OFFCURVE",
"173 381 OFFCURVE",
"224 381 CURVE SMOOTH",
"276 381 OFFCURVE",
"333 367 OFFCURVE",
"399 310 CURVE",
"84 105 LINE",
"144 38 LINE",
"402 225 LINE",
"403 222 LINE",
"399 0 LINE",
"473 -42 LINE",
"489 -42 LINE",
"489 270 LINE",
"541 264 OFFCURVE",
"601 278 OFFCURVE",
"648 304 CURVE"
);
}
);
width = 870;
}
);
unicode = 090B;
},
{
glyphname = "rrVocalic-deva";
lastChange = "2014-08-25 10:55:35 +0100";
layers = (
{
anchors = (
{
name = bottom;
position = "{446, 0}";
},
{
name = top;
position = "{446, 650}";
}
);
layerId = "39185045-6A8C-415A-8312-7B8F11386A4C";
name = Regular;
paths = (
{
closed = 1;
nodes = (
"687 207 LINE",
"630 173 OFFCURVE",
"597 128 OFFCURVE",
"597 88 CURVE SMOOTH",
"597 42 OFFCURVE",
"636 -4 OFFCURVE",
"685 -30 CURVE",
"672 -52 OFFCURVE",
"669 -76 OFFCURVE",
"669 -96 CURVE SMOOTH",
"669 -168 OFFCURVE",
"771 -242 OFFCURVE",
"843 -242 CURVE SMOOTH",
"872 -242 OFFCURVE",
"911 -230 OFFCURVE",
"938 -216 CURVE",
"889 -143 LINE",
"862 -160 OFFCURVE",
"822 -171 OFFCURVE",
"794 -171 CURVE SMOOTH",
"752 -171 OFFCURVE",
"730 -141 OFFCURVE",
"730 -118 CURVE SMOOTH",
"730 -96 OFFCURVE",
"739 -71 OFFCURVE",
"761 -55 CURVE",
"767 -55 LINE SMOOTH",
"794 -55 OFFCURVE",
"834 -43 OFFCURVE",
"861 -28 CURVE",
"812 44 LINE",
"786 28 OFFCURVE",
"745 17 OFFCURVE",
"717 17 CURVE SMOOTH",
"675 17 OFFCURVE",
"663 37 OFFCURVE",
"663 60 CURVE SMOOTH",
"663 99 OFFCURVE",
"698 128 OFFCURVE",
"767 164 CURVE",
"695 339 LINE",
"711 355 OFFCURVE",
"719 374 OFFCURVE",
"719 395 CURVE SMOOTH",
"719 437 OFFCURVE",
"686 465 OFFCURVE",
"642 465 CURVE SMOOTH",
"621 465 OFFCURVE",
"596 453 OFFCURVE",
"588 444 CURVE",
"617 369 LINE",
"581 344 OFFCURVE",
"537 333 OFFCURVE",
"489 334 CURVE",
"489 575 LINE",
"870 575 LINE",
"870 590 LINE",
"838 650 LINE",
"-31 650 LINE",
"-31 634 LINE",
"0 575 LINE",
"401 575 LINE",
"401 361 LINE",
"331 417 OFFCURVE",
"251 466 OFFCURVE",
"185 466 CURVE SMOOTH",
"138 466 OFFCURVE",
"55 440 OFFCURVE",
"34 432 CURVE",
"82 346 LINE",
"112 357 OFFCURVE",
"173 381 OFFCURVE",
"224 381 CURVE SMOOTH",
"276 381 OFFCURVE",
"333 367 OFFCURVE",
"399 310 CURVE",
"84 105 LINE",
"144 38 LINE",
"402 225 LINE",
"403 222 LINE",
"399 0 LINE",
"473 -42 LINE",
"489 -42 LINE",
"489 270 LINE",
"541 264 OFFCURVE",
"601 278 OFFCURVE",
"648 304 CURVE"
);
}
);
width = 870;
}
);
unicode = 0960;
},
{
glyphname = "lVocalic-deva";
lastChange = "2014-08-25 10:55:55 +0100";
layers = (
{
anchors = (
{
name = bottom;
position = "{458, 0}";
},
{
name = top;
position = "{528, 650}";
}
);
layerId = "39185045-6A8C-415A-8312-7B8F11386A4C";
name = Regular;
paths = (
{
closed = 1;
nodes = (
"622 180 OFFCURVE",
"450 114 OFFCURVE",
"450 34 CURVE SMOOTH",
"450 -39 OFFCURVE",
"563 -104 OFFCURVE",
"619 -104 CURVE SMOOTH",
"674 -104 OFFCURVE",
"719 -81 OFFCURVE",
"779 -29 CURVE",
"716 29 LINE",
"686 -8 OFFCURVE",
"643 -54 OFFCURVE",
"594 -54 CURVE SMOOTH",
"556 -54 OFFCURVE",
"533 -32 OFFCURVE",
"533 -1 CURVE SMOOTH",
"533 75 OFFCURVE",
"705 156 OFFCURVE",
"705 273 CURVE SMOOTH",
"705 342 OFFCURVE",
"632 403 OFFCURVE",
"571 427 CURVE",
"571 575 LINE",
"757 575 LINE",
"757 590 LINE",
"726 650 LINE",
"-31 650 LINE",
"-31 634 LINE",
"0 575 LINE",
"483 575 LINE",
"483 434 LINE",
"435 424 OFFCURVE",
"397 392 OFFCURVE",
"368 353 CURVE",
"322 407 OFFCURVE",
"250 454 OFFCURVE",
"186 454 CURVE SMOOTH",
"105 454 OFFCURVE",
"45 389 OFFCURVE",
"45 303 CURVE SMOOTH",
"45 180 OFFCURVE",
"139 51 OFFCURVE",
"191 -17 CURVE",
"226 3 LINE",
"180 67 OFFCURVE",
"124 149 OFFCURVE",
"124 265 CURVE SMOOTH",
"124 331 OFFCURVE",
"168 375 OFFCURVE",
"223 375 CURVE SMOOTH",
"256 375 OFFCURVE",
"309 350 OFFCURVE",
"343 315 CURVE",
"320 276 OFFCURVE",
"305 233 OFFCURVE",
"296 193 CURVE",
"294 193 OFFCURVE",
"381 156 OFFCURVE",
"381 156 CURVE",
"398 236 OFFCURVE",
"440 386 OFFCURVE",
"547 386 CURVE SMOOTH",
"565 386 OFFCURVE",
"622 360 OFFCURVE",
"622 308 CURVE SMOOTH"
);
}
);
width = 757;
}
);
unicode = 090C;
},
{
glyphname = "llVocalic-deva";
lastChange = "2014-08-25 10:56:02 +0100";
layers = (
{
anchors = (
{
name = bottom;
position = "{458, 0}";
},
{
name = top;
position = "{528, 650}";
}
);
layerId = "39185045-6A8C-415A-8312-7B8F11386A4C";
name = Regular;
paths = (
{
closed = 1;
nodes = (
"622 180 OFFCURVE",
"450 114 OFFCURVE",
"450 34 CURVE SMOOTH",
"450 -30 OFFCURVE",
"539 -89 OFFCURVE",
"597 -102 CURVE",
"590 -114 OFFCURVE",
"587 -126 OFFCURVE",
"587 -137 CURVE SMOOTH",
"587 -210 OFFCURVE",
"691 -248 OFFCURVE",
"747 -248 CURVE SMOOTH",
"802 -248 OFFCURVE",
"846 -224 OFFCURVE",
"906 -173 CURVE",
"843 -113 LINE",
"813 -150 OFFCURVE",
"770 -197 OFFCURVE",
"721 -197 CURVE SMOOTH",
"683 -197 OFFCURVE",
"660 -176 OFFCURVE",
"660 -143 CURVE SMOOTH",
"660 -126 OFFCURVE",
"674 -105 OFFCURVE",
"691 -89 CURVE",
"719 -76 OFFCURVE",
"747 -57 OFFCURVE",
"779 -29 CURVE",
"716 29 LINE",
"686 -8 OFFCURVE",
"643 -54 OFFCURVE",
"594 -54 CURVE SMOOTH",
"556 -54 OFFCURVE",
"533 -32 OFFCURVE",
"533 -1 CURVE SMOOTH",
"533 75 OFFCURVE",
"705 156 OFFCURVE",
"705 273 CURVE SMOOTH",
"705 342 OFFCURVE",
"632 403 OFFCURVE",
"571 427 CURVE",
"571 575 LINE",
"757 575 LINE",
"757 590 LINE",
"726 650 LINE",
"-31 650 LINE",
"-31 634 LINE",
"0 575 LINE",
"483 575 LINE",
"483 434 LINE",
"435 424 OFFCURVE",
"397 392 OFFCURVE",
"368 353 CURVE",
"322 407 OFFCURVE",
"250 454 OFFCURVE",
"186 454 CURVE SMOOTH",
"105 454 OFFCURVE",
"45 389 OFFCURVE",
"45 303 CURVE SMOOTH",
"45 180 OFFCURVE",
"139 51 OFFCURVE",
"191 -17 CURVE",
"226 3 LINE",
"180 67 OFFCURVE",
"124 149 OFFCURVE",
"124 265 CURVE SMOOTH",
"124 331 OFFCURVE",
"168 375 OFFCURVE",
"223 375 CURVE SMOOTH",
"256 375 OFFCURVE",
"309 350 OFFCURVE",
"343 315 CURVE",
"320 276 OFFCURVE",
"305 233 OFFCURVE",
"296 193 CURVE",
"294 193 OFFCURVE",
"381 156 OFFCURVE",
"381 156 CURVE",
"398 236 OFFCURVE",
"440 386 OFFCURVE",
"547 386 CURVE SMOOTH",
"565 386 OFFCURVE",
"622 360 OFFCURVE",
"622 308 CURVE SMOOTH"
);
}
);
width = 757;
}
);
unicode = 0961;
},
{
glyphname = "eCandra-deva";
lastChange = "2014-08-25 10:56:15 +0100";
layers = (
{
anchors = (
{
name = top;
position = "{276, 783}";
}
);
layerId = "39185045-6A8C-415A-8312-7B8F11386A4C";
name = Regular;
paths = (
{
closed = 1;
nodes = (
"399 325 LINE SMOOTH",
"399 281 OFFCURVE",
"362 263 OFFCURVE",
"319 244 CURVE",
"319 233 LINE",
"384 189 LINE",
"427 204 OFFCURVE",
"487 242 OFFCURVE",
"487 342 CURVE SMOOTH",
"487 575 LINE",
"588 575 LINE",
"588 590 LINE",
"556 650 LINE",
"-31 650 LINE",
"-31 634 LINE",
"0 575 LINE",
"91 575 LINE",
"91 279 LINE SMOOTH",
"91 232 OFFCURVE",
"103 211 OFFCURVE",
"199 147 CURVE SMOOTH",
"559 -95 LINE",
"505 -154 LINE",
"505 -156 LINE",
"514 -176 OFFCURVE",
"536 -202 OFFCURVE",
"573 -202 CURVE SMOOTH",
"613 -202 OFFCURVE",
"647 -180 OFFCURVE",
"647 -136 CURVE SMOOTH",
"647 -101 OFFCURVE",
"625 -73 OFFCURVE",
"529 -10 CURVE SMOOTH",
"224 197 LINE SMOOTH",
"186 223 OFFCURVE",
"180 240 OFFCURVE",
"180 268 CURVE SMOOTH",
"180 575 LINE",
"399 575 LINE"
);
},
{
closed = 1;
nodes = (
"433 918 LINE",
"406 874 OFFCURVE",
"345 818 OFFCURVE",
"257 818 CURVE SMOOTH",
"191 818 OFFCURVE",
"139 867 OFFCURVE",
"98 925 CURVE",
"65 911 LINE",
"104 843 OFFCURVE",
"183 752 OFFCURVE",
"295 752 CURVE SMOOTH",
"392 752 OFFCURVE",
"451 798 OFFCURVE",
"498 857 CURVE"
);
}
);
width = 588;
}
);
unicode = 090D;
},
{
glyphname = "eShort-deva";
layers = (
{
layerId = "39185045-6A8C-415A-8312-7B8F11386A4C";
name = Regular;
paths = (
{
closed = 1;
nodes = (
"399 325 LINE SMOOTH",
"399 281 OFFCURVE",
"362 263 OFFCURVE",
"319 244 CURVE",
"319 233 LINE",
"384 189 LINE",
"427 204 OFFCURVE",
"487 242 OFFCURVE",
"487 342 CURVE SMOOTH",
"487 575 LINE",
"588 575 LINE",
"588 590 LINE",
"556 650 LINE",
"468 650 LINE",
"472 664 OFFCURVE",
"477 684 OFFCURVE",
"477 703 CURVE SMOOTH",
"477 737 OFFCURVE",
"455 774 OFFCURVE",
"427 806 CURVE SMOOTH",
"396 844 OFFCURVE",
"351 875 OFFCURVE",
"297 875 CURVE SMOOTH",
"252 875 OFFCURVE",
"74 859 OFFCURVE",
"33 859 CURVE SMOOTH",
"-15 859 OFFCURVE",
"-49 874 OFFCURVE",
"-49 910 CURVE SMOOTH",
"-49 931 OFFCURVE",
"-41 958 OFFCURVE",
"-31 984 CURVE",
"-81 991 LINE",
"-88 971 OFFCURVE",
"-104 931 OFFCURVE",
"-104 893 CURVE SMOOTH",
"-104 841 OFFCURVE",
"6 772 OFFCURVE",
"120 772 CURVE SMOOTH",
"174 772 OFFCURVE",
"268 787 OFFCURVE",
"314 787 CURVE SMOOTH",
"400 787 OFFCURVE",
"424 733 OFFCURVE",
"424 684 CURVE SMOOTH",
"424 671 OFFCURVE",
"421 660 OFFCURVE",
"416 650 CURVE",
"-31 650 LINE",
"-31 634 LINE",
"0 575 LINE",
"91 575 LINE",
"91 279 LINE SMOOTH",
"91 232 OFFCURVE",
"103 211 OFFCURVE",
"199 147 CURVE SMOOTH",
"559 -95 LINE",
"505 -154 LINE",
"505 -156 LINE",
"514 -176 OFFCURVE",
"536 -202 OFFCURVE",
"573 -202 CURVE SMOOTH",
"613 -202 OFFCURVE",
"647 -180 OFFCURVE",
"647 -136 CURVE SMOOTH",
"647 -101 OFFCURVE",
"625 -73 OFFCURVE",
"529 -10 CURVE SMOOTH",
"224 197 LINE SMOOTH",
"186 223 OFFCURVE",
"180 240 OFFCURVE",
"180 268 CURVE SMOOTH",
"180 575 LINE",
"399 575 LINE"
);
}
);
width = 588;
}
);
unicode = 090E;
},
{
glyphname = "e-deva";
lastChange = "2014-08-25 10:56:35 +0100";
layers = (
{
anchors = (
{
name = top;
position = "{444, 650}";
}
);
layerId = "39185045-6A8C-415A-8312-7B8F11386A4C";
name = Regular;
paths = (
{
closed = 1;
nodes = (
"91 605 LINE",
"91 279 LINE SMOOTH",
"91 232 OFFCURVE",
"103 211 OFFCURVE",
"199 147 CURVE SMOOTH",
"559 -95 LINE",
"505 -154 LINE",
"505 -156 LINE",
"514 -176 OFFCURVE",
"536 -202 OFFCURVE",
"573 -202 CURVE SMOOTH",
"613 -202 OFFCURVE",
"647 -180 OFFCURVE",
"647 -136 CURVE SMOOTH",
"647 -101 OFFCURVE",
"625 -73 OFFCURVE",
"529 -10 CURVE SMOOTH",
"224 197 LINE SMOOTH",
"186 223 OFFCURVE",
"180 240 OFFCURVE",
"180 268 CURVE SMOOTH",
"180 605 LINE"
);
},
{
closed = 1;
nodes = (
"399 605 LINE",
"399 325 LINE SMOOTH",
"399 281 OFFCURVE",
"362 263 OFFCURVE",
"319 244 CURVE",
"319 233 LINE",
"384 189 LINE",
"427 204 OFFCURVE",
"487 242 OFFCURVE",
"487 342 CURVE SMOOTH",
"487 605 LINE"
);
},
{
closed = 1;
nodes = (
"-31 650 LINE",
"-31 634 LINE",
"0 575 LINE",
"588 575 LINE",
"588 590 LINE",
"556 650 LINE"
);
}
);
width = 588;
}
);
unicode = 090F;
},
{
glyphname = "ai-deva";
layers = (
{
layerId = "39185045-6A8C-415A-8312-7B8F11386A4C";
name = Regular;
paths = (
{
closed = 1;
nodes = (
"399 325 LINE SMOOTH",
"399 281 OFFCURVE",
"362 263 OFFCURVE",
"319 244 CURVE",
"319 233 LINE",
"384 189 LINE",
"427 204 OFFCURVE",
"487 242 OFFCURVE",
"487 342 CURVE SMOOTH",
"487 575 LINE",
"588 575 LINE",
"588 590 LINE",
"556 650 LINE",
"465 650 LINE",
"446 692 OFFCURVE",
"410 765 OFFCURVE",
"391 801 CURVE SMOOTH",
"327 924 OFFCURVE",
"262 1018 OFFCURVE",
"164 1018 CURVE SMOOTH",
"121 1018 OFFCURVE",
"93 996 OFFCURVE",
"93 956 CURVE SMOOTH",
"93 928 OFFCURVE",
"109 900 OFFCURVE",
"128 885 CURVE",
"247 921 LINE",
"269 910 OFFCURVE",
"309 844 OFFCURVE",
"360 753 CURVE SMOOTH",
"369 738 OFFCURVE",
"396 682 OFFCURVE",
"411 650 CURVE",
"-31 650 LINE",
"-31 634 LINE",
"0 575 LINE",
"91 575 LINE",
"91 279 LINE SMOOTH",
"91 232 OFFCURVE",
"103 211 OFFCURVE",
"199 147 CURVE SMOOTH",
"559 -95 LINE",
"505 -154 LINE",
"505 -156 LINE",
"514 -176 OFFCURVE",
"536 -202 OFFCURVE",
"573 -202 CURVE SMOOTH",
"613 -202 OFFCURVE",
"647 -180 OFFCURVE",
"647 -136 CURVE SMOOTH",
"647 -101 OFFCURVE",
"625 -73 OFFCURVE",
"529 -10 CURVE SMOOTH",
"224 197 LINE SMOOTH",
"186 223 OFFCURVE",
"180 240 OFFCURVE",
"180 268 CURVE SMOOTH",
"180 575 LINE",
"399 575 LINE"
);
}
);
width = 588;
}
);
unicode = 0910;
},
{
glyphname = "oCandra-deva";
lastChange = "2014-08-25 10:57:02 +0100";
layers = (
{
anchors = (
{
name = top;
position = "{988, 783}";
}
);
layerId = "39185045-6A8C-415A-8312-7B8F11386A4C";
name = Regular;
paths = (
{
closed = 1;
nodes = (
"953 -1 LINE",
"1025 -42 LINE",
"1040 -42 LINE",
"1040 575 LINE",
"1150 575 LINE",
"1150 590 LINE",
"1118 650 LINE",
"467 650 LINE",
"467 634 LINE",
"499 575 LINE",
"645 575 LINE",
"645 327 LINE",
"618 310 OFFCURVE",
"589 296 OFFCURVE",
"545 296 CURVE SMOOTH",
"492 296 OFFCURVE",
"432 320 OFFCURVE",
"397 339 CURVE",
"429 368 OFFCURVE",
"451 419 OFFCURVE",
"451 461 CURVE SMOOTH",
"451 557 OFFCURVE",
"336 665 OFFCURVE",
"256 667 CURVE SMOOTH",
"219 667 OFFCURVE",
"133 630 OFFCURVE",
"96 603 CURVE",
"142 516 LINE",
"183 553 OFFCURVE",
"234 586 OFFCURVE",
"290 586 CURVE SMOOTH",
"342 586 OFFCURVE",
"388 544 OFFCURVE",
"388 497 CURVE SMOOTH",
"388 450 OFFCURVE",
"360 425 OFFCURVE",
"328 407 CURVE SMOOTH",
"292 388 OFFCURVE",
"233 382 OFFCURVE",
"197 380 CURVE",
"186 353 LINE",
"221 289 LINE",
"252 293 OFFCURVE",
"315 303 OFFCURVE",
"355 316 CURVE",
"386 290 OFFCURVE",
"399 247 OFFCURVE",
"399 210 CURVE SMOOTH",
"399 150 OFFCURVE",
"350 98 OFFCURVE",
"280 98 CURVE SMOOTH",
"186 98 OFFCURVE",
"93 199 OFFCURVE",
"42 284 CURVE",
"8 262 LINE",
"57 173 OFFCURVE",
"153 18 OFFCURVE",
"317 18 CURVE SMOOTH",
"414 18 OFFCURVE",
"478 77 OFFCURVE",
"478 173 CURVE SMOOTH",
"478 209 OFFCURVE",
"469 240 OFFCURVE",
"455 267 CURVE",
"460 270 LINE",
"498 240 OFFCURVE",
"537 220 OFFCURVE",
"585 220 CURVE SMOOTH",
"609 220 OFFCURVE",
"630 225 OFFCURVE",
"643 232 CURVE",
"645 232 LINE",
"645 -1 LINE",
"717 -42 LINE",
"733 -42 LINE",
"733 575 LINE",
"953 575 LINE"
);
},
{
closed = 1;
nodes = (
"1147 918 LINE",
"1119 874 OFFCURVE",
"1058 818 OFFCURVE",
"971 818 CURVE SMOOTH",
"905 818 OFFCURVE",
"852 867 OFFCURVE",
"811 925 CURVE",
"779 911 LINE",
"819 843 OFFCURVE",
"897 752 OFFCURVE",
"1009 752 CURVE SMOOTH",
"1107 752 OFFCURVE",
"1165 798 OFFCURVE",
"1211 857 CURVE"
);
}
);
width = 1150;
}
);
unicode = 0911;
},
{
glyphname = "oShort-deva";
layers = (
{
layerId = "39185045-6A8C-415A-8312-7B8F11386A4C";
name = Regular;
paths = (
{
closed = 1;
nodes = (
"953 -1 LINE",
"1025 -42 LINE",
"1040 -42 LINE",
"1040 575 LINE",
"1150 575 LINE",
"1150 590 LINE",
"1118 650 LINE",
"1015 650 LINE",
"1020 664 OFFCURVE",
"1025 684 OFFCURVE",
"1025 703 CURVE SMOOTH",
"1025 737 OFFCURVE",
"1002 774 OFFCURVE",
"976 806 CURVE SMOOTH",
"944 844 OFFCURVE",
"900 875 OFFCURVE",
"844 875 CURVE SMOOTH",
"799 875 OFFCURVE",
"622 859 OFFCURVE",
"581 859 CURVE SMOOTH",
"533 859 OFFCURVE",
"499 874 OFFCURVE",
"499 910 CURVE SMOOTH",
"499 931 OFFCURVE",
"507 958 OFFCURVE",
"516 984 CURVE",
"467 991 LINE",
"460 971 OFFCURVE",
"444 931 OFFCURVE",
"444 893 CURVE SMOOTH",
"444 841 OFFCURVE",
"553 772 OFFCURVE",
"668 772 CURVE SMOOTH",
"721 772 OFFCURVE",
"816 787 OFFCURVE",
"862 787 CURVE SMOOTH",
"948 787 OFFCURVE",
"971 733 OFFCURVE",
"971 684 CURVE SMOOTH",
"971 671 OFFCURVE",
"968 660 OFFCURVE",
"963 650 CURVE",
"467 650 LINE",
"467 634 LINE",
"499 575 LINE",
"645 575 LINE",
"645 327 LINE",
"618 310 OFFCURVE",
"589 296 OFFCURVE",
"545 296 CURVE SMOOTH",
"492 296 OFFCURVE",
"432 320 OFFCURVE",
"397 339 CURVE",
"429 368 OFFCURVE",
"451 419 OFFCURVE",
"451 461 CURVE SMOOTH",
"451 557 OFFCURVE",
"336 665 OFFCURVE",
"256 667 CURVE SMOOTH",
"219 667 OFFCURVE",
"133 630 OFFCURVE",
"96 603 CURVE",
"142 516 LINE",
"183 553 OFFCURVE",
"234 586 OFFCURVE",
"290 586 CURVE SMOOTH",
"342 586 OFFCURVE",
"388 544 OFFCURVE",
"388 497 CURVE SMOOTH",
"388 450 OFFCURVE",
"360 425 OFFCURVE",
"328 407 CURVE SMOOTH",
"292 388 OFFCURVE",
"233 382 OFFCURVE",
"197 380 CURVE",
"186 353 LINE",
"221 289 LINE",
"252 293 OFFCURVE",
"315 303 OFFCURVE",
"355 316 CURVE",
"386 290 OFFCURVE",
"399 247 OFFCURVE",
"399 210 CURVE SMOOTH",
"399 150 OFFCURVE",
"350 98 OFFCURVE",
"280 98 CURVE SMOOTH",
"186 98 OFFCURVE",
"93 199 OFFCURVE",
"42 284 CURVE",
"8 262 LINE",
"57 173 OFFCURVE",
"153 18 OFFCURVE",
"317 18 CURVE SMOOTH",
"414 18 OFFCURVE",
"478 77 OFFCURVE",
"478 173 CURVE SMOOTH",
"478 209 OFFCURVE",
"469 240 OFFCURVE",
"455 267 CURVE",
"460 270 LINE",
"498 240 OFFCURVE",
"537 220 OFFCURVE",
"585 220 CURVE SMOOTH",
"609 220 OFFCURVE",
"630 225 OFFCURVE",
"643 232 CURVE",
"645 232 LINE",
"645 -1 LINE",
"717 -42 LINE",
"733 -42 LINE",
"733 575 LINE",
"953 575 LINE"
);
}
);
width = 1150;
}
);
unicode = 0912;
},
{
glyphname = "o-deva";
lastChange = "2014-08-25 10:57:34 +0100";
layers = (
{
anchors = (
{
name = top;
position = "{1003, 650}";
}
);
layerId = "39185045-6A8C-415A-8312-7B8F11386A4C";
name = Regular;
paths = (
{
closed = 1;
nodes = (
"953 -1 LINE",
"1025 -42 LINE",
"1040 -42 LINE",
"1040 575 LINE",
"1150 575 LINE",
"1150 590 LINE",
"1118 650 LINE",
"1003 650 LINE",
"985 692 OFFCURVE",
"949 765 OFFCURVE",
"930 801 CURVE SMOOTH",
"865 924 OFFCURVE",
"800 1018 OFFCURVE",
"703 1018 CURVE SMOOTH",
"659 1018 OFFCURVE",
"631 996 OFFCURVE",
"631 956 CURVE SMOOTH",
"631 928 OFFCURVE",
"648 900 OFFCURVE",
"667 885 CURVE",
"786 921 LINE",
"807 910 OFFCURVE",
"847 844 OFFCURVE",
"899 753 CURVE SMOOTH",
"908 738 OFFCURVE",
"935 682 OFFCURVE",
"950 650 CURVE",
"467 650 LINE",
"467 634 LINE",
"499 575 LINE",
"645 575 LINE",
"645 327 LINE",
"618 310 OFFCURVE",
"589 296 OFFCURVE",
"545 296 CURVE SMOOTH",
"492 296 OFFCURVE",
"432 320 OFFCURVE",
"397 339 CURVE",
"429 368 OFFCURVE",
"451 419 OFFCURVE",
"451 461 CURVE SMOOTH",
"451 557 OFFCURVE",
"336 665 OFFCURVE",
"256 667 CURVE SMOOTH",
"219 667 OFFCURVE",
"133 630 OFFCURVE",
"96 603 CURVE",
"142 516 LINE",
"183 553 OFFCURVE",
"234 586 OFFCURVE",
"290 586 CURVE SMOOTH",
"342 586 OFFCURVE",
"388 544 OFFCURVE",
"388 497 CURVE SMOOTH",
"388 450 OFFCURVE",
"360 425 OFFCURVE",
"328 407 CURVE SMOOTH",
"292 388 OFFCURVE",
"233 382 OFFCURVE",
"197 380 CURVE",
"186 353 LINE",
"221 289 LINE",
"252 293 OFFCURVE",
"315 303 OFFCURVE",
"355 316 CURVE",
"386 290 OFFCURVE",
"399 247 OFFCURVE",
"399 210 CURVE SMOOTH",
"399 150 OFFCURVE",
"350 98 OFFCURVE",
"280 98 CURVE SMOOTH",
"186 98 OFFCURVE",
"93 199 OFFCURVE",
"42 284 CURVE",
"8 262 LINE",
"57 173 OFFCURVE",
"153 18 OFFCURVE",
"317 18 CURVE SMOOTH",
"414 18 OFFCURVE",
"478 77 OFFCURVE",
"478 173 CURVE SMOOTH",
"478 209 OFFCURVE",
"469 240 OFFCURVE",
"455 267 CURVE",
"460 270 LINE",
"498 240 OFFCURVE",
"537 220 OFFCURVE",
"585 220 CURVE SMOOTH",
"609 220 OFFCURVE",
"630 225 OFFCURVE",
"643 232 CURVE",
"645 232 LINE",
"645 -1 LINE",
"717 -42 LINE",
"733 -42 LINE",
"733 575 LINE",
"953 575 LINE"
);
}
);
width = 1150;
}
);
unicode = 0913;
},
{
glyphname = "au-deva";
lastChange = "2014-08-25 10:57:44 +0100";
layers = (
{
anchors = (
{
name = top;
position = "{1024, 650}";
}
);
layerId = "39185045-6A8C-415A-8312-7B8F11386A4C";
name = Regular;
paths = (
{
closed = 1;
nodes = (
"953 -1 LINE",
"1025 -42 LINE",
"1040 -42 LINE",
"1040 575 LINE",
"1150 575 LINE",
"1150 590 LINE",
"1118 650 LINE",
"1024 650 LINE",
"1008 698 OFFCURVE",
"978 765 OFFCURVE",
"962 801 CURVE SMOOTH",
"908 928 OFFCURVE",
"837 1045 OFFCURVE",
"721 1045 CURVE SMOOTH",
"677 1045 OFFCURVE",
"650 1023 OFFCURVE",
"650 983 CURVE SMOOTH",
"650 956 OFFCURVE",
"667 927 OFFCURVE",
"685 913 CURVE",
"687 913 LINE",
"822 950 LINE",
"846 927 OFFCURVE",
"900 840 OFFCURVE",
"945 749 CURVE SMOOTH",
"954 732 OFFCURVE",
"974 684 OFFCURVE",
"989 650 CURVE",
"957 650 LINE",
"887 760 OFFCURVE",
"802 869 OFFCURVE",
"703 869 CURVE SMOOTH",
"664 869 OFFCURVE",
"635 846 OFFCURVE",
"635 811 CURVE SMOOTH",
"635 793 OFFCURVE",
"648 769 OFFCURVE",
"667 754 CURVE",
"669 754 LINE",
"812 772 LINE",
"826 765 OFFCURVE",
"888 691 OFFCURVE",
"920 650 CURVE",
"467 650 LINE",
"467 634 LINE",
"499 575 LINE",
"645 575 LINE",
"645 327 LINE",
"618 310 OFFCURVE",
"589 296 OFFCURVE",
"545 296 CURVE SMOOTH",
"492 296 OFFCURVE",
"432 320 OFFCURVE",
"397 339 CURVE",
"429 368 OFFCURVE",
"451 419 OFFCURVE",
"451 461 CURVE SMOOTH",
"451 557 OFFCURVE",
"336 665 OFFCURVE",
"256 667 CURVE SMOOTH",
"219 667 OFFCURVE",
"133 630 OFFCURVE",
"96 603 CURVE",
"142 516 LINE",
"183 553 OFFCURVE",
"234 586 OFFCURVE",
"290 586 CURVE SMOOTH",
"342 586 OFFCURVE",
"388 544 OFFCURVE",
"388 497 CURVE SMOOTH",
"388 450 OFFCURVE",
"360 425 OFFCURVE",
"328 407 CURVE SMOOTH",
"292 388 OFFCURVE",
"233 382 OFFCURVE",
"197 380 CURVE",
"186 353 LINE",
"221 289 LINE",
"252 293 OFFCURVE",
"315 303 OFFCURVE",
"355 316 CURVE",
"386 290 OFFCURVE",
"399 247 OFFCURVE",
"399 210 CURVE SMOOTH",
"399 150 OFFCURVE",
"350 98 OFFCURVE",
"280 98 CURVE SMOOTH",
"186 98 OFFCURVE",
"93 199 OFFCURVE",
"42 284 CURVE",
"8 262 LINE",
"57 173 OFFCURVE",
"153 18 OFFCURVE",
"317 18 CURVE SMOOTH",
"414 18 OFFCURVE",
"478 77 OFFCURVE",
"478 173 CURVE SMOOTH",
"478 209 OFFCURVE",
"469 240 OFFCURVE",
"455 267 CURVE",
"460 270 LINE",
"498 240 OFFCURVE",
"537 220 OFFCURVE",
"585 220 CURVE SMOOTH",
"609 220 OFFCURVE",
"630 225 OFFCURVE",
"643 232 CURVE",
"645 232 LINE",
"645 -1 LINE",
"717 -42 LINE",
"733 -42 LINE",
"733 575 LINE",
"953 575 LINE"
);
}
);
width = 1150;
}
);
unicode = 0914;
},
{
glyphname = "ue-deva";
layers = (
{
layerId = "39185045-6A8C-415A-8312-7B8F11386A4C";
name = Regular;
paths = (
{
closed = 1;
nodes = (
"843 575 LINE",
"843 590 LINE",
"811 650 LINE",
"467 650 LINE",
"467 634 LINE",
"499 575 LINE",
"645 575 LINE",
"645 327 LINE",
"618 310 OFFCURVE",
"589 296 OFFCURVE",
"545 296 CURVE SMOOTH",
"492 296 OFFCURVE",
"432 320 OFFCURVE",
"397 339 CURVE",
"429 368 OFFCURVE",
"451 419 OFFCURVE",
"451 461 CURVE SMOOTH",
"451 557 OFFCURVE",
"336 665 OFFCURVE",
"256 667 CURVE SMOOTH",
"219 667 OFFCURVE",
"133 630 OFFCURVE",
"96 603 CURVE",
"142 516 LINE",
"183 553 OFFCURVE",
"234 586 OFFCURVE",
"290 586 CURVE SMOOTH",
"342 586 OFFCURVE",
"388 544 OFFCURVE",
"388 497 CURVE SMOOTH",
"388 450 OFFCURVE",
"360 425 OFFCURVE",
"328 407 CURVE SMOOTH",
"292 388 OFFCURVE",
"233 382 OFFCURVE",
"197 380 CURVE",
"186 353 LINE",
"221 289 LINE",
"252 293 OFFCURVE",
"315 303 OFFCURVE",
"355 316 CURVE",
"386 290 OFFCURVE",
"399 247 OFFCURVE",
"399 210 CURVE SMOOTH",
"399 150 OFFCURVE",
"350 98 OFFCURVE",
"280 98 CURVE SMOOTH",
"186 98 OFFCURVE",
"93 199 OFFCURVE",
"42 284 CURVE",
"8 262 LINE",
"57 173 OFFCURVE",
"153 18 OFFCURVE",
"317 18 CURVE SMOOTH",
"414 18 OFFCURVE",
"478 77 OFFCURVE",
"478 173 CURVE SMOOTH",
"478 209 OFFCURVE",
"469 240 OFFCURVE",
"455 267 CURVE",
"460 270 LINE",
"498 240 OFFCURVE",
"537 220 OFFCURVE",
"585 220 CURVE SMOOTH",
"609 220 OFFCURVE",
"630 225 OFFCURVE",
"643 232 CURVE",
"645 232 LINE",
"645 -1 LINE",
"717 -42 LINE",
"733 -42 LINE",
"733 575 LINE"
);
},
{
closed = 1;
nodes = (
"328 -147 OFFCURVE",
"272 -107 OFFCURVE",
"236 -61 CURVE",
"198 -92 LINE",
"237 -160 OFFCURVE",
"321 -217 OFFCURVE",
"416 -217 CURVE",
"510 -217 OFFCURVE",
"594 -160 OFFCURVE",
"633 -92 CURVE",
"596 -61 LINE",
"560 -107 OFFCURVE",
"504 -147 OFFCURVE",
"416 -147 CURVE"
);
}
);
width = 843;
}
);
unicode = 0976;
},
{
glyphname = "uue-deva";
layers = (
{
layerId = "39185045-6A8C-415A-8312-7B8F11386A4C";
name = Regular;
paths = (
{
closed = 1;
nodes = (
"843 575 LINE",
"843 590 LINE",
"811 650 LINE",
"467 650 LINE",
"467 634 LINE",
"499 575 LINE",
"645 575 LINE",
"645 327 LINE",
"618 310 OFFCURVE",
"589 296 OFFCURVE",
"545 296 CURVE SMOOTH",
"492 296 OFFCURVE",
"432 320 OFFCURVE",
"397 339 CURVE",
"429 368 OFFCURVE",
"451 419 OFFCURVE",
"451 461 CURVE SMOOTH",
"451 557 OFFCURVE",
"336 665 OFFCURVE",
"256 667 CURVE SMOOTH",
"219 667 OFFCURVE",
"133 630 OFFCURVE",
"96 603 CURVE",
"142 516 LINE",
"183 553 OFFCURVE",
"234 586 OFFCURVE",
"290 586 CURVE SMOOTH",
"342 586 OFFCURVE",
"388 544 OFFCURVE",
"388 497 CURVE SMOOTH",
"388 450 OFFCURVE",
"360 425 OFFCURVE",
"328 407 CURVE SMOOTH",
"292 388 OFFCURVE",
"233 382 OFFCURVE",
"197 380 CURVE",
"186 353 LINE",
"221 289 LINE",
"252 293 OFFCURVE",
"315 303 OFFCURVE",
"355 316 CURVE",
"386 290 OFFCURVE",
"399 247 OFFCURVE",
"399 210 CURVE SMOOTH",
"399 150 OFFCURVE",
"350 98 OFFCURVE",
"280 98 CURVE SMOOTH",
"186 98 OFFCURVE",
"93 199 OFFCURVE",
"42 284 CURVE",
"8 262 LINE",
"57 173 OFFCURVE",
"153 18 OFFCURVE",
"317 18 CURVE SMOOTH",
"414 18 OFFCURVE",
"478 77 OFFCURVE",
"478 173 CURVE SMOOTH",
"478 209 OFFCURVE",
"469 240 OFFCURVE",
"455 267 CURVE",
"460 270 LINE",
"498 240 OFFCURVE",
"537 220 OFFCURVE",
"585 220 CURVE SMOOTH",
"609 220 OFFCURVE",
"630 225 OFFCURVE",
"643 232 CURVE",
"645 232 LINE",
"645 -1 LINE",
"717 -42 LINE",
"733 -42 LINE",
"733 575 LINE"
);
},
{
closed = 1;
nodes = (
"328 -147 OFFCURVE",
"272 -107 OFFCURVE",
"236 -61 CURVE",
"198 -92 LINE",
"237 -160 OFFCURVE",
"321 -217 OFFCURVE",
"416 -217 CURVE",
"510 -217 OFFCURVE",
"594 -160 OFFCURVE",
"633 -92 CURVE",
"596 -61 LINE",
"560 -107 OFFCURVE",
"504 -147 OFFCURVE",
"416 -147 CURVE"
);
},
{
closed = 1;
nodes = (
"328 -313 OFFCURVE",
"272 -273 OFFCURVE",
"236 -227 CURVE",
"198 -258 LINE",
"237 -326 OFFCURVE",
"321 -383 OFFCURVE",
"416 -383 CURVE",
"510 -383 OFFCURVE",
"594 -326 OFFCURVE",
"633 -258 CURVE",
"596 -227 LINE",
"560 -273 OFFCURVE",
"504 -313 OFFCURVE",
"416 -313 CURVE"
);
}
);
width = 843;
}
);
unicode = 0977;
},
{
glyphname = "aaMatra-deva";
lastChange = "2014-08-25 10:58:11 +0100";
layers = (
{
anchors = (
{
name = bottom;
position = "{154, 0}";
},
{
name = top;
position = "{154, 650}";
}
);
layerId = "39185045-6A8C-415A-8312-7B8F11386A4C";
name = Regular;
paths = (
{
closed = 1;
nodes = (
"-31 650 LINE",
"-31 634 LINE",
"0 575 LINE",
"109 575 LINE",
"109 -1 LINE",
"182 -42 LINE",
"198 -42 LINE",
"198 575 LINE",
"307 575 LINE",
"307 590 LINE",
"276 650 LINE"
);
}
);
width = 307;
}
);
unicode = 093E;
},
{
glyphname = "iMatra-deva";
lastChange = "2014-08-26 10:35:57 +0100";
layers = (
{
anchors = (
{
name = imatra;
position = "{722, 719}";
},
{
name = top;
position = "{708, 701}";
}
);
layerId = "39185045-6A8C-415A-8312-7B8F11386A4C";
name = Regular;
paths = (
{
closed = 1;
nodes = (
"119 998 OFFCURVE",
"34 932 OFFCURVE",
"34 842 CURVE SMOOTH",
"34 771 OFFCURVE",
"83 696 OFFCURVE",
"122 643 CURVE",
"177 643 LINE",
"160 664 OFFCURVE",
"128 735 OFFCURVE",
"128 795 CURVE SMOOTH",
"128 878 OFFCURVE",
"195 919 OFFCURVE",
"280 919 CURVE SMOOTH",
"406 919 OFFCURVE",
"553 804 OFFCURVE",
"695 684 CURVE",
"722 719 LINE",
"587 840 OFFCURVE",
"399 998 OFFCURVE",
"244 998 CURVE SMOOTH"
);
},
{
closed = 1;
nodes = (
"-31 650 LINE",
"-31 634 LINE",
"0 575 LINE",
"109 575 LINE",
"109 -1 LINE",
"182 -42 LINE",
"198 -42 LINE",
"198 575 LINE",
"307 575 LINE",
"307 590 LINE",
"275 650 LINE"
);
}
);
width = 307;
}
);
unicode = 093F;
},
{
glyphname = "iMatra_reph-deva";
lastChange = "2014-08-26 15:04:45 +0100";
layers = (
{
anchors = (
{
name = imatra;
position = "{722, 719}";
}
);
layerId = "39185045-6A8C-415A-8312-7B8F11386A4C";
name = Regular;
paths = (
{
closed = 1;
nodes = (
"109 -1 LINE",
"182 -42 LINE",
"198 -42 LINE",
"198 575 LINE",
"307 575 LINE",
"307 590 LINE",
"275 650 LINE",
"172 650 LINE",
"157 672 OFFCURVE",
"128 738 OFFCURVE",
"128 795 CURVE SMOOTH",
"128 878 OFFCURVE",
"195 919 OFFCURVE",
"280 919 CURVE SMOOTH",
"406 919 OFFCURVE",
"553 804 OFFCURVE",
"695 684 CURVE",
"720 716 LINE",
"680 753 OFFCURVE",
"632 822 OFFCURVE",
"632 880 CURVE SMOOTH",
"632 945 OFFCURVE",
"672 976 OFFCURVE",
"722 976 CURVE SMOOTH",
"767 976 OFFCURVE",
"819 951 OFFCURVE",
"841 933 CURVE",
"867 975 LINE",
"824 1020 OFFCURVE",
"763 1050 OFFCURVE",
"704 1050 CURVE SMOOTH",
"634 1050 OFFCURVE",
"548 1008 OFFCURVE",
"548 917 CURVE SMOOTH",
"548 893 OFFCURVE",
"559 869 OFFCURVE",
"573 848 CURVE",
"570 845 LINE",
"462 930 OFFCURVE",
"347 998 OFFCURVE",
"244 998 CURVE SMOOTH",
"119 998 OFFCURVE",
"34 932 OFFCURVE",
"34 842 CURVE SMOOTH",
"34 773 OFFCURVE",
"80 701 OFFCURVE",
"117 650 CURVE",
"-31 650 LINE",
"-31 634 LINE",
"0 575 LINE",
"109 575 LINE"
);
}
);
width = 307;
}
);
},
{
glyphname = "iMatra_reph_anusvara-deva";
lastChange = "2014-08-26 15:04:49 +0100";
layers = (
{
anchors = (
{
name = imatra;
position = "{722, 719}";
}
);
layerId = "39185045-6A8C-415A-8312-7B8F11386A4C";
name = Regular;
paths = (
{
closed = 1;
nodes = (
"761 770 LINE",
"831 842 LINE",
"760 913 LINE",
"691 841 LINE"
);
},
{
closed = 1;
nodes = (
"109 -1 LINE",
"182 -42 LINE",
"198 -42 LINE",
"198 575 LINE",
"307 575 LINE",
"307 590 LINE",
"275 650 LINE",
"172 650 LINE",
"157 672 OFFCURVE",
"128 738 OFFCURVE",
"128 795 CURVE SMOOTH",
"128 878 OFFCURVE",
"195 919 OFFCURVE",
"280 919 CURVE SMOOTH",
"406 919 OFFCURVE",
"553 804 OFFCURVE",
"695 684 CURVE",
"720 716 LINE",
"680 753 OFFCURVE",
"632 822 OFFCURVE",
"632 880 CURVE SMOOTH",
"632 945 OFFCURVE",
"672 976 OFFCURVE",
"722 976 CURVE SMOOTH",
"767 976 OFFCURVE",
"819 951 OFFCURVE",
"841 933 CURVE",
"867 975 LINE",
"824 1020 OFFCURVE",
"763 1050 OFFCURVE",
"704 1050 CURVE SMOOTH",
"634 1050 OFFCURVE",
"548 1008 OFFCURVE",
"548 917 CURVE SMOOTH",
"548 893 OFFCURVE",
"559 869 OFFCURVE",
"573 848 CURVE",
"570 845 LINE",
"462 930 OFFCURVE",
"347 998 OFFCURVE",
"244 998 CURVE SMOOTH",
"119 998 OFFCURVE",
"34 932 OFFCURVE",
"34 842 CURVE SMOOTH",
"34 773 OFFCURVE",
"80 701 OFFCURVE",
"117 650 CURVE",
"-31 650 LINE",
"-31 634 LINE",
"0 575 LINE",
"109 575 LINE"
);
}
);
width = 307;
}
);
},
{
glyphname = "iMatra_anusvara-deva";
lastChange = "2014-08-26 15:04:51 +0100";
layers = (
{
anchors = (
{
name = imatra;
position = "{722, 719}";
}
);
layerId = "39185045-6A8C-415A-8312-7B8F11386A4C";
name = Regular;
paths = (
{
closed = 1;
nodes = (
"307 575 LINE",
"307 590 LINE",
"275 650 LINE",
"172 650 LINE",
"157 672 OFFCURVE",
"128 738 OFFCURVE",
"128 795 CURVE SMOOTH",
"128 878 OFFCURVE",
"195 919 OFFCURVE",
"280 919 CURVE SMOOTH",
"406 919 OFFCURVE",
"553 804 OFFCURVE",
"695 684 CURVE",
"722 719 LINE",
"587 840 OFFCURVE",
"399 998 OFFCURVE",
"244 998 CURVE SMOOTH",
"119 998 OFFCURVE",
"34 932 OFFCURVE",
"34 842 CURVE SMOOTH",
"34 773 OFFCURVE",
"80 701 OFFCURVE",
"117 650 CURVE",
"-31 650 LINE",
"-31 634 LINE",
"0 575 LINE",
"109 575 LINE",
"109 -1 LINE",
"182 -42 LINE",
"198 -42 LINE",
"198 575 LINE"
);
},
{
closed = 1;
nodes = (
"786 722 LINE",
"862 801 LINE",
"785 879 LINE",
"708 800 LINE"
);
}
);
width = 307;
}
);
},
